<svg width="24" height="24" viewBox="0 0 24 24" fill="none" xmlns="http://www.w3.org/2000/svg">
<path d="M11.25 10.125V1.5H4.312C4.16286 1.50026 4.01991 1.5597 3.91455 1.66525C3.80918 1.77081 3.75 1.91386 3.75 2.063V21.938C3.75 22.0119 3.76457 22.085 3.79288 22.1533C3.82118 22.2215 3.86267 22.2835 3.91496 22.3357C3.96725 22.3879 4.02932 22.4293 4.09762 22.4575C4.16593 22.4857 4.23911 22.5001 4.313 22.5H19.688C19.7619 22.5 19.835 22.4854 19.9033 22.4571C19.9715 22.4288 20.0335 22.3873 20.0857 22.335C20.1379 22.2827 20.1793 22.2207 20.2075 22.1524C20.2357 22.0841 20.2501 22.0109 20.25 21.937V10.5H11.625C11.5255 10.5 11.4302 10.4605 11.3598 10.3902C11.2895 10.3198 11.25 10.2245 11.25 10.125Z" fill="#2C3954"/>
<path d="M12.75 1.953V8.811C12.75 8.83569 12.7549 8.86014 12.7643 8.88295C12.7738 8.90576 12.7876 8.92648 12.8051 8.94394C12.8225 8.9614 12.8432 8.97525 12.8661 8.98469C12.8889 8.99414 12.9133 8.999 12.938 8.999H19.796C19.8098 8.99897 19.8235 8.99587 19.836 8.98993C19.8485 8.984 19.8596 8.97537 19.8684 8.96467C19.8772 8.95397 19.8835 8.94146 19.8869 8.92803C19.8903 8.91461 19.8906 8.9006 19.888 8.887C19.8843 8.86879 19.8752 8.85208 19.862 8.839L12.91 1.887C12.897 1.87355 12.8803 1.8643 12.8621 1.86047C12.8438 1.85664 12.8248 1.8584 12.8075 1.86552C12.7903 1.87264 12.7755 1.88479 12.7653 1.9004C12.755 1.916 12.7497 1.93433 12.75 1.953Z" fill="#2C3954"/>
</svg>
