<svg width="24" height="24" viewBox="0 0 24 24" fill="none" xmlns="http://www.w3.org/2000/svg">
<path d="M19.113 9.75C18.985 9.75 18.436 9.754 18.237 9.765L15.53 9.835L9.285 2.25H6.34L9.836 9.966L5.275 10.034L3.2 7.5H0.757003L1.723 11.915C1.73 11.94 1.739 11.965 1.748 11.989V11.996C1.73836 12.0202 1.73001 12.0449 1.723 12.07L0.744003 16.5H3.171L5.301 13.922L9.838 14.024L6.34 21.75H9.293L15.528 14.168L18.236 14.24C18.436 14.25 18.986 14.255 19.11 14.255C20.252 14.255 21.185 14.098 21.886 13.789C23.074 13.266 23.251 12.443 23.251 12C23.251 10.59 21.704 9.75 19.113 9.75V9.75Z" fill="#2C3954"/>
</svg>
