<svg width="24" height="24" viewBox="0 0 24 24" fill="none" xmlns="http://www.w3.org/2000/svg">
<path d="M2.22699 4.87399H20.251V2.41399C20.251 2.30297 20.2263 2.19334 20.1787 2.09302C20.1312 1.9927 20.0619 1.90418 19.976 1.83386C19.8901 1.76355 19.7897 1.71318 19.6819 1.6864C19.5742 1.65961 19.4618 1.65709 19.353 1.67899L2.10399 4.51399C1.97572 4.53957 1.85637 4.59825 1.75779 4.68421C1.6592 4.77016 1.58481 4.8804 1.54199 5.00399C1.7604 4.91775 1.99317 4.87363 2.22799 4.87399H2.22699Z" fill="#2C3954"/>
<path d="M21.727 6H2.22699C2.02808 6 1.83731 6.07902 1.69666 6.21967C1.55601 6.36032 1.47699 6.55109 1.47699 6.75V20.25C1.47699 20.4489 1.55601 20.6397 1.69666 20.7803C1.83731 20.921 2.02808 21 2.22699 21H21.727C21.9259 21 22.1167 20.921 22.2573 20.7803C22.398 20.6397 22.477 20.4489 22.477 20.25V6.75C22.477 6.55109 22.398 6.36032 22.2573 6.21967C22.1167 6.07902 21.9259 6 21.727 6ZM17.25 15C16.8522 15 16.4706 14.842 16.1893 14.5607C15.908 14.2794 15.75 13.8978 15.75 13.5C15.75 13.1022 15.908 12.7206 16.1893 12.4393C16.4706 12.158 16.8522 12 17.25 12C17.6478 12 18.0293 12.158 18.3106 12.4393C18.592 12.7206 18.75 13.1022 18.75 13.5C18.75 13.8978 18.592 14.2794 18.3106 14.5607C18.0293 14.842 17.6478 15 17.25 15Z" fill="#2C3954"/>
<path d="M1.46899 12.164V5.43799C1.46899 4.85999 1.73699 4.57099 2.19199 4.49999C3.84199 4.23999 7.28199 4.10199 7.28199 4.10199C7.28199 4.10199 6.89099 4.85199 5.99999 4.85199V5.99999C6.86699 5.99999 7.46999 7.10199 7.46999 7.10199L3.97799 11.062L1.46999 12.164H1.46899Z" fill="#2C3954"/>
</svg>
