<svg width="80" height="80" viewBox="0 0 80 80" fill="none" xmlns="http://www.w3.org/2000/svg">
<path fill-rule="evenodd" clip-rule="evenodd" d="M16.6667 60H13.3333C11.4933 60 10 58.5067 10 56.6667V50H50V20H65.5567C69.28 20 70.89 21.92 72.01 23.69C73.99 26.8233 77.13 31.7967 79.04 34.95C79.6667 35.99 80 37.1833 80 38.4V53.3333C80 57.07 77.5733 60 73.3333 60H70C70 65.52 65.52 70 60 70C54.48 70 50 65.52 50 60H36.6667C36.6667 65.52 32.1867 70 26.6667 70C21.1467 70 16.6667 65.52 16.6667 60ZM26.6667 56C28.8733 56 30.6667 57.7933 30.6667 60C30.6667 62.2067 28.8733 64 26.6667 64C24.46 64 22.6667 62.2067 22.6667 60C22.6667 57.7933 24.46 56 26.6667 56ZM60 56C62.2067 56 64 57.7933 64 60C64 62.2067 62.2067 64 60 64C57.7933 64 56 62.2067 56 60C56 57.7933 57.7933 56 60 56ZM26.6667 26.6667H0V20H26.6667V16.6667H10V13.3333C10 11.4933 11.4933 10 13.3333 10H43.3333C45.1733 10 46.6667 11.4933 46.6667 13.3333V46.6667H10V36.6667H3.33333V30H26.6667V26.6667ZM56.6667 26.6667V36.6667H72.3833L67.6267 28.3467C67.0333 27.3067 65.93 26.6667 64.7333 26.6667H56.6667Z" fill="#88BC59"/>
</svg>
