<svg width="80" height="80" viewBox="0 0 80 80" fill="none" xmlns="http://www.w3.org/2000/svg">
<path d="M39.9981 2.3999C60.751 2.3999 77.6 19.2489 77.6 39.998C77.6 60.7509 60.751 77.5999 39.9981 77.5999C19.249 77.5999 2.39999 60.7509 2.39999 39.998C2.39999 19.2489 19.249 2.3999 39.9981 2.3999ZM39.9981 32.4874C38.4411 32.4874 37.1774 33.7511 37.1774 35.3081V55.9933C37.1774 57.5503 38.4411 58.814 39.9981 58.814C41.5551 58.814 42.8188 57.5503 42.8188 55.9933V35.3081C42.8188 33.7511 41.5551 32.4874 39.9981 32.4874ZM39.9906 21.2046C37.9146 21.2046 36.2297 22.8895 36.2297 24.9655C36.2297 27.0416 37.9146 28.7265 39.9906 28.7265C42.0666 28.7265 43.7515 27.0416 43.7515 24.9655C43.7515 22.8895 42.0666 21.2046 39.9906 21.2046Z" fill="#88BC59"/>
</svg>
