<svg width="80" height="80" viewBox="0 0 80 80" fill="none" xmlns="http://www.w3.org/2000/svg">
<path d="M37.5 31.8033L30 24.53L33.0967 21.4333L37.5 25.61L46.9033 15.97L50 19.07L37.5 31.8033ZM63.0867 19.0733C61.48 23.7733 61.4733 22.87 63.0867 27.59C63.2533 28.08 63.3333 28.58 63.3333 29.0733C63.3333 30.57 62.5933 32.0167 61.2833 32.9267C57.0967 35.8267 57.65 35.0967 56.0767 39.8167C55.4167 41.7867 53.51 43.1167 51.36 43.1167H51.35C46.1867 43.1 47.0833 42.8233 42.9233 45.7467C42.05 46.36 41.0267 46.6667 40 46.6667C38.9733 46.6667 37.95 46.36 37.08 45.75C32.9167 42.8233 33.8133 43.1033 28.6533 43.12H28.64C26.49 43.12 24.5867 41.79 23.93 39.82C22.3533 35.0967 22.8933 35.8267 18.7233 32.93C17.4067 32.0167 16.6667 30.57 16.6667 29.0733C16.6667 28.58 16.7467 28.08 16.9133 27.5933C18.5233 22.89 18.5267 23.7967 16.9133 19.0767C16.7467 18.5867 16.6667 18.0867 16.6667 17.5933C16.6667 16.0933 17.4067 14.65 18.72 13.7367C22.89 10.8433 22.35 11.5767 23.9267 6.84667C24.5833 4.87667 26.49 3.54667 28.6367 3.54667H28.65C33.8 3.56333 32.8867 3.86333 37.0767 0.913333C37.95 0.303333 38.9733 0 40 0C41.0267 0 42.05 0.303333 42.92 0.913333C47.08 3.84 46.1867 3.56333 51.3467 3.54667H51.3567C53.51 3.54667 55.4133 4.87667 56.0733 6.84667C57.65 11.5667 57.0967 10.8367 61.28 13.7367C62.5933 14.6467 63.3333 16.0933 63.3333 17.59C63.3333 18.0833 63.2533 18.5867 63.0867 19.0733ZM55.8333 23.3333C55.8333 14.59 48.7433 7.5 40 7.5C31.2567 7.5 24.1667 14.59 24.1667 23.3333C24.1667 32.0767 31.2567 39.1667 40 39.1667C48.7433 39.1667 55.8333 32.0733 55.8333 23.3333ZM31.2167 49.77C28.6633 49.77 26.6467 49.5233 24.9733 49.06C23.9467 59.2867 20.4433 66.96 13.3333 74.3667C16.18 74.7233 19.8333 74.0533 22.7767 72.5C23.8333 74.62 24.9433 77.2667 25.3333 80C32.03 72.3367 36.22 63.1533 37.78 53.0967C34.6367 52.4933 33.6667 51.4433 31.2167 49.77ZM48.7833 49.77C46.3267 51.46 45.3067 52.5033 42.2233 53.0967C43.79 63.1533 47.9767 72.3367 54.6667 80C55.0533 77.2667 56.1633 74.62 57.2233 72.5C60.1667 74.05 63.82 74.7233 66.6667 74.3667C59.5667 66.97 56.1067 59.2633 55.07 49.05C53.3933 49.52 51.3633 49.77 48.7833 49.77Z" fill="#88BC59"/>
</svg>
