<svg width="73" height="80" viewBox="0 0 73 80" fill="none" xmlns="http://www.w3.org/2000/svg">
<path d="M72.5168 58.148C73.5856 55.0796 72.2927 50.0288 71.1722 44.4437C71.3791 43.9955 71.4652 43.7024 71.4652 43.7024C71.4652 43.7024 71.879 39.5997 69.3105 32.963C64.8803 21.4824 57.3299 14.4664 53.3134 12.2082C51.5551 11.2257 50.5036 11.1395 49.7968 11.6566C49.7796 11.6739 49.7624 11.6738 49.7451 11.6911C48.866 12.3806 48.4868 13.9838 47.8317 15.9145C46.6078 19.4138 43.8841 21.4479 43.5566 23.3614C43.1774 25.723 43.2808 32.1184 42.6775 37.7035C42.9361 37.8932 43.2291 38.0828 43.5394 38.2552C43.5394 38.2552 43.5394 38.2552 43.5222 38.2552L43.5394 38.2724C43.3326 38.4793 43.1946 38.7378 43.0739 38.9964C42.9533 39.255 42.8326 39.5308 42.7292 39.8066C42.5224 40.341 42.3327 40.9098 42.1603 41.4615C42.1603 41.4615 42.1603 41.4615 42.1431 41.4615C41.4363 46.202 41.5742 47.1328 43.0395 50.3564C43.6773 51.7354 43.7118 53.5109 43.5566 55.4416C43.5394 55.614 43.5221 55.7864 43.5049 55.976C43.2119 58.8203 42.5568 61.9922 42.6947 64.9054C42.8843 69.6459 44.8495 69.9907 50.0382 72.0937C53.9168 75.7655 60.8982 76.9377 62.7427 77.0239C64.5872 77.11 66.4834 79.42 68.7934 77.6099C71.0688 75.8344 72.603 62.7506 72.5168 58.148ZM42.9533 41.8752C42.7464 41.789 42.5568 41.7028 42.3672 41.6166C42.5568 41.6856 42.7464 41.7717 42.9533 41.8752ZM43.1429 41.9441C43.1429 41.6338 43.1946 41.358 43.2636 41.0822C43.3325 40.8064 43.436 40.5306 43.5394 40.272C43.6773 40.0134 43.7807 39.7549 43.9359 39.5135C44.091 39.2722 44.2462 39.0309 44.4875 38.824L44.5219 38.8412C44.0738 39.8755 43.6428 40.9443 43.1946 41.9786C43.1946 41.9786 43.1946 41.9786 43.1774 41.9786C43.1601 41.9614 43.1602 41.9614 43.1429 41.9441ZM43.4532 42.082C43.6773 42.1682 43.9014 42.2717 44.16 42.3578C43.9014 42.2717 43.6773 42.1682 43.4532 42.082Z" fill="white"/>
<path d="M38.0749 26.496C38.4024 26.5822 38.7127 26.7029 39.0058 26.8925C39.0058 26.3926 39.023 25.841 39.0575 25.2549C38.4025 25.1342 37.7474 25.048 37.0923 25.0308C36.42 25.0136 35.7477 25.0308 35.0927 25.2204C35.0927 25.3755 35.0927 25.5135 35.1099 25.6686C35.1272 26.0134 35.1444 26.3581 35.1444 26.6857C35.4547 26.5305 35.7822 26.4615 36.1097 26.3926C36.4373 26.3409 36.7648 26.3409 37.0923 26.3409C37.4199 26.3754 37.7474 26.4098 38.0749 26.496Z" fill="white"/>
<path d="M37.1613 29.841C36.5234 29.8755 35.8856 29.9962 35.2823 30.2375C35.2995 30.8236 35.3168 31.358 35.334 31.8752C35.6098 31.6338 35.9201 31.4959 36.2649 31.3753C36.5924 31.2546 36.9544 31.2029 37.2991 31.1684C37.6611 31.1684 38.0059 31.1684 38.3507 31.2373C38.6955 31.3063 39.0402 31.4097 39.3505 31.5821V31.6166C38.6782 31.4959 38.0059 31.4442 37.3164 31.5132C36.6441 31.5649 35.9718 31.6855 35.334 31.9269C35.3513 32.4613 35.3513 32.9612 35.3513 33.4266C35.6788 33.2197 36.0408 33.0991 36.4028 32.9956C36.7648 32.8922 37.144 32.8577 37.5232 32.8233C37.9025 32.8233 38.299 32.8233 38.6782 32.9267C39.0575 33.0129 39.4367 33.1508 39.7297 33.3921C39.5746 32.8405 39.4367 32.2544 39.3505 31.5993C39.2643 31.0994 39.1954 30.5478 39.1436 29.979C39.1092 29.548 39.0747 29.0998 39.0575 28.6344C39.0402 28.4792 39.0402 28.3241 39.0402 28.169C39.023 27.7897 39.023 27.376 39.023 26.9278V26.9106V26.945C38.4024 26.8071 37.7474 26.7209 37.1095 26.6865C36.4717 26.652 35.8167 26.652 35.1789 26.7209C35.1961 27.2553 35.2133 27.7552 35.2478 28.2379C35.5581 28.0827 35.8857 28.031 36.2132 27.9966C36.5407 27.9621 36.8682 27.9966 37.1957 28.0138C37.5232 28.0655 37.8508 28.1172 38.1611 28.2207C38.4713 28.3241 38.7816 28.4448 39.0747 28.6171V28.6516C38.4541 28.5137 37.8163 28.4103 37.1785 28.3413C36.5407 28.2724 35.8856 28.2207 35.2478 28.2724C35.2823 28.9619 35.2995 29.5997 35.3168 30.2031C35.5753 29.979 35.8684 29.8238 36.1787 29.7204C36.489 29.5997 36.8337 29.5652 37.1613 29.5135C37.4888 29.5135 37.8335 29.5135 38.1611 29.5825C38.4886 29.6514 38.8161 29.7549 39.1092 29.9445V29.979C38.4369 29.841 37.7991 29.7893 37.1613 29.841Z" fill="white"/>
<path d="M38.1783 36.4804C38.7299 36.446 39.2988 36.4115 39.8504 36.4459C40.402 36.4804 40.9364 36.5494 41.4708 36.6873C41.0226 36.1874 40.6433 35.6358 40.3158 34.9979V35.0152C39.4711 34.8773 38.6093 34.86 37.7646 34.9635C36.9199 35.0497 36.0752 35.222 35.265 35.4979C35.2133 36.2736 35.1272 36.9286 34.972 37.4458C35.4374 37.1355 35.9718 36.9459 36.5062 36.7907C37.075 36.6356 37.6267 36.5494 38.1783 36.4804Z" fill="white"/>
<path d="M37.7474 34.6337C38.1783 34.6165 38.6265 34.582 39.0575 34.6337C39.4885 34.6854 39.9194 34.7889 40.3159 34.9785C40.0918 34.513 39.8849 33.9787 39.7298 33.3926C39.7298 33.3926 39.7298 33.3926 39.7298 33.3753L39.7126 33.3926C39.023 33.1168 38.2645 33.0823 37.5405 33.1167C36.7993 33.1512 36.0753 33.2547 35.3513 33.427C35.3513 34.1855 35.3341 34.8578 35.2996 35.4439C35.6616 35.1853 36.0581 35.0302 36.4718 34.8923C36.8855 34.7716 37.3164 34.7027 37.7474 34.6337Z" fill="white"/>
<path d="M38.6266 1.36446C38.9886 1.14036 39.4195 0.985225 39.8505 0.899034C40.2986 0.864558 40.7813 0.916262 41.195 1.1576C41.5915 1.39893 41.8673 1.76094 42.0225 2.15742C42.1087 1.60579 42.1604 1.31275 42.1604 1.31275C40.9192 -1.37641 37.9542 0.899034 37.9542 0.899034C37.9542 0.899034 37.8681 1.38169 37.7129 2.20913C37.9543 1.86436 38.2818 1.58856 38.6266 1.36446Z" fill="white"/>
<path d="M38.4886 10.4855C38.8851 10.5372 39.2816 10.5889 39.6436 10.7613C40.0056 10.9165 40.3331 11.1578 40.5745 11.4681C40.6607 10.8992 40.7468 10.3476 40.8158 9.81322C40.9364 9.0375 41.0399 8.29626 41.1433 7.58949C41.2467 6.93444 41.3329 6.31387 41.4364 5.72777L41.4191 5.74501C40.833 5.27958 40.0918 5.07271 39.3505 5.03824C38.6093 5.00376 37.8681 5.1072 37.1613 5.3313C37.0579 5.96911 36.9372 6.65863 36.8165 7.38263C37.0923 7.10682 37.4543 6.93444 37.8163 6.79654C38.1956 6.67587 38.6093 6.64139 39.0058 6.64139C39.4023 6.67586 39.7987 6.74482 40.1607 6.91721C40.5227 7.07235 40.8675 7.2792 41.1433 7.57225L41.1261 7.60674C40.471 7.24473 39.7298 7.0034 38.9885 6.98616C38.2473 6.95168 37.4716 7.08958 36.8165 7.43434C36.7131 8.03768 36.6097 8.65826 36.5235 9.31331C36.8338 9.05474 37.1957 8.91683 37.575 8.79616C37.9542 8.69273 38.3679 8.65826 38.7644 8.6755C39.1609 8.72721 39.5746 8.81341 39.9366 9.00303C40.2986 9.19265 40.6089 9.46845 40.833 9.79598L40.8158 9.81322C40.2469 9.33055 39.5057 9.0375 38.7644 8.98578C38.0059 8.91683 37.2475 9.05474 36.5407 9.33055V9.31331C36.4545 9.86494 36.3683 10.451 36.2994 11.0371C36.6269 10.813 36.9889 10.6924 37.3509 10.5889C37.7129 10.5027 38.0921 10.4855 38.4886 10.4855Z" fill="white"/>
<path d="M38.2128 12.2075C38.6093 12.242 39.0058 12.3109 39.3851 12.4833C39.7471 12.6557 40.0918 12.8625 40.3504 13.1556C40.4366 12.5867 40.5055 12.0351 40.5745 11.4835L40.5572 11.5007C39.9539 11.0525 39.2127 10.8629 38.4714 10.8284C37.7302 10.794 36.989 10.8801 36.2649 11.087V11.0698C36.1788 11.6903 36.0925 12.3109 36.0063 12.9487C36.2821 12.6729 36.6442 12.4833 37.0062 12.3626C37.4027 12.242 37.7991 12.2075 38.2128 12.2075Z" fill="white"/>
<path d="M38.0059 14.1016C38.3851 14.136 38.7816 14.1877 39.1436 14.3429C39.5056 14.4808 39.8504 14.7049 40.0745 15.0324C40.1607 14.4118 40.2469 13.7913 40.3158 13.1879L40.2986 13.2052C39.6436 12.8259 38.9195 12.5846 38.161 12.5501C37.4198 12.5156 36.6441 12.6708 35.9891 13.0155C35.9201 13.5499 35.8512 14.0843 35.7822 14.6187C36.1097 14.4291 36.4717 14.3084 36.851 14.2222C37.2475 14.1188 37.6267 14.1016 38.0059 14.1016Z" fill="white"/>
<path d="M39.6263 2.53783C40.04 2.53783 40.4882 2.5723 40.8674 2.76192C41.2467 2.9343 41.5742 3.22735 41.7811 3.57212C41.8673 3.02049 41.9535 2.55507 42.0052 2.19307L41.9879 2.2103C41.7466 1.88277 41.4535 1.58972 41.0743 1.41734C40.7123 1.24496 40.2813 1.19325 39.8849 1.24496C39.0747 1.34839 38.3334 1.7621 37.6956 2.26201L37.6784 2.24478C37.6094 2.60678 37.5405 3.05497 37.4543 3.55487C37.7129 3.26182 38.0404 3.03774 38.4024 2.86536C38.7989 2.67574 39.2126 2.58954 39.6263 2.53783Z" fill="white"/>
<path d="M39.1437 38.4635C39.3678 38.2049 39.6436 37.9808 39.9194 37.7567C40.2125 37.5671 40.5227 37.3775 40.8675 37.2741C41.2122 37.1534 41.5743 37.0844 41.919 37.1361C41.7639 36.9982 41.626 36.8603 41.4881 36.7224V36.7397C40.3848 36.6879 39.2988 36.7052 38.1956 36.8086C37.1096 36.912 36.0063 37.1017 34.9893 37.4809V37.4637C34.9203 37.7567 34.8169 38.0153 34.7134 38.2221C35.0065 38.1704 35.2823 38.2049 35.5409 38.2394C35.8167 38.2739 36.0753 38.3773 36.3338 38.4463C36.5752 38.5669 36.8338 38.6876 37.0579 38.8427C37.282 39.0151 37.506 39.2047 37.6439 39.4633L37.6267 39.4805C37.1957 39.153 36.7131 38.9289 36.2132 38.7393C35.7133 38.5324 35.2134 38.3773 34.6962 38.2394C34.5756 38.4635 34.4204 38.6531 34.2653 38.8083C34.1101 38.9634 33.9205 39.1185 33.7309 39.2909C34.0067 39.2737 34.2653 39.3082 34.5238 39.3771C34.7824 39.4461 35.0237 39.584 35.2651 39.7046C35.4892 39.8598 35.6961 40.0149 35.8857 40.2045C36.0753 40.4114 36.2304 40.6183 36.3338 40.8941L36.3166 40.9113C35.9546 40.5493 35.5409 40.239 35.0927 39.9805C34.6617 39.7046 34.1963 39.4805 33.7136 39.3254C33.3344 39.6529 32.9379 39.9804 32.5415 40.308C32.8 40.3424 33.0413 40.4459 33.2654 40.5838C33.4895 40.7217 33.6619 40.8941 33.8515 41.0665C34.0067 41.2733 34.1791 41.4629 34.2825 41.7043C34.3859 41.9456 34.4721 42.1869 34.4894 42.4627C35.2134 41.9111 35.8512 41.394 36.3338 40.9285C36.6096 40.67 36.851 40.4114 37.0579 40.1701C37.2992 39.877 37.5061 39.6529 37.6612 39.4978C38.006 39.1703 38.2301 39.1358 38.5748 39.3254C38.7127 38.9979 38.9196 38.7221 39.1437 38.4635Z" fill="white"/>
<path d="M41.9535 37.1504C41.2812 37.2883 40.6778 37.6331 40.1262 38.0295C39.5746 38.4088 39.0574 38.857 38.592 39.3569C38.7816 39.4775 39.0402 39.6499 39.3677 39.874C39.678 40.0809 39.9883 40.2877 40.2986 40.4946C40.3331 40.1671 40.4365 39.874 40.5744 39.5982C40.7123 39.3224 40.8847 39.0638 41.0398 38.8053C41.2467 38.5639 41.4191 38.3226 41.6604 38.1157C41.8845 37.9089 42.1258 37.7192 42.4189 37.5641L42.4361 37.5813C42.0397 38.0295 41.6604 38.495 41.3157 38.9776C40.9537 39.4603 40.6089 39.9602 40.3331 40.4774H40.3158C40.833 40.8049 41.3846 41.1324 42.1086 41.4772C42.0741 41.1669 42.1086 40.8738 42.1603 40.5808C42.212 40.2877 42.3155 40.0119 42.4017 39.7189C42.5396 39.4431 42.643 39.1673 42.8154 38.9087C42.9878 38.6673 43.1946 38.4088 43.4877 38.2709C43.1946 38.0985 42.9016 37.9089 42.643 37.7192C42.574 37.6675 42.5051 37.6158 42.4361 37.5469C42.281 37.4434 42.1086 37.3055 41.9535 37.1504Z" fill="white"/>
<path d="M36.058 24.7918C36.4028 24.7229 36.7476 24.7056 37.0923 24.7056C37.4371 24.7401 37.7819 24.7746 38.1094 24.8608C38.4369 24.947 38.7472 25.0504 39.0403 25.2228C39.0747 24.6711 39.1092 24.1023 39.1609 23.499C39.1954 22.9129 39.2471 22.3095 39.3161 21.6889C39.3678 21.1373 39.4195 20.5685 39.4885 19.9996C39.4885 19.9996 39.4885 19.9996 39.4885 19.9824L39.4712 19.9996C38.7989 19.7755 38.1094 19.6204 37.4026 19.5514C36.6959 19.4652 35.9891 19.4652 35.2996 19.5859V19.5514C35.6271 19.3618 35.9891 19.2756 36.3511 19.2239C36.7131 19.1722 37.0751 19.1894 37.4544 19.2066C37.8164 19.2756 38.1784 19.3273 38.5231 19.448C38.8679 19.5686 39.1954 19.7238 39.4885 19.9479C39.5574 19.379 39.6264 18.7929 39.6781 18.2068C39.7298 17.6897 39.7988 17.1725 39.8677 16.6382C39.9367 16.1038 40.0056 15.5522 40.0746 15.0005C40.0746 15.0005 40.0746 15.0005 40.0746 14.9833L40.0573 15.0005C39.4712 14.5523 38.7127 14.4144 37.9715 14.38C37.2475 14.3455 36.5063 14.4144 35.7823 14.5868C35.7133 15.1212 35.6443 15.6556 35.5926 16.19C35.9202 15.9831 36.2821 15.8797 36.6614 15.828C37.0406 15.7762 37.4199 15.7935 37.7819 15.8107C38.1439 15.8797 38.5231 15.9486 38.8679 16.0865C39.2126 16.2244 39.5574 16.3796 39.8505 16.6209L39.8332 16.6554C39.1437 16.4141 38.4369 16.2417 37.7301 16.1555C37.0234 16.0693 36.2821 16.0521 35.5754 16.2417V16.2244C35.5237 16.7416 35.4719 17.2587 35.4202 17.7759C35.7305 17.5001 36.127 17.5001 36.4718 17.4484C36.8338 17.4139 37.213 17.4311 37.575 17.4656C37.937 17.5345 38.299 17.5863 38.661 17.7069C39.0058 17.8276 39.3506 17.9827 39.6609 18.2068L39.6436 18.2413C38.9541 18.0172 38.2473 17.8793 37.5406 17.8104C37.1785 17.7586 36.8338 17.7414 36.4718 17.7242C36.2994 17.7242 36.1098 17.7242 35.9374 17.7242C35.765 17.7414 35.5582 17.7242 35.4375 17.8276H35.4202C35.3685 18.4137 35.2996 18.9998 35.2651 19.5859C35.2306 20.1547 35.1961 20.6891 35.1617 21.2408C35.4892 21.1201 35.8168 21.0511 36.1615 21.0167C36.5235 20.9822 36.8855 20.9994 37.2475 20.9994C37.6095 21.0511 37.9715 21.1029 38.3163 21.2063C38.6611 21.3097 39.0058 21.4476 39.3161 21.6717L39.2988 21.7062C38.6265 21.4993 37.9198 21.3959 37.213 21.3442C36.5407 21.2752 35.8512 21.258 35.1617 21.3097C35.1272 21.9303 35.0927 22.5336 35.0927 23.1025C35.4202 22.9473 35.765 22.8784 36.1098 22.8267C36.4545 22.7749 36.8165 22.8094 37.1613 22.8094C37.5061 22.8611 37.8508 22.9129 38.1956 23.0335C38.5231 23.1542 38.8506 23.2921 39.1437 23.499L39.1264 23.5334C38.4714 23.3438 37.7991 23.2059 37.1269 23.1542C36.4546 23.0852 35.765 23.068 35.0927 23.1542C35.0755 23.8782 35.0755 24.5677 35.0927 25.2228C35.3858 24.9642 35.7305 24.8608 36.058 24.7918Z" fill="white"/>
<path d="M39.385 4.70788C39.7815 4.7596 40.1779 4.8113 40.5399 4.98369C40.902 5.15607 41.2295 5.3974 41.4536 5.70769C41.5742 4.91473 41.6949 4.19073 41.7984 3.57015C41.7984 3.57015 41.7984 3.57015 41.7984 3.55291L41.7811 3.57015C41.2122 3.03577 40.4193 2.7772 39.6608 2.84615C38.8851 2.89787 38.1439 3.17368 37.4888 3.5874C37.3854 4.10454 37.2992 4.67339 37.1957 5.27673C37.506 5.05263 37.868 4.91474 38.23 4.81131C38.592 4.72511 38.9885 4.70788 39.385 4.70788Z" fill="white"/>
<path d="M33.593 41.3037C33.2654 40.9417 32.9035 40.6142 32.4898 40.3384C32.0933 40.6487 31.714 40.9417 31.4037 41.2003C31.6623 41.2865 31.8692 41.4416 32.0415 41.6312C32.2312 41.8036 32.3691 42.0277 32.507 42.2518C32.6104 42.4932 32.6966 42.7345 32.7311 43.0103C32.7483 43.2689 32.7311 43.5274 32.6276 43.7688C33.2999 43.3206 33.9033 42.8896 34.4549 42.4759L34.4377 42.4932C34.2136 42.0622 33.9205 41.6657 33.593 41.3037Z" fill="white"/>
<path d="M32.2311 42.4084C32.0242 41.9775 31.7312 41.581 31.4037 41.219C30.8866 41.6155 30.5073 41.8913 30.5073 41.8913C30.4211 40.0985 30.5935 37.8748 31.6795 34.5134C33.7136 28.2559 30.9383 25.7736 29.1282 24.36C27.3182 22.9465 26.939 21.4123 27.732 18.6542C28.5249 15.9133 23.7672 10.535 22.4054 11.6555C11.6315 20.5849 7.99424 26.6527 6.02909 34.0652C4.08117 41.4776 1.65055 46.8904 1.20236 47.8212C0.857598 48.5452 0.633516 49.1141 1.27133 50.1139C-0.142202 52.4583 -0.417988 58.078 0.65078 65.1801C1.73679 72.265 2.08153 79.5568 2.08153 79.5568C2.08153 79.5568 6.47726 80.7807 10.7006 79.1603C14.2517 77.7985 18.2337 73.8337 21.1125 71.9375C21.9055 72.3512 22.7501 72.4891 23.4052 72.1788C23.7154 72.0237 23.9223 71.4203 24.0775 70.5239C25.8358 69.7827 27.2493 69.0759 27.663 68.4726C27.6975 68.3174 27.7319 68.1623 27.7664 68.0072C29.5937 59.7845 29.3868 51.1827 29.3696 50.9069C30.2832 49.0796 30.9727 47.3558 30.9038 46.1319C30.8865 45.7354 30.8521 45.3562 30.8176 44.9769C31.4554 44.5632 32.0587 44.184 32.6103 43.8047H32.5931C32.5931 43.3048 32.438 42.8222 32.2311 42.4084Z" fill="white"/>
</svg>
