<svg width="59" height="80" viewBox="0 0 59 80" fill="none" xmlns="http://www.w3.org/2000/svg">
<path d="M56.7377 44.7784C55.8144 41.7068 54.7669 38.6708 54.1987 37.0196C54.0567 36.9841 53.7016 36.9131 53.6838 36.9131C52.37 36.4159 50.9319 36.043 49.6003 36.0608C49.2807 36.0608 48.9433 36.1141 48.7125 36.2206C48.4639 36.3271 48.4107 36.3982 48.3929 36.5757C48.3752 36.771 48.4817 37.0373 48.6415 37.4279C48.7835 37.8185 48.8723 38.1914 48.9611 38.5642C49.0499 39.0259 49.1386 39.4697 49.1919 39.9314C49.618 40.4462 49.9553 41.0144 50.2572 41.6003C50.6123 42.275 50.9141 42.9852 51.2869 43.6243C51.6598 44.2635 52.1392 44.8672 52.9026 44.9914C53.6128 45.169 54.4118 45.2223 55.1397 44.9914C54.4295 45.2933 53.6306 45.2933 52.8671 45.1513C52.4943 45.098 52.0859 44.9559 51.7841 44.6896C51.4822 44.4233 51.2337 44.1215 51.0206 43.8019C50.4347 42.8964 49.9553 41.9376 49.3517 41.1031C49.4227 41.7601 49.476 42.3993 49.5115 43.0562C49.547 43.6243 49.5647 44.2102 49.5825 44.7784C50.3992 45.3465 51.1449 46.039 51.7486 46.8024C52.4055 47.6369 52.9026 48.5602 53.2932 49.5189C53.2932 49.5189 53.2932 49.5189 53.2932 49.5367C53.5951 49.9983 53.9324 50.4599 54.323 50.8683C54.7669 51.3121 55.264 51.7205 55.8322 52.0046C55.2285 51.7738 54.6959 51.4009 54.1987 50.9926C53.9857 50.7973 53.7726 50.602 53.5773 50.3889C53.8081 51.0813 53.9679 51.7915 54.1455 52.4839C54.4473 53.4427 54.9799 54.3482 55.8322 54.9519C54.9622 54.4192 54.3408 53.5137 53.9679 52.555C53.6483 51.5607 53.3643 50.602 52.9204 49.6965C52.4765 48.791 51.9439 47.9387 51.2869 47.2108C50.7898 46.6426 50.2217 46.1455 49.6003 45.7371C49.618 46.3408 49.6358 46.9445 49.6358 47.5304C49.5825 50.4954 49.7423 53.4427 49.6358 56.4255C49.6002 57.1535 49.5292 57.9347 49.3872 58.6448C49.3339 58.9999 49.2807 59.3728 49.3694 59.6924C49.4404 60.0297 49.7955 60.1718 50.1506 60.2073C50.8786 60.2783 51.6243 60.225 52.37 60.3138C53.1157 60.3848 53.8259 60.6511 54.4473 61.0417C53.8081 60.6689 53.0979 60.4381 52.3522 60.3848C51.6243 60.3315 50.8786 60.4026 50.1329 60.3493C49.9376 60.3316 49.7423 60.296 49.5647 60.2073C49.3872 60.1185 49.2274 59.9409 49.1741 59.7456C49.0498 59.355 49.1031 58.9644 49.1386 58.5916C49.2629 57.8459 49.2984 57.1357 49.2984 56.39C49.2984 53.4427 49.0321 50.4777 48.9788 47.5304C48.9433 46.7314 48.9078 45.9502 48.8545 45.1513C48.819 45.0625 48.8013 44.9737 48.8368 44.8849C48.8013 44.299 48.748 43.6953 48.6948 43.1094C48.5527 41.6536 48.3574 40.1799 48.0023 38.795C47.9135 38.4577 47.807 38.1026 47.6827 37.8008C47.5762 37.499 47.3276 37.0906 47.3276 36.5402C47.3276 36.2739 47.4342 35.9543 47.6117 35.7057C47.7893 35.4749 48.0378 35.3151 48.2509 35.2086C48.6948 35.0133 49.1209 34.9423 49.5292 34.9245C51.1627 34.8535 52.6541 35.2086 54.11 35.688C54.1632 35.7057 54.1987 35.759 54.2342 35.8122C54.5716 35.7235 54.8024 35.2974 53.7371 33.6817C52.2279 31.3913 50.7898 29.172 49.3162 27.8404C49.76 23.2241 48.2331 21.7682 48.2331 21.7682C47.7182 21.7682 46.7062 21.7682 45.6232 21.7682C45.1971 18.7322 42.9245 18.1818 42.9245 18.1818H39.2315C38.8054 17.8267 38.3615 17.5426 37.8999 17.3473C37.0299 16.9745 35.3787 16.7436 33.3191 16.6726C33.2481 15.7849 33.2481 14.1692 34.0648 12.6955C35.2544 10.5472 35.2544 7.95503 34.2246 5.71794C33.3724 3.85369 34.3134 2.34454 34.3134 2.34454C34.7218 1.93618 32.8398 1.79413 31.1886 1.8829V1.86516C30.4961 2.55759 25.8621 2.36228 25.8089 1.93616C25.8266 2.20249 26.235 6.28608 25.3828 6.7122C25.0987 6.85424 23.6073 4.31531 23.1101 2.41555C22.5598 3.40982 18.0856 4.2443 17.8547 3.78267C17.8903 3.94247 18.0145 4.59939 18.1743 5.71794C17.5352 5.91324 17.038 6.03753 16.7007 6.00202C15.7419 5.85998 16.7007 1.19047 16.7007 1.19047C16.2923 -0.602762 11.8892 -0.176648 10.4865 1.19047C10.4865 1.19047 10.1492 5.5759 8.40922 13.2637C7.32618 18.093 3.95277 24.3072 1.8222 30.3083C0.561617 33.877 -0.272856 37.3747 0.0822394 40.4462C0.242032 41.7778 0.508355 43.0207 0.881205 44.157C0.881205 44.157 0.881205 44.157 0.881205 44.1747C2.78096 50.1226 7.23741 53.8511 11.5518 57.8814C11.6406 57.9524 11.7116 58.0412 11.8004 58.13C11.6583 57.7926 11.5341 57.4553 11.4275 57.1179C11.2322 56.4433 11.0902 55.7686 11.0014 55.0762C10.8416 53.6913 10.8949 52.3064 11.0369 50.957C11.0014 52.3242 11.0547 53.709 11.321 55.0229C11.463 55.6798 11.6406 56.3367 11.8891 56.9581C12.1377 57.5796 12.4928 58.5206 12.8479 59.0887C12.8834 59.142 12.8479 59.1597 12.7769 59.1775C17.7305 64.8768 23.8381 77.2518 30.1588 79.0273C32.7332 79.7375 35.645 80.0748 38.5568 79.9861C39.267 79.9683 39.9772 79.915 40.6696 79.844C40.5986 79.6842 40.6518 79.4889 40.8116 79.4179C40.8294 79.4001 40.8471 79.4002 40.8649 79.4002C41.2022 79.2936 41.5041 79.1693 41.8237 79.0096C42.1255 78.8498 42.4273 78.6722 42.7292 78.4769C43.3151 78.0863 43.8655 77.6424 44.3803 77.1453C43.9542 77.7134 43.4571 78.2461 42.9245 78.7432C42.6581 78.9918 42.3741 79.2226 42.0722 79.4357C41.9302 79.5422 41.7704 79.6487 41.5929 79.7375C45.3746 79.2404 48.9078 77.9798 51.429 75.867C56.5068 71.6058 58.5664 57.331 58.5664 53.2119C58.5841 51.4719 57.7319 48.0985 56.7377 44.7784ZM27.8329 23.4904C29.3066 23.9521 30.6027 24.6445 31.5082 25.6743C31.4549 26.1714 31.3484 26.7396 31.1886 27.361C31.0465 27.9646 30.798 28.5151 30.4784 28.9767L30.3896 28.9234C30.3896 28.9234 27.7974 28.1067 27.8152 24.609C27.8152 24.2361 27.8152 23.8633 27.8329 23.4904ZM14.6056 23.2596C14.6056 23.2596 15.8662 23.0288 17.7305 22.8513C17.2511 24.9463 16.754 26.0294 16.7007 26.1359C16.5231 26.0471 16.3456 25.9761 16.168 25.8873C15.9905 25.8163 15.7952 25.7453 15.6177 25.6743C15.014 25.0884 14.6944 24.2539 14.6056 23.2596ZM22.7196 9.19788H22.7018C22.0804 9.19788 22.0626 6.00202 23.1279 4.31532C23.6606 3.44534 23.3587 9.10911 22.7196 9.19788ZM16.1148 15.6073C16.825 13.5655 17.6594 12.0741 18.636 11.0444C18.6892 12.4115 18.707 13.9562 18.636 15.6073C18.6004 16.3708 18.5649 17.081 18.4939 17.7734C17.2688 18.0042 16.1503 18.2883 15.1915 18.5901C15.4579 17.6314 15.7597 16.6371 16.1148 15.6073ZM26.377 48.3116C26.6966 48.3294 27.0517 48.3293 27.3891 48.2761C27.8329 48.2228 28.259 48.1163 28.6852 47.992C29.5374 47.7434 30.3541 47.3528 31.1353 46.909C30.4074 47.4238 29.6084 47.8855 28.7562 48.2228C28.33 48.4004 27.8862 48.5246 27.4423 48.6312C27.0162 48.7199 26.6078 48.791 26.1462 48.7732C25.5248 49.2703 24.8679 49.7142 24.2109 50.1403C23.5185 50.5842 22.8083 50.9748 22.0981 51.3832C21.3879 51.7738 20.6245 52.1644 19.7723 52.3774C19.3994 52.484 18.9911 52.5372 18.5827 52.5727C18.8845 52.9101 19.2041 53.2474 19.5237 53.5848C19.7368 53.7978 19.9498 54.0109 20.1451 54.2239C20.5712 54.0464 20.9973 53.8866 21.4235 53.7623C22.5953 53.425 23.8203 53.2829 25.0277 53.3007C25.6313 53.3184 26.235 53.3717 26.8209 53.4605C27.4068 53.567 27.9572 53.638 28.5431 53.567C29.6794 53.4427 30.7802 52.8035 31.4904 51.8448C30.869 52.839 29.7859 53.5848 28.5964 53.7978C28.0105 53.9221 27.3713 53.8866 26.7854 53.8156C26.1995 53.7623 25.6136 53.7446 25.0454 53.7801C23.554 53.8511 22.0981 54.2062 20.7665 54.8276C21.2814 55.3425 21.7786 55.8751 22.2757 56.4078C22.8438 57.0114 23.3765 57.6328 23.9091 58.272C24.282 58.272 24.6193 58.3075 24.9744 58.3608C25.3828 58.4318 25.7911 58.5206 26.1817 58.6271C26.9629 58.8579 27.7264 59.1597 28.4366 59.5326C27.6731 59.2663 26.8919 59.071 26.1107 58.9467C25.7201 58.8934 25.3295 58.8579 24.9211 58.8401C24.7436 58.8401 24.5483 58.8401 24.3707 58.8401C24.5305 59.0355 24.6903 59.2308 24.8324 59.4261C25.6491 60.4558 26.448 61.5034 27.247 62.5687C28.8094 64.6815 30.3363 66.812 31.5082 69.1734L31.5437 69.0669C32.0941 69.2977 32.609 69.564 33.1061 69.8836C33.5855 70.2032 34.0471 70.576 34.4199 71.0377C34.0293 70.6115 33.5322 70.292 33.0351 70.0079C32.5557 69.7593 32.0585 69.5463 31.5437 69.3865C31.5437 69.635 31.5614 69.8836 31.6147 70.1322C31.6679 70.434 31.7567 70.7358 31.8632 71.0377C31.739 70.7536 31.6502 70.4518 31.5614 70.1499C31.5082 69.9014 31.4726 69.6351 31.4549 69.3687H31.4371L31.4549 69.3332C31.4549 69.2977 31.4549 69.2622 31.4549 69.2444C30.1765 66.9363 28.5431 64.8768 26.9097 62.835C26.0752 61.8229 25.223 60.8109 24.3707 59.8167C23.5185 58.8046 22.6485 57.8637 21.7075 56.9404C21.1216 56.3545 20.518 55.8041 19.9321 55.2359C19.648 55.3957 19.3817 55.5733 19.1153 55.7508C19.9676 56.603 20.7843 57.4553 21.601 58.3253L21.6188 58.343C21.6898 58.414 21.743 58.4851 21.8141 58.5561C23.3232 60.1895 24.7969 61.8762 26.0574 63.7227C27.318 65.5514 28.5786 67.3802 29.8037 69.2267C28.4898 67.4335 27.1405 65.6757 25.7911 63.918C24.6016 62.3556 23.2522 60.9352 21.8673 59.5504C21.9739 60.4558 21.9738 61.3613 22.2402 62.1603C22.4177 62.7107 22.7195 63.2256 23.1101 63.705C23.5008 64.1666 23.8914 64.717 24.2109 65.2496C24.8679 66.3327 25.4005 67.4512 25.9154 68.5875C26.4125 69.7238 26.8919 70.8601 27.2648 72.0497C27.7619 72.6001 28.2413 73.1683 28.6852 73.7542C28.916 74.056 29.129 74.3578 29.3243 74.6774C29.5196 74.997 29.7149 75.3166 29.8037 75.6716C29.6972 75.3166 29.5019 74.997 29.2888 74.6952C29.0758 74.3933 28.8627 74.0915 28.6319 73.8074C28.1703 73.2393 27.6731 72.6889 27.1582 72.1562L27.1405 72.1385C26.7321 70.9844 26.1995 69.8481 25.6668 68.7296C25.1164 67.6288 24.5483 66.528 23.8736 65.4982C23.5363 64.9833 23.1812 64.5039 22.7551 64.0423C22.3467 63.5629 21.9916 62.9948 21.7608 62.3734C21.3169 61.166 21.4057 59.9054 21.0861 58.8046C19.5947 57.3487 18.05 55.9284 16.4699 54.5968C16.4521 54.5968 16.4521 54.579 16.4344 54.579C16.4166 55.52 16.3811 56.461 16.2746 57.402C16.2213 57.9879 16.2923 58.6093 16.3811 59.213C16.4699 59.8167 16.5942 60.4203 16.754 61.024C16.5409 60.4381 16.3633 59.8522 16.2213 59.2485C16.0793 58.6448 15.955 58.0234 15.955 57.3843C15.9727 56.2835 15.9017 55.2004 15.813 54.0996C15.4756 53.8688 15.2981 53.6203 15.1205 53.4072C14.7654 52.9101 14.4813 52.4129 14.215 51.898C13.7001 50.8683 13.274 49.803 12.9544 48.7022C12.8657 48.3471 13.061 47.992 13.4161 47.8855C13.7712 47.7789 14.1262 47.992 14.2328 48.3471C14.2328 48.3648 14.2328 48.3648 14.2328 48.3826C14.4636 49.4301 14.8187 50.4422 15.2448 51.4187C15.4579 51.8981 15.7064 52.3952 15.9727 52.8035C16.1148 53.0166 16.2746 53.2119 16.3634 53.2829C16.6829 53.496 16.8427 53.6735 17.0735 53.8688C17.5174 54.2772 17.9613 54.7033 18.4052 55.1294C18.6715 54.9519 18.9556 54.8098 19.2396 54.65C19.1153 54.5257 18.9733 54.4015 18.8313 54.2772C18.3519 53.8156 17.8725 53.3539 17.4109 52.8746C17.1801 52.626 16.9493 52.3774 16.7184 52.0933C16.6119 51.9513 16.5054 51.8093 16.3989 51.6317C16.3456 51.543 16.2923 51.4542 16.2391 51.3299C16.2213 51.2766 16.1858 51.2234 16.168 51.0991L16.1503 51.0103L16.1325 50.9038C16.0615 49.5012 16.097 48.2583 15.9727 46.9622C15.9195 46.323 15.8485 45.6839 15.7242 45.098C15.5999 44.4943 15.4223 43.9439 15.1205 43.5533C14.8719 43.2337 14.9252 42.7544 15.2448 42.488C15.5644 42.2217 16.0438 42.2927 16.3101 42.6123C16.3278 42.6301 16.3278 42.6301 16.3456 42.6478L16.3634 42.6833C16.825 43.3758 16.9848 44.1392 17.109 44.8139C17.2333 45.5063 17.2688 46.181 17.3044 46.8557C17.3576 48.1873 17.2688 49.5722 17.2866 50.7973C17.2688 50.8328 17.3399 51.0103 17.4642 51.1879C18.1566 51.3477 18.8135 51.3831 19.5237 51.2589C20.2516 51.1346 20.9796 50.8505 21.7075 50.5309C22.4355 50.1936 23.1812 49.8563 23.8736 49.5012C24.5128 49.1638 25.1342 48.8087 25.7379 48.4181C25.5958 47.4594 25.5958 46.5006 25.7379 45.5418C25.8266 45.0447 25.9509 44.5476 26.164 44.0682C26.3948 43.5888 26.6434 43.1982 26.8919 42.7721C27.3891 41.9376 27.8862 41.0854 28.4366 40.2864C28.916 39.594 29.3953 38.9193 29.999 38.3157C29.8747 37.5522 30.07 36.842 30.2653 36.1673C30.4784 35.4926 30.7269 34.8357 31.011 34.1965C31.5792 32.9182 32.2361 31.6754 32.9463 30.4681C32.3071 31.7109 31.7212 32.9892 31.2418 34.2853C30.9933 34.9423 30.7802 35.5992 30.6204 36.2739C30.4961 36.8065 30.3896 37.3747 30.4429 37.9073C30.6027 37.783 30.7625 37.6587 30.94 37.5522C31.1531 37.4279 31.4726 37.3569 31.7035 37.3569C32.2006 37.3214 32.68 37.3391 33.1771 37.3391C34.0293 37.3391 34.8638 37.3392 35.6983 37.2149C36.2309 36.7533 36.8701 36.1851 37.2252 35.5992C37.6158 35.0133 37.6868 34.2853 37.6513 33.5574C37.598 32.8294 37.7223 32.0838 37.8821 31.3913C38.0419 30.6811 38.2372 29.9887 38.468 29.2962C38.2727 29.9887 38.0952 30.6989 37.9709 31.4091C37.8466 32.1193 37.7401 32.8472 37.8288 33.5574C37.8999 34.2676 37.8466 35.0665 37.456 35.7235C37.1364 36.2739 36.7813 36.6822 36.3552 37.0906C36.7281 37.0018 37.1009 36.8953 37.456 36.7355C37.9176 36.5579 38.397 36.4336 38.8764 36.3626C39.8529 36.2206 40.8294 36.2206 41.7882 36.3626C40.8294 36.2561 39.8351 36.2739 38.8941 36.4514C38.4148 36.5402 37.9531 36.6645 37.5093 36.8598C37.0654 37.0728 36.6038 37.2326 36.1244 37.3391C35.1656 37.5522 34.1714 37.5877 33.2126 37.6055C32.7332 37.6232 32.2361 37.6232 31.7745 37.6765C31.2951 37.6765 30.94 37.9428 30.5849 38.2801C29.9102 38.9371 29.3598 39.736 28.8272 40.5528C28.3123 41.3695 27.8329 42.2217 27.3713 43.0562C27.1405 43.4823 26.8742 43.9084 26.6966 44.3168C26.5191 44.7429 26.4125 45.2045 26.3415 45.6661C26.1995 46.5361 26.235 47.4594 26.377 48.3116ZM48.4995 71.8544C48.3041 71.4105 48.1444 70.9667 47.9846 70.5228C47.8248 70.0789 47.665 69.635 47.4697 69.2444C47.3276 68.9781 47.1501 68.7473 46.937 68.6053C46.9015 68.8538 46.866 69.0846 46.8128 69.3332C46.8483 69.4042 46.8483 69.4575 46.8128 69.493C46.8128 69.493 46.8128 69.493 46.795 69.5107L46.7772 69.5285C46.7595 69.5995 46.7595 69.6705 46.7417 69.7416C46.5997 70.4695 46.4577 71.1797 46.2801 71.8899C46.1913 72.245 46.0848 72.6001 45.9428 72.9552C45.9073 73.0439 45.8717 73.1505 45.8185 73.2393C45.9605 73.4346 46.0138 73.6121 46.067 73.8074C46.1381 74.0205 46.1736 74.2335 46.1913 74.4466C46.2446 74.8727 46.2446 75.2811 46.2091 75.6894C46.1381 75.2811 46.0315 74.8904 45.8718 74.5353C45.8007 74.3578 45.712 74.1803 45.6054 74.0205C45.5522 73.9317 45.4989 73.8607 45.4279 73.7719L45.3036 73.9317C44.3448 75.0502 43.3506 76.1155 42.3918 77.1986C42.1255 77.5004 41.7882 77.6602 41.4686 77.82C41.1312 77.9798 40.7939 78.104 40.4388 78.2283C39.7464 78.4769 39.0717 78.7432 38.4325 79.0806C39.0539 78.7077 39.7464 78.4237 40.421 78.1573C41.078 77.8733 41.8237 77.6247 42.2853 77.1098C43.2085 75.9735 44.1673 74.8727 45.0728 73.7364L45.2858 73.4523C45.3214 73.3458 45.4101 73.2215 45.4811 73.1327C45.5167 73.044 45.5699 72.9552 45.5877 72.8486C45.712 72.5113 45.783 72.1562 45.8718 71.8189C45.996 71.2152 46.1026 70.6116 46.1913 70.0079C45.5522 70.4695 44.842 70.8779 44.185 71.233C43.7412 71.4815 43.3328 71.7301 42.9955 72.0674C42.6404 72.387 42.4096 72.8309 42.0722 73.2393C41.4153 74.0382 40.6341 74.7129 39.7996 75.2988C38.9651 75.8847 38.0774 76.3996 37.1542 76.808C38.0597 76.3641 38.9119 75.7959 39.7109 75.1745C40.4921 74.5531 41.2378 73.8429 41.8237 73.044C41.9657 72.8486 42.1077 72.6534 42.232 72.4226C42.3741 72.1917 42.5339 71.9787 42.7114 71.7834C43.0665 71.3928 43.5104 71.0732 43.9365 70.8069C44.8065 70.2742 45.6232 69.7593 46.3334 69.0669C46.4754 68.0726 46.5819 67.0961 46.6707 66.1018C46.3689 66.3149 46.0315 66.4747 45.6587 66.5457C45.2148 66.6345 44.7532 66.599 44.3448 66.528C43.9365 66.4569 43.5281 66.4392 43.102 66.457C41.4331 66.5812 39.8351 67.2737 38.4325 68.2147C39.7819 67.2204 41.362 66.4214 43.0842 66.2261C43.5104 66.1729 43.9542 66.1729 44.3803 66.2261C44.7887 66.2794 45.1971 66.2794 45.5877 66.1906C46.0493 66.0841 46.4399 65.8178 46.7417 65.4627C46.7417 65.4272 46.7417 65.3916 46.7595 65.3561C46.7595 65.3029 46.8305 65.2674 46.9015 65.2674C47.0258 65.0721 47.1323 64.8768 47.2211 64.6637C47.4874 63.918 47.5229 63.1013 47.3276 62.3023C47.1679 61.4323 47.1501 60.5801 47.1146 59.7279C47.0791 58.5561 47.0968 57.3843 47.0968 56.2125C46.7772 56.2835 46.4577 56.39 46.1558 56.4965C45.6764 56.6741 45.1971 56.8871 44.7354 57.1357C43.8299 57.6328 42.9955 58.3075 42.3386 59.142C42.9067 58.2542 43.6879 57.473 44.5757 56.8694C45.0195 56.5675 45.4811 56.2835 45.9783 56.0527C46.3511 55.8751 46.724 55.7331 47.1146 55.591C47.1146 55.2714 47.1146 54.9696 47.1323 54.65C47.1679 52.9456 47.1146 51.3299 46.937 49.6254C46.9015 49.2526 46.8838 48.8797 46.866 48.5069C46.7772 48.5602 46.6707 48.5957 46.5464 48.6134C46.2624 48.6844 45.9605 48.5957 45.7475 48.4536C45.5344 48.3116 45.3746 48.1518 45.2326 47.992C44.6644 47.3528 44.1673 46.6959 43.5636 46.1455C42.96 45.5774 42.2853 45.1157 41.5396 44.7429C40.7939 44.37 40.0127 44.086 39.1782 43.9439C40.0127 44.0327 40.8294 44.2635 41.6106 44.6008C42.3918 44.9204 43.1375 45.3643 43.7944 45.9147C44.4514 46.4473 45.0195 47.1043 45.6054 47.6724C45.8895 47.9565 46.2091 48.1696 46.4577 48.063C46.5997 48.0275 46.7417 47.9388 46.866 47.8145C46.8483 46.6782 46.8838 45.5418 46.937 44.4943C46.9548 42.8964 46.6707 41.2807 46.2623 39.6828C45.854 38.1026 45.6764 36.4337 45.0195 35.0488C45.0195 35.0488 44.6822 33.9302 45.1793 33.7172C45.6764 33.5041 46.2624 33.7349 46.4754 34.2321C46.4754 34.2498 46.4932 34.2676 46.4932 34.2676C47.1146 35.9365 47.5762 37.5877 47.9313 39.2922C48.2686 40.9966 48.4995 42.7543 48.3929 44.5476C48.2154 46.2875 48.0911 47.8677 48.1799 49.5544C48.2864 51.2411 48.2509 52.9988 48.1266 54.6855C48.0378 56.3722 47.9135 58.0589 47.878 59.7456C47.8603 60.5801 47.8603 61.4324 47.9491 62.2313C48.1089 63.0835 48.0378 64.0423 47.7005 64.859C47.6295 65.0366 47.5407 65.2141 47.4164 65.3917C47.4342 65.4094 47.4342 65.4272 47.4342 65.4449V65.4627C47.3276 66.3149 47.2034 67.1671 47.0613 68.0371C47.1323 68.0726 47.1856 68.1081 47.2389 68.1437C47.3631 68.2324 47.4519 68.339 47.5407 68.4455C47.7182 68.6585 47.8248 68.8893 47.9135 69.1379C48.0911 69.5995 48.1976 70.0789 48.3041 70.5228C48.4107 70.9844 48.4995 71.446 48.6415 71.8899C48.7835 72.3338 48.9788 72.7599 49.2984 73.115C48.9433 72.7244 48.6948 72.2983 48.4995 71.8544Z" fill="white"/>
<path d="M30.6027 1.84755C31.1531 1.4747 26.5013 1.52795 26.4303 1.88304C26.4658 2.11386 30.0523 2.2204 30.6027 1.84755Z" fill="white"/>
<path d="M22.7196 8.66535C23.0747 8.61209 23.341 4.3687 23.0214 5.02562C22.4177 6.28621 22.3822 8.66535 22.7196 8.66535Z" fill="white"/>
<path d="M22.613 2.5576C23.0924 1.91843 18.0856 3.17901 18.4762 3.60513C18.8135 3.94247 22.3112 2.96596 22.613 2.5576Z" fill="white"/>
</svg>
