<svg width="79" height="80" viewBox="0 0 79 80" fill="none" xmlns="http://www.w3.org/2000/svg">
<path fill-rule="evenodd" clip-rule="evenodd" d="M46.2849 8.76667L56.5466 3.96333L59.1756 14.9533L70.5144 15.06L68.0995 26.1L78.2609 31.1L71.2803 40.0033L78.2609 48.9033L68.0995 53.9L70.5144 64.94L59.1756 65.05L56.5466 76.0367L46.2849 71.2333L39.1304 80L31.9793 71.2333L21.7176 76.0367L19.0852 65.05L7.74983 64.94L10.1647 53.9L0 48.9033L6.98387 40.0033L0 31.1L10.1647 26.1L7.74983 15.06L19.0852 14.9533L21.7176 3.96333L31.9793 8.76667L39.1304 0L46.2849 8.76667ZM33.7688 16.5733L26.0658 12.97L24.0924 21.2167L15.59 21.2967L17.4028 29.5733L9.7801 33.3233L15.018 40.0033L9.7801 46.6767L17.4028 50.4233L15.59 58.7067L24.0924 58.79L26.0658 67.03L33.7688 63.4267L39.1304 70L44.4954 63.4267L52.1918 67.03L54.1652 58.79L62.6709 58.7067L60.8581 50.4233L68.4808 46.6767L63.2462 40.0033L68.4808 33.3233L60.8581 29.5733L62.6709 21.2967L54.1652 21.2167L52.1918 12.97L44.4954 16.5733L39.1304 10L33.7688 16.5733ZM39.1304 48.3333C41.4383 48.3333 43.3114 50.2 43.3114 52.5C43.3114 54.8 41.4383 56.6667 39.1304 56.6667C36.8226 56.6667 34.9495 54.8 34.9495 52.5C34.9495 50.2 36.8226 48.3333 39.1304 48.3333ZM42.4752 45.1767H35.7857V23.3333H42.4752V45.1767Z" fill="white"/>
</svg>
