<svg width="80" height="57" viewBox="0 0 80 57" fill="none" xmlns="http://www.w3.org/2000/svg">
<path d="M36.3968 51.9011C37.4528 52.498 38.4782 53.1408 39.5495 53.5693C40.6209 53.9978 41.6922 54.258 42.7942 54.2274C43.3145 54.2274 43.942 54.1662 44.5389 54.1356C45.1358 54.105 45.748 54.0591 46.3449 54.0438L46.7887 54.0284L47.0183 54.0131H47.0795H47.1866H47.2938L48.1814 54.0284C48.7783 54.0284 49.3752 54.0285 49.9721 54.0438C51.1659 54.0591 52.3596 54.0437 53.5228 54.0131C54.0891 53.9978 54.7166 53.9672 55.1451 53.906C55.6042 53.8295 56.0787 53.6458 56.5684 53.4163C57.5326 52.9571 58.5428 52.3296 59.3692 51.6409L59.6141 51.4266C59.6447 51.2277 59.66 50.9828 59.6753 50.7379C59.7059 50.1716 59.6906 49.5594 59.6906 48.9779L59.7059 48.3504L60.1957 48.2126C60.6089 48.0902 61.0986 47.8759 61.4813 47.6004C61.8639 47.325 62.2006 47.0036 62.3689 46.6056C62.5526 46.1924 62.5373 45.718 62.3536 45.2129C62.1853 44.7232 61.9557 44.2028 61.6955 43.713C60.8385 42.5805 59.8437 41.5551 58.8335 40.5756C58.3285 40.0858 57.7928 39.5961 57.2725 39.1369L56.4766 38.4329C56.2011 38.2033 55.9409 37.9738 55.6502 37.7901C54.4258 37.1014 52.9565 36.9942 51.5638 37.0249C50.1558 37.0708 48.7477 37.3004 47.3856 37.6371L47.3244 37.6524L47.2785 37.6064C45.9163 36.4892 44.5236 35.4026 43.085 34.3618C41.6463 33.3364 40.177 32.3722 38.616 31.5151C37.9272 31.1172 37.2538 30.6734 36.6723 30.1377C36.6876 30.4591 36.7335 30.7958 36.81 31.1172C36.9171 31.5917 37.0855 32.0508 37.2998 32.4947C37.7283 33.3823 38.3711 34.1629 39.1516 34.8057C38.3099 34.2547 37.5752 33.5201 37.0243 32.6477C36.7488 32.2192 36.5345 31.7447 36.3509 31.255C36.2284 30.8877 36.1213 30.1224 36.0754 29.5255C35.6315 28.9746 35.3101 28.3165 35.1418 27.643C34.9275 26.8013 34.8357 25.9289 34.7745 25.0718C34.0858 24.7658 33.2593 24.1536 32.7389 23.8475C32.1574 23.4955 31.5911 23.0975 31.086 22.669C30.0606 21.7966 29.2188 20.7406 28.576 19.5927C29.3872 20.6182 30.3667 21.4905 31.4533 22.1639C31.989 22.5007 32.5706 22.7761 33.1522 23.021C33.6572 23.22 34.1929 23.3883 34.6826 23.4649C34.6673 23.0975 34.6367 22.7149 34.6214 22.3476H34.7439C35.1112 24.077 35.2489 25.9136 35.8152 27.4594C36.0754 28.2246 36.5039 28.8368 37.0855 29.3266C37.6671 29.8316 38.3864 30.2449 39.1363 30.6275C39.9016 31.0101 40.7433 31.4692 41.5086 31.9284C42.2891 32.3875 43.0543 32.8773 43.789 33.3976C45.1205 34.3312 46.4061 35.2801 47.6611 36.3361C48.962 36.0607 50.217 35.8923 51.5485 35.8923C52.0229 35.8923 52.5127 35.9229 53.0177 35.9688C53.4157 34.5149 53.5993 32.9997 53.6912 31.4845C53.7524 30.5663 53.7677 29.648 53.7218 28.7297C53.6911 28.2705 53.6605 27.8114 53.5687 27.3676C53.4922 26.9237 53.4004 26.4493 53.1249 26.0973L53.2014 26.0361C53.6452 26.3422 53.8595 26.8319 54.0432 27.2757C54.2115 27.7349 54.3493 28.2093 54.4411 28.6838C54.6247 29.6327 54.6553 30.5969 54.6094 31.5458C54.5329 32.4947 54.3952 33.4436 54.1197 34.3618C53.9513 34.9281 53.7218 35.4944 53.431 36.0301C54.1044 36.1372 54.7778 36.3055 55.4359 36.6116C55.3288 36.2443 55.2675 35.877 55.2063 35.5097C55.0839 34.7139 55.0839 33.9027 55.1451 33.0915C55.2216 32.2804 55.3747 31.4845 55.6655 30.7193C55.8185 30.3367 55.9716 29.9694 56.1552 29.6021C56.3542 29.2654 56.5531 28.944 56.8133 28.6379C56.1246 28.1481 55.4818 27.5971 54.9002 27.0003C54.6094 26.7095 54.334 26.3881 54.0738 26.0667C53.7983 25.7606 53.584 25.332 53.5381 24.9188C53.4463 24.0617 53.7218 23.2506 53.6912 22.4394C53.6912 21.6283 53.2779 20.863 52.6045 20.4192C51.9311 19.9754 51.1199 19.7764 50.3088 19.654C49.4976 19.5162 48.6712 19.5009 47.8447 19.3632C47.6305 19.3173 47.4315 19.2867 47.2172 19.1642C47.1713 19.1336 47.1101 19.103 47.0642 19.0571C47.0336 19.0265 47.0183 19.0112 46.9877 18.9653L46.9571 18.8887C46.8958 18.7357 46.9111 18.6285 46.9264 18.5061C47.0336 18.047 47.2938 17.7256 47.5233 17.3736C47.7529 17.0216 47.9825 16.6848 48.1661 16.3328C48.1661 16.3175 48.4416 15.4605 48.3804 15.2156C48.2886 14.8483 47.9519 14.6187 47.5845 14.4351C47.2172 14.2514 46.8346 14.129 46.4367 14.0065C45.6561 13.7616 44.845 13.5474 44.0645 13.2413C43.2992 12.9505 42.534 12.476 41.983 11.8639C41.3708 11.3129 40.6668 10.8843 39.9169 10.5782C39.1669 10.2875 38.3405 10.1038 37.5293 10.2262C37.1314 10.2875 36.7488 10.4252 36.4274 10.6701C36.1213 10.9303 35.7999 11.2057 35.4632 11.4506C35.1265 11.6955 34.7898 11.9404 34.4072 12.124C34.2082 12.2006 34.0092 12.323 33.7644 12.2465C33.6266 12.2006 33.5807 12.0322 33.5807 11.9404C33.5807 11.8332 33.6113 11.7261 33.6266 11.619L33.749 11.6496C33.7184 11.8332 33.7491 12.0934 33.8409 12.0628C33.9327 12.0781 34.1317 11.971 34.2847 11.8792C34.6061 11.6802 34.9275 11.4047 35.2183 11.1445C35.5244 10.869 35.7693 10.5936 36.0907 10.2722C36.458 9.92015 36.9477 9.69058 37.4222 9.58345C38.3864 9.38449 39.3353 9.53753 40.2077 9.81301C40.3454 9.85893 40.4678 9.90485 40.6056 9.96607C40.6362 9.78241 40.6668 9.59875 40.6821 9.4151C40.728 8.97126 40.5444 8.55803 40.1924 8.26724C39.5036 7.68566 38.6925 7.27243 37.9579 6.72146C37.6058 6.43067 37.2538 6.10927 37.0702 5.65013C36.9018 5.19099 36.9631 4.71654 37.009 4.2727C37.1314 3.36972 37.1161 2.46674 36.9324 1.57906L37.0243 1.56375C37.5446 2.3749 37.7436 3.41563 37.7436 4.34922C37.7589 4.80836 37.7742 5.17568 37.8966 5.34403C37.9885 5.52769 38.218 5.77256 38.5394 6.00213C38.5701 6.01744 38.6007 6.04805 38.616 6.06335C38.7843 5.68073 39.0445 5.31342 39.4424 5.06854C40.1311 4.6247 40.9576 4.6094 41.6463 4.68592C42.3503 4.79306 42.9931 5.00733 43.6053 5.26751C43.8655 5.37464 44.1257 5.49708 44.3706 5.61951C44.2634 5.32872 44.2022 5.03793 44.1716 4.74714C44.1257 4.04313 44.1869 3.40033 44.3093 2.74223H44.4012C44.4624 3.38502 44.5083 4.01252 44.646 4.64001C44.7838 5.2522 45.0899 5.83378 45.6102 6.20109C46.1153 6.5684 46.7428 6.72145 47.3703 6.81328C47.9978 6.90511 48.6406 6.92042 49.2681 6.92042C50.5384 6.92042 51.8087 6.79798 53.079 6.58371C54.3339 6.36944 55.5889 6.06335 56.7827 5.63482L56.8133 5.72665C55.7114 6.47658 54.4717 6.96633 53.2014 7.30303C52.9106 7.37956 52.6045 7.45608 52.2984 7.5173C52.2066 7.73157 52.1301 7.94583 52.0841 8.1754C51.9617 8.68046 51.977 9.23143 52.1301 9.72119C52.4362 10.716 53.2626 11.4812 54.1809 11.971C54.7625 11.4353 55.4359 11.0068 56.1399 10.6242C56.8592 10.2416 57.6398 9.96606 58.5428 9.87423C58.9866 9.84362 59.4763 9.88954 59.9661 10.0579C60.211 10.1344 60.4405 10.2568 60.6701 10.4099C60.8232 10.517 61.0068 10.6242 61.1599 10.7466C61.4813 10.9915 61.8027 11.2364 62.1241 11.5271C62.2771 11.6649 62.4455 11.8332 62.5985 12.0169C62.675 12.1087 62.7516 12.2159 62.8434 12.3383C62.8893 12.3995 62.9199 12.476 62.9658 12.5526C62.9964 12.5985 63.0117 12.6444 63.0271 12.7056L63.0577 12.8128L63.073 12.8893L63.0883 12.9505V12.9811V12.9964C63.5474 12.9964 64.0219 13.0423 64.481 13.1342C65.2615 13.2872 66.0115 13.5627 66.7308 13.9453C67.4348 14.3432 68.0776 14.8636 68.5674 15.5217C68.9041 15.9655 69.1796 16.4706 69.3326 17.0216C69.5775 16.991 69.8224 16.9603 70.0825 16.945C70.3274 16.9297 70.5876 16.945 70.8478 16.9756C71.1233 17.0062 71.3834 17.0522 71.5977 17.0981L72.8833 17.4348C73.1588 17.5266 73.4343 17.5878 73.6945 17.649C73.6486 17.5572 73.6179 17.4807 73.572 17.3889C73.3731 17.0369 73.1588 16.6849 72.9139 16.3635C72.4395 15.7054 71.8579 15.1238 71.2151 14.634C70.7713 14.5116 70.3733 14.3585 69.9754 14.1443C69.5622 13.93 69.1796 13.6698 68.8428 13.3637C68.1541 12.7515 67.6797 11.9098 67.5726 11.0068C67.7409 11.8945 68.246 12.6903 68.9347 13.2413C69.5469 13.731 70.2662 14.0524 71.0161 14.2514C70.909 14.0218 70.8325 13.7923 70.7712 13.5474C70.6794 13.1954 70.6488 12.8281 70.6794 12.4607C70.71 12.0934 70.8172 11.7261 71.0008 11.42C70.7713 11.2976 70.5417 11.1751 70.3121 11.0527C69.3479 10.563 68.3531 10.1191 67.3736 9.69058L66.991 9.52223L66.8532 9.18552C66.7461 8.92534 66.5471 8.55803 66.3482 8.25193C66.1339 7.93053 65.9043 7.63974 65.6595 7.34895C65.1544 6.78267 64.5728 6.26232 63.9147 5.84909C62.6291 4.99202 61.0986 4.47166 59.507 4.25739C59.5529 4.45635 59.5682 4.67062 59.5529 4.86958C59.5376 5.28281 59.3998 5.66543 59.2468 6.01744C59.2162 6.07866 59.1856 6.12457 59.1549 6.18579C59.5835 6.06336 60.0273 6.06335 60.4558 6.10927C60.9915 6.17048 61.5119 6.32353 62.0016 6.5531C62.0169 6.56841 62.0322 6.5684 62.0628 6.58371C62.0475 6.53779 62.0322 6.49188 62.0322 6.43066C61.9557 5.97152 61.9863 5.49708 62.0935 5.06854C62.0628 5.51238 62.1088 5.97152 62.2465 6.38475C62.3077 6.5378 62.3842 6.69085 62.4608 6.82859C62.7669 7.01225 63.0577 7.22651 63.3025 7.4867C63.6852 7.86931 64.0066 8.31315 64.1902 8.83351L64.1443 8.87942C63.4556 8.14479 62.6291 7.54792 61.7261 7.11938C60.8844 6.70616 59.9814 6.44597 59.0478 6.38475C58.9254 6.59902 58.7723 6.79798 58.604 6.98164C58.3438 7.25712 58.053 7.5173 57.6551 7.68565L57.6092 7.65505C58.0224 7.05816 58.3897 6.43067 58.6958 5.78787C58.8488 5.46647 58.9866 5.12976 59.0937 4.79306C59.1396 4.6094 59.1856 4.44105 59.1856 4.25739L58.9866 3.90538C59.0019 3.93599 58.956 3.82886 58.9101 3.78295C58.8642 3.72173 58.8182 3.66051 58.757 3.59929C58.6346 3.47685 58.4968 3.35442 58.3438 3.24728C58.0377 3.03302 57.6704 2.84935 57.2878 2.71161C56.5072 2.43612 55.6502 2.29838 54.7778 2.23717C53.9054 2.17595 53.033 2.19125 52.1454 2.25247C51.2577 2.31369 50.37 2.40552 49.4976 2.52796L49.467 2.40552C50.0792 2.28308 50.6914 2.17595 51.3036 2.06881C49.4364 -0.487081 40.7739 0.0945019 39.6567 0.00267342C38.5394 -0.0738503 37.0396 1.51784 37.0396 1.51784C37.0396 1.51784 36.5039 1.48723 35.6774 1.45662C33.5348 1.36479 29.4331 1.24236 27.872 1.42602C25.7294 1.67089 25.1631 3.9513 25.1631 3.9513C25.1631 3.9513 22.6378 1.51784 20.388 3.27789C18.1535 5.03794 17.021 6.30823 17.021 6.30823C17.021 6.30823 13.6845 7.10408 10.8531 9.96607C10.7613 10.0579 10.6695 10.1497 10.5777 10.2569C7.68506 13.379 8.32785 14.7105 8.32785 14.7105C8.29724 14.7411 8.19011 14.8177 8.00646 14.9707L8.57273 14.7871L8.60334 14.9095C8.61864 14.9248 8.60334 14.9248 8.61864 14.9401C8.63395 14.9707 8.66456 15.0166 8.71047 15.0472C8.8023 15.1238 8.94005 15.1697 9.07779 15.2003C9.36858 15.2615 9.70528 15.2768 10.0267 15.2615C10.6848 15.2309 11.3582 15.1085 12.0163 14.9401C11.3888 15.2003 10.746 15.4146 10.0726 15.5676C9.73589 15.6288 9.38388 15.69 9.01657 15.6594C9.00126 15.6594 8.98596 15.6594 8.97066 15.6594C8.45029 16.0267 7.94524 16.4706 7.48609 16.9297C7.01165 17.4042 6.56781 17.9092 6.15458 18.4449C5.32812 19.5162 4.63941 20.6947 4.10374 21.9497C4.54758 20.6488 5.14447 19.4091 5.90971 18.2612C6.29232 17.6797 6.70555 17.1287 7.14939 16.6083C7.5167 16.1951 7.89932 15.7972 8.31255 15.4299C8.25133 15.384 8.20541 15.338 8.1595 15.2768C8.11359 15.2309 8.08298 15.1544 8.05237 15.0932L8.00646 14.9707C6.59842 16.1339 1.34889 20.71 2.64979 23.7863C2.64979 23.7863 -0.533602 27.2298 0.966264 30.6734C0.966264 30.6734 -1.5131 32.51 1.47132 36.8871C1.54785 37.0096 1.62437 37.1167 1.7162 37.2391C1.7162 37.2391 1.80803 37.6983 2.0376 38.4023C2.43552 38.8614 3.58338 39.6726 4.05783 40.1011C4.53227 40.5297 5.03733 40.9276 5.573 41.2796C6.62903 41.9989 7.79219 42.5805 9.07779 42.7488V42.7182L10.8531 42.8713L9.53693 42.9937C10.0114 43.2845 10.4705 43.5906 10.8531 43.9885C10.3328 43.56 9.72058 43.2845 9.10839 43.0396H9.07779V43.0243C9.06248 43.0243 9.06248 43.009 9.04718 43.009C7.70036 42.9937 6.38415 42.5346 5.19038 41.9224C4.59349 41.6163 4.01191 41.2643 3.44564 40.8817C3.27729 40.7745 3.12424 40.6521 2.95589 40.5297L2.29778 39.1522L2.0376 38.4023C2.09882 38.586 2.16004 38.7849 2.23656 38.9839C2.83345 40.698 4.01191 43.1927 6.00153 44.4018C6.49128 44.5701 6.98103 44.6772 7.47079 44.7231C8.05237 44.7844 8.66456 44.7997 9.26144 44.8456C10.4705 44.9068 11.6643 44.9833 12.8734 45.0598L14.6946 45.2129C15.3068 45.2894 15.9037 45.32 16.5159 45.4119C17.0975 45.4884 17.6791 45.5649 18.2759 45.6721C18.2453 45.6414 18.2147 45.6108 18.1994 45.5802C18.1076 45.4425 18.0311 45.3659 17.878 45.1517C17.526 44.5395 17.4342 43.9732 17.4342 43.4375C15.4752 43.361 13.5162 43.0855 11.649 42.4733C11.1286 42.305 10.6083 42.0907 10.1032 41.8153C9.85833 41.6775 9.61345 41.5245 9.38388 41.3102C9.139 41.05 9.06248 40.8204 8.90944 40.5909C8.40438 39.6573 7.31774 39.2287 6.27702 38.9686C6.81268 39.0451 7.34835 39.1675 7.8534 39.3818C8.20541 39.5195 8.52682 39.7491 8.8023 40.0093C8.77169 39.8256 8.74108 39.6267 8.71047 39.443C8.63395 39.0757 8.58803 38.7084 8.43499 38.3717C8.63395 38.6931 8.74108 39.0451 8.86352 39.3971C8.97065 39.7338 9.07779 40.0858 9.16961 40.4225C9.32266 40.6215 9.47571 40.897 9.62876 41.0041C9.81241 41.1572 10.042 41.2643 10.2869 41.3714C10.7613 41.5704 11.2817 41.7234 11.7867 41.8459C12.8274 42.0754 13.8835 42.2132 14.9395 42.2591C15.7966 42.305 16.6383 42.2744 17.4954 42.2285C17.5566 41.8612 17.6331 41.5092 17.725 41.1725C17.9086 40.5909 18.1076 40.0399 18.3372 39.4889C18.4596 39.1981 18.582 38.9226 18.7198 38.6472C18.3831 38.4941 18.0464 38.3258 17.7556 38.0809C17.0975 37.5758 16.5465 36.8718 16.4241 36.0301L16.5006 35.9841C16.8985 36.5963 17.4801 37.0708 18.1229 37.4381C18.7657 37.7901 19.4697 38.0197 20.2043 38.1268C21.6583 38.3717 23.1582 38.188 24.5968 37.8666L24.6274 37.9584C23.9846 38.4635 23.25 38.7696 22.4694 38.9533C21.6889 39.1369 20.8778 39.1675 20.0513 39.0451C19.684 38.9686 19.332 38.8767 18.98 38.7543C18.7198 39.5808 18.5055 40.4225 18.3678 41.2796C18.2759 41.8459 18.2147 42.4121 18.23 42.9784C18.2453 43.5447 18.3372 44.1263 18.6433 44.5701C18.98 44.9986 19.3932 45.4272 19.837 45.7639C20.2809 46.1159 20.7859 46.3761 21.3216 46.5903C22.3776 47.0189 23.4949 47.2791 24.6121 47.5392C26.8466 48.0443 29.1117 48.5187 31.3768 48.8401C32.5094 48.9932 33.6572 49.1309 34.8051 49.1156C35.3714 49.1156 35.9529 49.0697 36.5039 48.9473C37.0396 48.8095 37.5905 48.5647 37.866 48.0902C37.8966 47.9678 37.9273 47.83 37.9426 47.6923L38.065 47.7076C38.065 47.8453 38.065 47.9984 38.0497 48.1514V48.1667L38.0344 48.1973C38.0191 48.2279 38.0038 48.2585 37.9885 48.2892C38.0956 48.6565 38.3558 48.9932 38.6619 49.2381C39.0139 49.5289 39.4271 49.7278 39.8709 49.8809C40.7433 50.187 41.6616 50.2941 42.5799 50.3706C44.4165 50.5696 46.2683 50.7532 48.1049 50.9063V50.9675C47.6305 51.0593 47.1713 51.0593 46.6969 51.1052L46.0082 51.1205C46.0847 51.2583 46.1918 51.3348 46.3449 51.5491C46.5744 51.8552 46.8499 52.146 47.1254 52.4061C47.6917 52.9418 48.3498 53.4009 49.0538 53.7836C48.3039 53.4928 47.5845 53.1255 46.9264 52.651C46.5897 52.4061 46.2836 52.146 45.9929 51.8552C45.7786 51.6256 45.5796 51.4113 45.396 51.1358H45.3041C44.4624 51.1511 43.6359 51.0899 42.8095 51.0134C39.2894 51.6868 35.6928 51.9623 32.0961 51.8705C31.0554 51.8399 30.0147 51.7786 28.9893 51.6715L28.2087 51.595C27.9486 51.5797 27.6731 51.4879 27.4435 51.3807C26.969 51.1511 26.5405 50.8451 26.112 50.5543C25.2243 49.9115 24.3519 49.2227 23.4949 48.534C22.6225 48.3045 21.7501 48.0596 20.8624 47.6617C20.2809 47.4015 19.684 47.0648 19.1636 46.6209C18.98 46.4679 18.8269 46.3148 18.6586 46.1465C16.6842 46.1465 14.7252 46.0853 12.7662 45.9628C11.6643 45.871 10.5624 45.7639 9.46041 45.5955C13.1029 50.692 18.4902 56.5537 24.5662 56.7986C30.4585 57.0282 36.1825 52.651 36.6876 52.2684C36.5498 52.1613 36.4274 52.0694 36.2896 51.9623L36.3968 51.9011ZM49.0385 39.9328C49.8956 39.994 50.7373 40.1317 51.5944 40.2236L52.2372 40.3154C52.5127 40.3766 52.7116 40.4684 52.9259 40.5756C53.3391 40.7898 53.7065 41.0194 54.0585 41.2796C54.7931 41.7693 55.4206 42.3662 56.0481 42.9937C56.6603 43.6365 57.2572 44.264 57.7163 45.1364C57.7622 45.2588 57.8234 45.366 57.854 45.5037C57.8693 45.5649 57.8999 45.672 57.9153 45.7486C57.9306 45.8557 57.9306 45.871 57.9306 45.9322C57.9306 46.2689 57.9 46.4679 57.8387 46.7434C57.701 47.2331 57.4714 47.6617 57.2112 48.0596C56.6756 48.8248 56.0328 49.4523 55.2981 49.9574C54.5788 50.4777 53.8442 50.9216 53.079 51.3195C52.2984 51.6868 51.5179 52.0541 50.6914 52.3143L50.6608 52.2531C52.1913 51.5185 53.6605 50.6461 54.9921 49.5747C55.6502 49.0391 56.2623 48.4422 56.7368 47.7382C56.9664 47.3862 57.1653 47.0036 57.2571 46.6056C57.3031 46.4067 57.3337 46.1924 57.3184 45.9934C57.3031 45.7792 57.2418 45.5955 57.15 45.4119C56.7827 44.6619 56.2164 44.0038 55.6348 43.3916C55.0533 42.7794 54.4258 42.1979 53.7677 41.6622C53.0943 41.1418 52.4055 40.6215 51.5332 40.545L49.0385 39.994V39.9328ZM30.1983 2.80345C30.4279 2.6657 30.6728 2.54326 30.9177 2.45143C31.4074 2.25247 31.9278 2.09943 32.4328 1.97699C33.4736 1.74742 34.5143 1.60967 35.5703 1.50253V1.56375C35.0653 1.83924 34.5602 2.0229 34.0705 2.17595C33.5654 2.3443 33.0756 2.45143 32.5706 2.57387L31.086 2.89527C30.8411 2.95649 30.5963 3.00241 30.3667 3.07893C30.1371 3.14015 29.877 3.21667 29.6933 3.38502L29.6321 3.36971C29.7392 3.09423 29.9688 2.94119 30.1983 2.80345ZM12.0163 11.267C13.1948 10.4711 14.4651 9.81301 15.8119 9.32326C16.4853 9.07838 17.174 8.86413 17.878 8.71108C18.3372 8.60395 18.8116 8.52742 19.2861 8.4662C19.2554 8.42028 19.2248 8.38967 19.2095 8.34376C18.9953 7.79279 19.1942 7.31834 19.3626 6.92042C19.5462 6.52249 19.7758 6.17048 20.0054 5.81847C19.8676 6.21639 19.7299 6.62962 19.6534 7.02755C19.5768 7.42547 19.5769 7.8387 19.7452 8.06827C19.9136 8.28254 20.2503 8.38968 20.6176 8.43559C20.8165 8.4662 21.0308 8.4662 21.2451 8.4662C21.4593 8.26724 21.6889 8.08358 21.9032 7.88462C22.4847 7.33365 23.0663 6.76738 23.6938 6.13988L23.7857 6.17049C23.449 6.95103 22.9898 7.67035 22.4848 8.34376C22.2552 8.63455 22.0103 8.91003 21.7501 9.17022C21.7501 9.17022 20.9084 9.96607 20.6941 10.1344C20.0207 10.6395 19.3014 11.0986 18.781 11.7414C18.6586 11.8945 18.5667 12.0934 18.5667 12.2771C18.5667 12.476 18.6433 12.6597 18.7504 12.8281C18.7657 12.8434 18.781 12.8587 18.7963 12.874L19.3167 12.6597C20.6176 12.1699 21.8879 11.6802 23.1276 11.1292L24.0458 10.716L24.306 10.5936L24.6121 10.4711C24.8111 10.3946 25.01 10.3334 25.2243 10.2875C26.0508 10.0732 27.0609 10.0732 27.9179 10.4405C28.3924 10.6395 28.7903 10.8997 29.1423 11.2057L29.7239 10.869C30.2137 10.5629 30.734 10.2569 31.1166 9.82832C31.3156 9.61405 31.4533 9.36918 31.5299 9.0937C31.5911 8.81821 31.5758 8.52742 31.5146 8.25193C31.3921 7.68566 31.2544 7.10407 31.0248 6.58371C30.8105 6.06335 30.4279 5.5736 29.8769 5.40525C29.3413 5.22159 28.7444 5.35934 28.1475 5.35934C27.5506 5.37464 26.9537 5.34403 26.3722 5.17567C25.8059 5.02263 25.2243 4.67062 24.9947 4.08904L25.0866 4.05843C25.4845 4.51758 25.9895 4.67062 26.5099 4.70123C27.0303 4.74715 27.5812 4.68592 28.1322 4.6247C28.4077 4.57879 28.6526 4.53288 28.9893 4.48697C29.3413 4.44105 29.7392 4.45635 30.1524 4.56348C30.5657 4.67062 30.9636 4.9308 31.2391 5.22159C31.5299 5.52768 31.7288 5.86439 31.8819 6.18579C32.1574 6.8592 32.2645 7.44078 32.3869 8.06827C32.4328 8.43559 32.4481 8.84881 32.3257 9.27735C32.2033 9.70588 31.9431 10.0579 31.6676 10.3181C31.1166 10.8231 30.535 11.0527 29.9841 11.2823C29.8004 11.3435 29.6168 11.4047 29.4331 11.4812C29.6168 11.6649 29.8004 11.8639 29.9382 12.0628C30.183 12.3689 30.4126 12.7515 30.5657 13.0423C30.7034 13.2872 30.8411 13.4556 31.0248 13.6239C31.7441 14.2973 33.1981 14.7411 34.4684 15.5217C35.1418 15.9196 35.6621 16.3481 36.2131 16.7001C36.7641 17.0675 37.3304 17.3889 37.9119 17.6337C38.0803 17.695 38.2486 17.7562 38.417 17.8174C38.7384 17.695 39.0445 17.5113 39.3047 17.2817C39.6567 16.9756 39.9322 16.5777 40.0393 16.1339C40.1005 15.9196 40.1005 15.69 40.0699 15.4605C39.6873 15.185 39.32 14.8636 39.0292 14.4963C38.7384 14.1137 38.4782 13.7004 38.3558 13.226C38.3558 13.2107 38.3558 13.1954 38.3711 13.1954C38.3864 13.1954 38.4017 13.1954 38.4017 13.2107C38.616 13.6086 38.9221 13.9453 39.2588 14.2514C39.5955 14.5575 39.9628 14.8177 40.3607 15.0472C41.0188 15.4299 41.7228 15.69 42.4575 15.8737C42.5952 15.9196 42.7482 15.9502 42.9013 15.9808C42.9319 15.9808 42.9472 16.0114 42.9472 16.042C42.9472 16.0574 42.9166 16.088 42.9013 16.088C42.7636 16.1186 42.6105 16.1492 42.4728 16.1951C41.9524 16.3482 41.4627 16.5624 41.0494 16.8838C40.7892 17.0981 40.575 17.3736 40.5138 17.7103C40.4985 17.8174 40.4985 17.9398 40.4985 18.047H40.5291C40.6515 18.0623 40.7586 18.0776 40.8658 18.1082C41.3096 18.2153 41.6922 18.4143 42.0136 18.6898C42.6564 19.2254 43.0697 19.9448 43.2533 20.71C43.4523 21.4752 43.3757 22.317 43.0237 23.021C42.8248 23.373 42.687 23.6026 42.5646 23.9087C42.4422 24.2148 42.3809 24.5362 42.335 24.8576C42.2891 25.1331 42.2891 25.4086 42.3044 25.6994C42.4881 25.4698 42.6564 25.2249 42.8248 24.9494C43.0696 24.5362 43.3757 24.1077 43.789 23.7556C44.2022 23.4189 44.6766 23.1281 45.197 23.0057C46.2224 22.7455 47.2172 22.9598 48.0284 23.4036L48.0131 23.4955C47.156 23.373 46.2683 23.373 45.4572 23.6791C44.646 23.9852 44.0339 24.6586 43.6359 25.4086C43.039 26.5105 41.9218 27.0768 41.6922 27.1533C40.8505 27.4747 39.9628 27.5053 39.0904 27.49V27.3982C39.9628 27.0921 40.7892 26.8472 41.432 26.4799C41.7075 26.3115 41.9218 26.1279 42.1361 25.9289C41.9677 24.8729 42.1514 23.771 42.687 22.8527C43.2533 21.5977 42.7329 20.0366 41.6616 19.2254C41.3861 19.0265 41.08 18.8734 40.7586 18.8122C40.4372 18.7357 40.0852 18.7969 39.7332 18.7816C39.0292 18.7816 38.3252 18.6439 37.6671 18.399C37.6365 18.3837 37.5905 18.3684 37.5599 18.3531C37.3304 18.3072 37.1161 18.2153 36.9171 18.0776C35.907 17.5878 34.9734 16.945 34.0245 16.3788C33.4276 16.042 32.7849 15.7666 32.1574 15.4911C31.5299 15.2156 30.8718 14.9248 30.3361 14.4351C30.0759 14.2055 29.8463 13.9147 29.6627 13.6086C29.4943 13.3025 29.3107 13.027 29.0964 12.7515C28.6832 12.2159 28.1475 11.7567 27.52 11.5118C26.8925 11.267 26.1885 11.2517 25.5457 11.42C24.8876 11.5731 24.2907 11.9404 23.6479 12.2159C22.3776 12.7974 21.0767 13.2872 19.7911 13.7923L18.8269 14.1749C18.5055 14.2973 18.1841 14.4198 17.9239 14.6034C17.373 14.986 17.1587 15.6747 17.2046 16.3328C17.2811 17.695 17.8627 18.9806 18.2759 20.3121C18.4902 20.9855 18.4749 21.766 18.2147 22.4241C18.1076 22.7608 17.9699 23.0669 18.0158 23.3883C18.0464 23.7097 18.23 24.0005 18.429 24.2607C18.8728 24.7811 19.3014 25.3779 19.5003 26.0667C19.5922 26.4034 19.6228 26.786 19.5309 27.1533C19.4238 27.5053 19.1789 27.8114 18.8575 28.0104C18.5361 28.194 18.1994 28.3165 17.8321 28.3318C17.4495 28.3471 17.0975 28.1634 16.8373 27.9338C16.3016 27.4441 15.9496 26.8472 15.567 26.2656C15.1997 25.684 14.8477 25.0719 14.4651 24.5056C14.0824 23.9393 13.6845 23.3271 13.0876 23.0363C12.4754 22.7608 11.7561 22.9139 11.098 23.0669C10.4246 23.2353 9.7512 23.3883 9.15431 23.725C8.54212 24.0464 8.09829 24.5974 7.8228 25.2096C7.53201 25.8218 7.27182 26.4952 6.8739 27.0615L6.76677 27.0003C7.11878 26.4034 7.30243 25.7453 7.56262 25.0872C7.80749 24.4291 8.29724 23.7556 8.95535 23.3577C9.59815 22.9445 10.3022 22.7455 10.9756 22.5313C11.3123 22.4241 11.6643 22.3323 12.0622 22.2711C12.4448 22.2252 12.9193 22.2252 13.3631 22.4088C13.807 22.5925 14.1284 22.8986 14.3885 23.1894C14.6487 23.4802 14.863 23.7709 15.0772 24.077C15.4905 24.6739 15.8578 25.2555 16.2404 25.8218C16.623 26.3728 17.021 26.9543 17.4036 27.2604C17.6025 27.4135 17.6791 27.4135 17.8015 27.4135C17.8627 27.4135 17.9545 27.3829 18.0617 27.3523L18.2453 27.2757L18.3372 27.2145C18.4749 27.1074 18.5208 27.0156 18.5514 26.9084C18.5667 26.786 18.5667 26.6023 18.4902 26.3881C18.4137 26.1738 18.3066 25.9289 18.1535 25.6994C18.077 25.5769 17.9852 25.4698 17.9086 25.3473L17.5872 24.98C17.3117 24.628 16.9903 24.1995 16.9138 23.5414C16.8832 23.22 16.9138 22.9139 16.975 22.669C17.0363 22.4241 17.0975 22.2405 17.1434 22.1027C17.2352 21.7966 17.2811 21.613 17.2811 21.3987C17.2811 21.1844 17.2352 20.9396 17.1587 20.6947C17.0056 20.2662 16.822 19.7458 16.6383 19.2254C16.0721 19.0877 15.4905 18.9499 14.9242 18.8275C15.5058 18.6898 15.9343 18.5979 16.4088 18.4908C16.2251 17.8633 16.0415 17.2205 16.0108 16.44C15.9955 15.9961 16.0261 15.5064 16.2251 14.986C16.4088 14.4657 16.7914 13.9759 17.2199 13.6698C17.4342 13.5168 17.6638 13.379 17.878 13.2872L18.1535 13.1648L18.3678 13.0729C18.1994 12.8893 18.0311 12.6291 17.9852 12.2618C17.9545 11.8792 18.1076 11.5425 18.2453 11.3129C18.8269 10.3946 19.5462 9.92015 20.189 9.39979C20.235 9.36918 20.2809 9.32327 20.3115 9.29266C20.1584 9.23144 19.9901 9.13961 19.837 9.03248C19.2401 9.03248 18.6126 9.09369 18.0005 9.18552C17.3117 9.29266 16.623 9.44571 15.9496 9.62936C14.5569 9.99668 13.256 10.563 12.0163 11.267ZM8.1595 38.0503C7.5014 38.0503 6.95042 37.9891 6.43006 37.9738C5.9097 37.9585 5.43525 37.9431 4.9302 37.9891C4.42514 37.9891 3.87417 38.0656 3.23137 37.9891C2.60388 37.9431 2.14473 37.8819 1.74681 37.3463L1.77742 37.2544C2.31309 37.4687 2.60388 37.3004 3.17015 37.2544C3.73643 37.2085 4.3027 37.0861 4.88428 37.0555C5.46586 37.0249 6.06275 37.1014 6.61372 37.2544C7.18 37.4075 7.70036 37.6677 8.19011 37.9738L8.1595 38.0503ZM42.2585 39.1216C41.3861 39.1369 40.5138 39.1522 39.672 39.2747C39.2435 39.3512 38.8302 39.443 38.4782 39.6726C38.2946 39.7797 38.1568 39.9175 38.0497 40.1011C37.9273 40.2848 37.7895 40.4531 37.6518 40.6215C37.1008 41.2796 36.4733 41.8765 35.8152 42.4274C36.0448 44.2334 36.2437 46.0394 36.4121 47.8606L36.3202 47.8759C36.1519 47.4321 36.0448 46.9883 35.907 46.5444C35.7693 46.1006 35.6468 45.6568 35.5397 45.1976C35.4173 44.7538 35.3407 44.2946 35.2336 43.8508C35.1724 43.5753 35.1112 43.2998 35.0653 43.0243C34.3 43.208 33.5195 43.4682 32.8002 43.7896C32.5553 43.8967 32.3257 44.0191 32.0961 44.1416L32.0808 44.1569L32.0349 44.1875H32.0196L31.9737 44.2028C31.9125 44.2181 31.8053 44.2334 31.7441 44.2334C31.637 44.2181 31.5452 44.2028 31.4686 44.1722C31.3156 44.111 31.1779 44.0498 31.0554 43.9732C30.5504 43.6824 30.1218 43.361 29.6627 43.0549C29.2341 42.7641 28.3771 42.2132 28.3771 42.2132C27.52 42.1519 26.6323 42.1673 25.76 42.2744C24.8876 42.3662 24.0152 42.5346 23.1735 42.8254C23.9846 42.4734 24.8417 42.2132 25.7141 42.0448C26.3875 41.9224 27.0609 41.8459 27.7496 41.8C26.5558 41.0653 25.2855 40.4225 23.9081 40.0552C26.1732 40.2389 29.4025 42.3815 29.9076 42.6723C30.382 42.9478 30.8412 43.2386 31.3156 43.4682C31.4227 43.5294 31.5452 43.56 31.6523 43.5906C31.6982 43.6059 31.7441 43.6059 31.7747 43.6059H31.79L31.8053 43.5906C32.0349 43.4376 32.2798 43.2998 32.5247 43.1621C33.3052 42.7488 34.1011 42.4121 34.9275 42.152L35.2642 41.8153C35.8305 41.2337 36.4733 40.6368 36.9631 40.0246C37.1008 39.8716 37.2079 39.7338 37.3151 39.5807L37.4528 39.3971C37.514 39.3359 37.5752 39.2593 37.6365 39.1981C37.7589 39.0757 37.8966 38.9839 38.0344 38.892C38.1262 38.8461 38.218 38.8002 38.2946 38.7543C37.5446 38.2799 36.7947 37.836 35.9988 37.484C34.9275 36.9483 33.8103 36.5351 32.6624 36.3055C32.3716 36.2443 32.0961 36.1984 31.8053 36.1678C31.4993 36.1219 31.1626 36.0607 30.8412 35.9841C30.3514 35.8617 29.8463 35.6933 29.3566 35.4179C29.3566 35.5403 29.3413 35.6627 29.3566 35.7699C29.4025 36.2443 29.5249 36.7035 29.7392 37.1473C30.1524 38.0197 30.8718 38.7543 31.6982 39.3206C30.8258 38.8461 30.0147 38.188 29.479 37.285C29.2035 36.8412 29.0199 36.3514 28.9128 35.8311C28.8668 35.5709 28.8362 35.3107 28.8209 35.0352C28.224 34.5761 27.7955 33.8568 27.6271 33.1681C27.4435 32.4487 27.4129 31.8059 27.3211 31.2397L27.1986 30.352C26.9231 31.4233 26.5711 32.4947 25.8518 33.5201C25.6681 33.7803 25.4233 34.0557 25.1937 34.27C25.1019 34.3618 24.9641 34.469 24.857 34.5608C24.7346 34.6526 24.6121 34.7445 24.4897 34.8363C23.9999 35.1883 23.4643 35.5097 22.8827 35.7699C21.7348 36.2596 20.3268 36.5198 18.9187 36.0454C18.582 35.9229 18.2453 35.7546 17.9545 35.5403C17.8015 35.4332 17.6638 35.326 17.526 35.2036C17.373 35.0658 17.327 35.0199 17.1893 34.8975C16.7608 34.4843 16.3782 34.1017 16.0108 33.6731C15.2762 32.8314 14.5569 32.0049 13.8835 31.1325C13.3325 30.4438 12.8121 29.7398 12.2918 29.0358C12.2306 30.8571 12.2 32.6936 12.2612 34.5149C12.2765 35.0505 12.2918 35.5862 12.3989 36.1066C12.5367 36.6116 12.7662 37.1014 13.0111 37.5758C13.5468 38.4941 14.1743 39.3971 15.0313 40.0246L14.9854 40.0858C13.9294 39.6573 13.1029 38.8155 12.4601 37.8819C12.154 37.4381 11.8939 36.9637 11.6949 36.3974C11.6184 36.428 11.5419 36.4586 11.4806 36.4739C11.1745 36.5504 10.8531 36.581 10.5317 36.581C9.90424 36.581 9.26144 36.4892 8.64925 36.3361C7.44018 35.9841 6.27702 35.4179 5.2669 34.5149C4.73124 34.0404 4.36392 33.566 3.99661 33.0609C3.92009 32.9538 3.84356 32.8314 3.75173 32.7242C3.35381 32.6171 2.9865 32.4487 2.64979 32.2498C2.00699 31.8672 1.47133 31.3774 1.01218 30.8417C1.56315 31.2856 2.17534 31.6529 2.83345 31.8825C3.06302 31.9743 3.23137 32.0508 3.35381 32.112C3.21606 31.8978 3.07833 31.6682 2.95589 31.4386C2.64979 30.8417 2.42022 30.1683 2.31308 29.4643C2.20595 28.745 2.23656 27.9798 2.42022 27.2757C2.61918 26.5717 2.97119 25.8983 3.33851 25.3626C3.55277 25.0565 3.76704 24.7504 3.9813 24.4597C3.81295 24.4597 3.62929 24.4291 3.46094 24.3831C3.15485 24.3066 2.87936 24.1383 2.66509 23.9546C3.18545 24.2301 3.76704 24.2454 4.2874 24.077C4.33331 24.0158 4.37923 23.9546 4.42514 23.8934C5.20568 22.9598 5.98622 22.0415 6.84329 21.1998C7.27182 20.7865 7.68506 20.358 8.1442 19.9601L8.75638 19.4091C8.46559 19.3479 8.1595 19.302 7.8534 19.2713C7.27182 19.2101 6.67494 19.1795 6.07805 19.2101C6.65963 19.0418 7.25652 18.9347 7.8534 18.8581C8.31255 18.8122 8.97065 18.8734 9.55223 18.9193C9.65937 18.8887 9.7512 18.8428 9.85833 18.8122C10.5011 18.6592 11.1133 18.6285 11.7255 18.6132C12.3224 18.5826 12.9346 18.6132 13.5315 18.6745L13.5468 18.7969C12.3836 18.9193 11.1898 19.0571 10.0879 19.4397C9.81242 19.5468 9.55223 19.654 9.36858 19.8682L8.77169 20.5263C8.37377 20.9549 7.97584 21.3987 7.59323 21.8425C6.82799 22.7302 6.07805 23.6485 5.37403 24.5821C4.70063 25.5463 3.92008 26.4646 3.62929 27.5818C3.30789 28.6991 3.53746 29.8928 4.02722 30.9336C4.27209 31.4692 4.57819 31.959 4.89959 32.4487C5.23629 32.9232 5.573 33.4129 5.97092 33.8262C6.79738 34.6526 7.80749 35.2801 8.89413 35.7086C9.42979 35.9229 9.99607 36.0913 10.5777 36.1525C10.9297 36.1984 11.2817 36.1984 11.6337 36.1372C11.4959 35.5403 11.4806 35.0352 11.45 34.5149C11.4347 33.4129 11.4653 32.3416 11.6031 31.255C11.6949 30.3979 11.8633 29.5562 12.0775 28.7144C12.0163 28.6379 11.9704 28.5613 11.9092 28.4848L11.6796 28.1634C11.649 28.1175 11.5878 28.041 11.5878 28.041L11.45 27.9032C11.3429 27.7808 11.1133 27.643 10.8991 27.5359C10.4399 27.3216 9.88894 27.2145 9.36858 26.9849L9.39919 26.8625C9.91955 26.9696 10.4858 26.985 11.0215 27.1227C11.297 27.1992 11.5572 27.291 11.7867 27.4594C12.0163 27.6124 12.2 27.842 12.3989 28.0257L14.6181 30.4285C15.3527 31.2244 16.1027 32.0355 16.8679 32.8161C17.2505 33.1987 17.6331 33.5966 18.0311 33.9639C18.429 34.3465 18.8422 34.6526 19.3473 34.821C20.3421 35.1883 21.4746 35.0199 22.4694 34.6373C22.9745 34.4384 23.449 34.1782 23.8928 33.8874C24.3366 33.5813 24.7805 33.2599 25.1172 32.8467C25.7906 32.0049 26.2497 31.0101 26.6323 29.9847C26.7854 29.5714 26.9231 29.1429 27.0456 28.7144C26.9997 28.3318 26.9537 27.9338 26.9078 27.5512C26.7701 26.3575 26.5099 25.2096 26.2038 24.0617C25.8977 22.9139 25.4692 21.7966 24.9335 20.7253C24.4438 19.6234 23.7857 18.5979 23.0969 17.5725L23.1582 17.5113C23.9999 18.4143 24.7346 19.4244 25.362 20.4804C25.3008 19.8835 25.2396 19.2713 25.1478 18.6745C25.01 17.7868 24.8417 16.8991 24.6274 16.0267C24.9335 16.8685 25.209 17.7409 25.4539 18.6132C25.6987 19.4856 25.8977 20.3733 26.0661 21.2763C26.0661 21.2763 26.6017 22.9598 26.9078 23.8322C27.3058 24.9953 27.5965 26.2044 27.7955 27.4135C28.0098 28.6379 28.071 29.8622 28.2852 31.0713C28.3618 31.6835 28.3924 32.2957 28.5454 32.8773C28.6832 33.4282 28.9893 33.9486 29.4331 34.3006L29.5402 34.3312C29.5402 34.3465 29.5402 34.3618 29.5249 34.3771C29.9994 34.7291 30.5504 34.9587 31.1166 35.1271C31.6982 35.2954 32.3104 35.3719 32.9073 35.5403C35.004 36.1219 36.9171 37.2238 38.5854 38.6012C38.9527 38.4635 39.3047 38.4176 39.6261 38.387C40.1005 38.3258 40.5597 38.3258 41.0188 38.3564C41.4626 38.3717 41.9065 38.4023 42.3503 38.4635C42.7942 38.5094 43.2227 38.586 43.6512 38.6625C44.0798 38.739 44.5236 38.8155 44.9521 38.9227V39.0145L42.2585 39.1216ZM49.0232 47.9065C48.8089 47.8912 48.5794 47.8912 48.3651 47.8606C47.9978 47.7994 47.6305 47.7535 47.2631 47.677C46.8958 47.5851 46.5285 47.4933 46.1918 47.3556C45.6562 47.1566 45.1358 46.9117 44.6613 46.575C44.5542 46.8505 44.4165 47.0954 44.2328 47.3097C43.9114 47.7076 43.5135 47.9984 43.039 48.1667L42.9931 48.1208C43.6053 47.478 44.1563 46.6975 44.2022 45.8098C44.2328 45.366 44.1104 44.9221 43.8961 44.5395C43.6665 44.1569 43.3451 43.8355 42.9778 43.5753L43.0084 43.5294C43.5135 43.6059 43.9726 43.8814 44.3093 44.2946C44.6613 44.6925 44.845 45.2741 44.8144 45.8404C44.7991 45.9781 44.7838 46.1159 44.7532 46.2536C45.2735 46.4067 45.7939 46.5291 46.3143 46.6362C46.6663 46.6975 47.0183 46.7587 47.3856 46.8199C48.2427 46.6516 49.3293 46.422 49.5129 46.3914C49.8343 46.3302 50.1404 46.2536 50.4465 46.1465C51.0587 45.9475 51.6709 45.6873 52.2525 45.3659C51.7474 45.7945 51.1965 46.1924 50.6149 46.5138C50.3241 46.6821 50.018 46.8352 49.6966 46.9729C49.6201 47.0036 49.5589 47.0342 49.4823 47.0495C50.569 47.126 51.6709 47.1566 52.7576 47.1413V47.2331C52.0382 47.5851 51.3036 47.7535 50.569 47.8453C50.3547 47.8759 50.1557 47.8912 49.9415 47.9065C50.1711 48.1055 50.3853 48.3198 50.569 48.5493C51.0128 49.1003 51.3648 49.7125 51.6403 50.3553C51.273 49.7737 50.8445 49.2227 50.3394 48.7636C50.0945 48.534 49.819 48.3351 49.5436 48.1667C49.4058 48.0596 49.2069 47.9678 49.0232 47.9065Z" fill="white"/>
<path d="M27.8109 50.693C27.9027 50.7389 27.9946 50.7695 28.0711 50.7848C28.1017 50.8001 28.1323 50.8001 28.1629 50.8001C28.1629 50.8001 28.2241 50.8001 28.3006 50.8001L29.0812 50.846C30.1066 50.9225 31.1167 50.9685 32.1421 50.9838C34.1777 51.0603 36.2285 51.0297 38.2794 50.9685C39.2282 50.9225 40.1771 50.8766 41.126 50.8307C40.6516 50.7236 40.1771 50.6012 39.7333 50.3869C39.2742 50.1726 38.8456 49.8971 38.4936 49.5298C38.2334 49.239 38.0039 48.8717 37.9426 48.5044C37.6519 48.9788 37.1162 49.2696 36.6417 49.4533C36.0449 49.6676 35.448 49.8053 34.8358 49.8665C34.2389 49.9277 33.642 49.9583 33.0451 49.9583C32.4482 49.943 31.8667 49.9124 31.2698 49.8818C30.0913 49.8053 28.9434 49.6216 27.7956 49.4686C26.8314 49.3002 25.8672 49.1166 24.8877 48.9023C25.454 49.2696 26.0202 49.6523 26.5712 50.0043C26.9844 50.2645 27.413 50.5093 27.8109 50.693Z" fill="white"/>
<path d="M31.7115 43.6152L31.7215 43.6052C31.7115 43.6152 31.7015 43.6152 31.7115 43.6152Z" fill="white"/>
<path d="M40.2228 18.047H40.284C40.2534 17.9246 40.2381 17.8022 40.2381 17.6644C40.2381 17.2206 40.5136 16.838 40.7738 16.5472C40.9421 16.3788 41.1258 16.2411 41.3095 16.1186C41.034 16.0115 40.7585 15.8738 40.4983 15.7207C40.5289 15.8891 40.5595 16.0727 40.5289 16.2411C40.483 16.838 40.1463 17.3736 39.7331 17.7562C39.6106 17.8481 39.4882 17.9399 39.3658 18.0164C39.4882 18.0317 39.5953 18.047 39.7178 18.047C39.9014 18.047 40.0085 18.047 40.2228 18.047Z" fill="white"/>
<path d="M63.364 44.5539C63.3179 44.5385 63.2719 44.5232 63.2412 44.5078C63.2872 44.5078 63.3333 44.5232 63.364 44.5539Z" fill="white"/>
<path d="M59.4915 3.46094C59.5222 3.507 59.5529 3.55305 59.5836 3.59911C59.5682 3.56841 59.5375 3.52235 59.4915 3.46094Z" fill="white"/>
<path d="M62.6597 44.2478C62.4454 44.1407 62.2312 44.0336 62.0169 43.9111C62.1853 44.003 62.3995 44.1254 62.6597 44.2478Z" fill="white"/>
<path d="M48.9774 14.0056C49.2529 13.1332 49.5131 12.2455 49.7121 11.3579C49.8804 10.5926 50.0335 9.81209 49.9569 9.03155C49.9263 8.60301 49.7886 8.20509 49.5743 7.83778C49.4519 7.83778 49.3447 7.85307 49.2223 7.85307C48.5642 7.83777 47.8755 7.80716 47.1868 7.68472C46.5134 7.53167 45.7634 7.33272 45.1206 6.79705C44.8758 6.58279 44.6462 6.32261 44.4931 6.03182C43.4983 5.80225 42.5188 5.45023 41.5087 5.31249C40.8659 5.22066 40.1925 5.22066 39.6109 5.51145C39.2742 5.6798 39.014 5.93998 38.7998 6.26138C39.0293 6.42973 39.2895 6.59809 39.5344 6.78175C39.8864 7.07254 40.269 7.33271 40.6363 7.74594C40.82 7.9449 41.019 8.20509 41.1261 8.54179C41.2332 8.8785 41.2026 9.2152 41.1414 9.46008C41.0649 9.68965 40.9884 9.90391 40.8812 10.1029C41.4934 10.3784 42.0597 10.7304 42.5954 11.1589C42.978 11.4956 43.1463 11.6334 43.4677 11.8017C43.7585 11.9701 44.0799 12.1078 44.4319 12.2455C45.1359 12.5057 45.9012 12.6741 46.7429 12.9036C47.1562 13.0108 47.5847 13.1485 48.0744 13.3781C48.3193 13.5005 48.5642 13.6383 48.8397 13.8678C48.8703 13.8985 48.9315 13.9597 48.9774 14.0056Z" fill="white"/>
<path d="M76.2657 22.4237C75.6382 22.6074 74.9801 22.6227 74.3526 22.5462C74.276 22.5462 74.2148 22.5156 74.1383 22.5156C74.1995 22.5921 74.276 22.6686 74.3373 22.7451C74.9801 23.5104 75.4239 24.4287 75.8524 25.2551C76.0514 25.6071 76.4646 25.8367 76.8932 26.051L78.2094 26.6631C78.5155 26.8162 78.8063 26.9845 79.097 27.1529C78.8675 26.556 78.592 25.9744 78.2859 25.4082L78.1634 25.1633V24.8725C78.1634 24.2297 78.1481 23.541 78.0869 22.8829C78.041 22.3166 77.9645 21.7656 77.8727 21.2759C77.8574 21.3065 77.842 21.3218 77.8267 21.3524C77.4594 21.8575 76.8932 22.2401 76.2657 22.4237Z" fill="white"/>
<path d="M59.6143 51.5193C59.6143 51.5193 59.6143 51.504 59.6143 51.5193C59.6143 51.504 59.6143 51.504 59.6143 51.5193C59.6143 51.5347 59.5836 51.6114 59.5989 51.5654C59.6143 51.5654 59.6143 51.5347 59.6143 51.5193Z" fill="white"/>
<path d="M79.9999 31.4392C79.9846 30.6127 79.8622 29.8016 79.6632 28.9904C79.5408 28.4395 79.3571 27.8885 79.1581 27.3528C78.8061 27.1692 78.4694 27.0008 78.1021 26.8631L76.74 26.358C76.2961 26.1743 75.7911 25.9601 75.4544 25.5009C74.9187 24.6592 74.4443 23.8633 73.8015 23.1899C73.6484 23.0216 73.5413 22.8991 73.4495 22.792C73.6331 23.4042 73.7403 24.047 73.7403 24.751C73.7096 25.2867 73.6484 25.8835 73.2046 26.4804C73.1893 26.511 73.1587 26.5264 73.1434 26.557C73.2046 26.5417 73.2658 26.5264 73.3117 26.5264C73.6943 26.4957 74.031 26.5723 74.3524 26.6335C75.5156 26.909 76.7094 27.2457 77.8266 28.0874C78.347 28.5313 78.8827 29.1741 79.0357 29.9852C79.1734 30.7964 78.9592 31.5616 78.6072 32.1279C78.0409 33.0921 77.2603 33.7655 76.4033 34.2706C77.1532 33.9798 77.8572 33.5971 78.4694 33.0768C79.051 32.6176 79.5408 32.0514 79.9999 31.4392Z" fill="white"/>
<path d="M71.9649 40.4681L72.2557 40.0549L72.3322 39.9477L72.3628 39.9018L72.4241 39.81C72.4394 39.7794 72.623 39.5957 72.6995 39.5192C73.0822 39.2131 73.4342 39.0601 73.7709 38.907C74.4443 38.6162 75.0871 38.3866 75.6993 38.1265C76.9237 37.6061 78.0103 36.9786 78.6837 36.045C79.3571 35.1267 79.7856 33.933 79.9234 32.7086C79.954 32.479 79.954 32.2341 79.9693 31.9893C79.6173 32.5096 79.2194 32.9994 78.7449 33.4432C77.7195 34.4074 76.3574 35.0043 75.0106 35.3104C74.3219 35.4328 73.6331 35.494 72.975 35.5399C72.3322 35.5706 71.6894 35.6624 71.0772 35.7542C70.0365 35.9226 69.0723 36.3817 68.4295 37.2541L68.5213 37.3306C68.5979 37.4071 68.6744 37.4837 68.7509 37.5755C68.8887 37.7591 68.9958 38.0193 69.0264 38.2795C69.057 38.5397 69.0111 38.7846 68.9346 38.9835C68.7968 39.3967 68.5826 39.6875 68.3683 39.9477C67.9245 40.4528 67.4194 40.7895 66.899 41.0956C65.8583 41.6772 64.7411 42.0292 63.5932 42.1669C62.6443 42.2893 61.6801 42.2587 60.7618 42.0445C61.1292 42.5495 61.4812 43.0546 61.772 43.6056L61.726 43.6515L61.772 43.6208C61.772 43.6208 61.772 43.6209 61.772 43.6362C62.9657 44.279 64.3278 44.6616 65.6287 44.631C65.9501 44.6157 66.2716 44.5851 66.593 44.5085C66.8991 44.432 67.2511 44.3249 67.5418 44.2177C68.154 43.9882 68.7203 43.6821 69.2407 43.2995C70.312 42.5495 71.1844 41.5547 71.9649 40.4681Z" fill="white"/>
<path d="M69.0879 35.5868C68.2002 35.5103 67.3891 35.2348 66.6544 34.8369C66.6391 35.2961 66.532 35.7399 66.333 36.1378C66.6544 36.2449 66.9605 36.3674 67.2666 36.5204C67.5268 36.6582 67.7717 36.8112 68.0166 36.9643C68.1237 37.0255 68.2308 37.1173 68.3227 37.1938C68.5369 36.7959 68.8124 36.4439 69.1644 36.1684C69.5317 35.8776 69.9603 35.6634 70.3888 35.5103C70.2817 35.5409 70.1898 35.5562 70.098 35.5715C69.746 35.6174 69.4093 35.6174 69.0879 35.5868Z" fill="white"/>
<path d="M63.8839 18.354C63.9758 18.9509 64.0676 19.5325 64.1747 20.1294L64.3278 21.0017C64.389 21.3078 64.4349 21.7057 64.4349 22.0731C64.4502 22.8077 64.2053 23.5882 63.7309 24.1851C63.2717 24.782 62.6136 25.1187 61.9708 25.3024C61.5729 25.4248 61.1597 25.4707 60.7465 25.486C60.8689 26.3737 61.1903 27.292 61.5117 28.1796C61.8025 28.9143 62.1239 29.6489 62.4759 30.3835C62.6749 30.4448 62.8891 30.506 63.0881 30.5825C63.6391 30.7815 64.1594 31.0723 64.6645 31.4243C65.1542 31.7763 65.6134 32.2507 65.9654 32.7558C66.2868 33.2608 66.5316 33.8271 66.6082 34.4699C67.404 34.7148 68.2305 34.8678 69.0569 34.8525C69.6079 34.8372 70.1895 34.7607 70.6333 34.4393C71.0925 34.1332 71.1231 33.5057 71.2761 32.97C71.521 31.8681 71.6893 30.7355 71.6587 29.603C71.6434 29.0367 71.5822 28.4704 71.4139 27.9348C71.3526 27.7052 71.2455 27.4909 71.1231 27.292C70.3272 27.3379 69.5314 27.3991 68.7508 27.4144C67.8632 27.4603 66.9908 27.4909 66.1184 27.5522C65.6746 27.5675 65.246 27.5981 64.8022 27.6593C64.5879 27.6899 64.3737 27.7205 64.1594 27.7664C63.9451 27.8123 63.7309 27.8583 63.5625 27.9807L63.5013 27.9195C63.8533 27.5981 64.3125 27.4909 64.7257 27.3685C65.1542 27.2461 65.5981 27.1542 66.0266 27.0777C66.899 26.9247 67.7866 26.8022 68.6743 26.6951L71.322 26.4043C71.5363 26.3737 71.7659 26.3737 71.9648 26.3125C72.1638 26.2513 72.3321 26.1288 72.4546 25.9605C72.6995 25.6238 72.776 25.1799 72.7913 24.7514C72.8066 23.879 72.6076 23.0066 72.2709 22.1955C72.1026 21.7976 71.873 21.4149 71.5516 21.1242C71.2302 20.8334 70.8476 20.6191 70.4344 20.4508C69.6232 20.1294 68.7355 19.9763 67.8632 19.8386C66.9908 19.7161 66.1031 19.6243 65.2154 19.5478L65.2307 19.4559C67.0367 19.3182 68.8274 19.1958 70.7098 19.7773C71.1843 19.9304 71.674 20.1447 72.1026 20.5273C72.3781 20.7568 72.6076 21.0476 72.7913 21.3384V21.3231C73.8473 21.7976 74.9952 22.1802 76.1277 22.0118C76.6787 21.92 77.2144 21.6598 77.597 21.2313C77.6582 21.1701 77.7041 21.0935 77.7653 21.017C77.7041 20.7568 77.597 20.4814 77.5511 20.4354L76.9389 19.808C76.4491 19.2723 75.99 18.7366 75.5155 18.1704C75.439 18.2163 75.3778 18.2622 75.3013 18.3081C74.9186 18.4917 74.4901 18.5683 74.0616 18.5683L73.9851 18.5989C73.9851 18.5836 73.9698 18.5836 73.9698 18.5683C73.0515 18.553 72.1791 18.2928 71.3067 18.1091C70.4497 17.8796 69.5467 17.8796 68.659 18.002C67.7866 18.1397 66.9143 18.3693 66.0878 18.7213L66.0572 18.6448C66.7612 17.9867 67.6183 17.5582 68.5519 17.2827C68.7049 17.2368 68.8733 17.2061 69.0263 17.1755C68.7968 16.7317 68.4907 16.3185 68.154 15.9665C67.6336 15.4155 67.0214 14.9563 66.3633 14.589C65.3532 14.0075 64.2206 13.6401 63.0728 13.3953C63.2258 14.4666 63.4248 15.5532 63.5625 16.6399L63.8839 18.354ZM66.1643 30.3988C66.2409 30.2764 66.3327 30.1693 66.4398 30.0774C66.6388 29.8938 66.8683 29.7407 67.0979 29.5877L67.1285 29.6336C66.9602 29.8785 66.7918 30.0927 66.6541 30.3223C66.6388 30.3529 66.6235 30.3835 66.6082 30.3988C66.8837 30.3988 67.4805 30.3835 67.8938 30.3835C68.1386 30.3835 68.3529 30.3682 68.46 30.3223C68.5672 30.2917 68.659 30.2152 68.7815 30.0162C68.9957 29.6336 69.1641 29.0826 69.3936 28.547H69.4549C69.4395 29.0979 69.4089 29.6489 69.2406 30.1846C69.1488 30.4448 68.9804 30.7049 68.7202 30.8427C68.4601 30.9804 68.1693 30.9957 67.8938 30.9957C67.6183 30.9957 67.3428 30.9804 67.0673 30.9651C66.7918 30.9498 66.5163 30.9345 66.2409 30.7968C66.1796 30.7509 66.1184 30.6896 66.1031 30.6131C66.1031 30.5519 66.1337 30.4754 66.1643 30.3988Z" fill="white"/>
<path d="M71.5978 27.2601C71.7049 27.4132 71.8121 27.5662 71.9039 27.7346C71.9498 27.5662 72.0263 27.3826 72.1488 27.1836C71.8886 27.2295 71.7356 27.2448 71.5978 27.2601Z" fill="white"/>
<path d="M66.5623 30.5351V30.5198C66.547 30.5505 66.5316 30.5812 66.5316 30.5965C66.5316 30.6272 66.5623 30.6119 66.5623 30.5351Z" fill="white"/>
<path d="M74.3678 17.817C74.628 17.8476 74.8729 17.8476 75.1484 17.7864C75.2096 17.7711 75.2708 17.7558 75.332 17.7558V17.3885C75.332 16.5008 75.1637 15.4448 74.8117 14.6336C74.4443 13.7766 73.9546 13.2715 73.0516 12.6746C72.4241 12.2614 71.7354 11.8788 71.0467 11.5115C70.8936 11.8329 70.8018 12.1696 70.8018 12.5216C70.7865 13.195 71.0314 13.8684 71.3681 14.4194C72.0721 14.8785 72.7149 15.4601 73.2506 16.1182C73.5261 16.4549 73.7709 16.8069 74.0005 17.1589C74.123 17.3732 74.2454 17.5875 74.3678 17.817Z" fill="white"/>
<path d="M66.4553 40.2993C66.9298 40.0392 67.3736 39.7331 67.7409 39.3504C67.9246 39.1668 68.0929 38.9525 68.1848 38.7077C68.2766 38.4781 68.2766 38.2026 68.1388 37.9883C67.5879 37.3608 66.9145 36.8099 66.1798 36.3813C66.1186 36.4732 66.0574 36.565 65.9962 36.6568C65.1544 37.6822 64.0066 38.1414 62.874 38.2638L62.8434 38.172C63.8229 37.7587 64.7871 37.1466 65.3993 36.2436C65.6901 35.7997 65.8431 35.2641 65.7972 34.7437C65.7513 34.2234 65.5217 33.7183 65.2309 33.2745C64.6341 32.3715 63.7464 31.7134 62.7822 31.2236C61.818 30.7339 60.7773 30.3972 59.7059 30.1523L59.7212 30.0605C60.5171 30.0145 61.3129 30.0911 62.0935 30.2747C61.6802 29.6931 61.3129 29.081 61.0068 28.4382C60.5171 27.4434 60.1192 26.4026 59.9814 25.3007C59.9508 25.0252 59.9508 24.7497 59.9814 24.4589C59.9967 24.1681 60.1192 23.908 60.1345 23.6478C60.1957 23.1121 59.9814 22.5764 59.6141 22.1785C58.8948 21.3674 57.7622 20.9847 56.6756 20.9847V20.9082C56.9817 20.847 57.3031 20.8164 57.6245 20.8164C57.5174 20.3266 57.5174 19.9287 57.4714 19.3777C57.4255 18.7196 57.4408 18.0615 57.4714 17.4034C57.5174 16.7453 57.5786 16.1025 57.6857 15.4444C57.6857 15.3832 57.701 15.322 57.7163 15.2608H57.701C57.5786 14.9547 57.3643 14.6639 57.0888 14.4343C56.8133 14.2047 56.4919 14.0517 56.1552 13.9599C56.798 14.0517 57.4102 14.4496 57.7775 15.0312C57.9459 14.5261 58.3438 14.0976 58.8489 13.9446C58.2367 14.1894 57.8541 14.8169 57.8388 15.4444C57.7928 16.0872 57.7775 16.7453 57.7775 17.3881C57.8081 18.5819 57.9306 19.7604 58.2826 20.8776C58.9101 21.0001 59.5223 21.2755 60.0426 21.7806C60.5324 22.2244 60.8538 22.9437 60.8232 23.6937C60.8232 23.862 60.7773 24.0916 60.7467 24.1987C60.7007 24.3671 60.7007 24.3977 60.7007 24.5201C60.6854 24.7344 60.7007 24.964 60.7314 25.2089C60.7314 25.2242 60.7314 25.2242 60.7314 25.2395C61.6956 25.0711 62.6444 24.6273 63.1954 23.8008C63.5168 23.3111 63.6546 22.6989 63.6086 22.102C63.578 21.5051 63.3638 20.9235 63.2413 20.3266C62.7057 17.9544 62.3077 15.5363 62.0169 13.1181V13.1028C61.9863 12.9957 61.8639 12.7967 61.7568 12.6743C61.6343 12.5212 61.5119 12.3835 61.3742 12.261C61.0987 11.9856 60.8232 11.7407 60.5171 11.4958C60.211 11.2509 59.9355 11.006 59.5835 10.8683C59.2468 10.7153 58.8642 10.6693 58.4816 10.654C57.7316 10.654 56.9664 10.8377 56.2624 11.0979C55.543 11.3581 54.8543 11.6795 54.1962 12.0774L54.1656 12.0315L54.1503 12.0621C53.5687 12.0162 53.0178 11.7713 52.5586 11.404C52.0842 11.052 51.7016 10.5316 51.5026 9.91941C51.3189 9.30722 51.3342 8.63381 51.5638 8.06753C51.625 7.89918 51.7015 7.74614 51.7934 7.6084C51.2577 7.70023 50.722 7.77675 50.1711 7.80736C50.4313 8.14406 50.6149 8.54198 50.6914 8.95521C50.921 9.8735 50.7986 10.7459 50.6302 11.5723C50.4313 12.3835 50.1711 13.1487 49.8038 13.8833C49.6813 14.1435 49.5436 14.3884 49.4058 14.6333L49.4211 14.6792V14.6945L49.4518 14.771L49.4977 14.9241C49.513 14.9853 49.5283 15.0465 49.5283 15.0924C49.6813 15.0006 49.8344 14.8935 49.9874 14.8169C50.6914 14.4496 51.4261 14.1588 52.1913 13.9905C51.4567 14.2507 50.768 14.6486 50.1405 15.0771C49.9415 15.2149 49.7425 15.3832 49.5589 15.5516C49.5589 15.7352 49.5283 15.9036 49.4977 16.0413C49.4211 16.3627 49.314 16.6382 49.2069 16.8678C48.9773 17.3422 48.7171 17.7095 48.5029 18.0615C48.457 18.1228 48.4263 18.184 48.3957 18.2299C49.0079 18.3217 49.7272 18.3676 50.4466 18.5054C51.3189 18.6737 52.2678 18.888 53.1708 19.5308C53.2932 19.6226 53.3851 19.6838 53.5075 19.8063L53.6759 19.9746L53.783 20.0971C53.9973 20.3419 54.135 20.5409 54.2728 20.8164C54.5329 21.3368 54.6401 21.9183 54.6248 22.4387C54.5942 23.4641 54.3034 24.26 54.3187 24.8415C54.3187 24.9793 54.3493 25.117 54.3799 25.2395L54.4411 25.4078C54.4717 25.469 54.5635 25.5915 54.5941 25.6527C54.8084 25.9741 55.0533 26.2802 55.3135 26.5863C56.3083 27.8413 57.5327 28.9126 58.9407 29.8003L58.8948 29.9074C58.1755 29.586 57.4867 29.1881 56.8286 28.7289C56.1858 30.137 55.8491 31.6522 55.7267 33.1979C55.6196 34.407 55.6349 35.6314 55.7726 36.8558C55.8798 36.917 56.0022 36.9782 56.1093 37.0394C56.2777 37.1466 56.4766 37.2996 56.6297 37.4374C56.7827 37.5751 56.9052 37.6822 57.0276 37.82L57.7775 38.5852C58.2826 39.1056 58.7723 39.6259 59.2468 40.1769C59.7059 40.7279 60.1651 41.2788 60.6089 41.8604C61.5578 41.8604 62.522 41.738 63.4403 41.5084C64.4963 41.2176 65.5217 40.835 66.4553 40.2993Z" fill="white"/>
<path d="M77.4593 39.5036C77.7807 39.0904 78.0715 38.6312 78.3623 38.1874C78.5613 37.9119 78.7449 37.6211 78.9286 37.3303C78.1021 38.0956 77.0767 38.6006 76.0513 38.9986C75.4085 39.2434 74.7504 39.4577 74.1076 39.7026C73.7862 39.825 73.4801 39.9627 73.2199 40.1617C72.975 40.3607 72.8067 40.6821 72.5771 40.9422C71.766 41.983 70.863 42.9625 69.761 43.7124C70.7406 43.4675 71.7354 43.2839 72.6536 43.039C73.6638 42.7635 74.582 42.3503 75.3626 41.7381C76.1584 41.1259 76.8165 40.3301 77.4593 39.5036Z" fill="white"/>
<path d="M72.3478 34.3306C72.1335 34.4684 71.8886 34.5908 71.6438 34.6979C71.506 34.8816 71.353 35.0346 71.1846 35.1418C71.0163 35.2489 70.8479 35.3254 70.6949 35.3867C70.7867 35.356 70.8785 35.3254 70.9704 35.3101C72.2713 34.9581 73.6181 35.0193 74.9037 34.7285C75.2098 34.6673 75.5159 34.5908 75.8067 34.499C76.6331 33.7184 77.4443 32.8614 77.934 31.8359C78.1789 31.3156 78.3013 30.734 78.1636 30.183C78.0412 29.6321 77.6738 29.1729 77.23 28.8209C76.3423 28.1016 75.2098 27.719 74.1231 27.3363C73.6028 27.168 72.9447 27.0149 72.5315 27.4282C72.3325 27.6424 72.1947 27.9026 72.0723 28.1781C72.2407 28.6372 72.3478 29.0964 72.409 29.5708C72.5621 30.7952 72.4396 31.989 72.1947 33.1675C72.1488 33.3358 72.1029 33.5195 72.057 33.6878C72.5161 33.4736 72.96 33.1981 73.3579 32.8614C74.1691 32.1573 74.7812 31.1625 74.9955 30.0453C74.919 31.1778 74.4598 32.2951 73.6793 33.1828C73.312 33.6266 72.8528 34.0092 72.3478 34.3306Z" fill="white"/>
<path d="M69.5926 43.8196C69.5773 43.8349 69.562 43.8349 69.5467 43.8502C71.1996 43.7431 72.7454 43.6972 74.184 43.085C73.7096 43.2686 73.2351 43.4217 72.7454 43.5135C71.7047 43.7125 70.6333 43.7584 69.5926 43.8196Z" fill="white"/>
</svg>
