<svg width="80" height="78" viewBox="0 0 80 78" fill="none" xmlns="http://www.w3.org/2000/svg">
<path d="M9.84081 58.0227C3.79832 64.3978 19.4866 72.6577 19.4866 72.6577C17.9529 78.0535 14.867 77.1849 14.867 77.1849C9.78537 74.1914 -1.06154 68.2783 0.0841315 58.2444C1.00806 50.0769 8.25165 48.2291 9.17558 47.5269C14.2387 43.6279 19.3388 45.4573 21.8149 47.5269C25.0671 50.2432 41.8272 48.2291 43.6011 38.5279C45.375 28.8266 36.7456 25.4265 31.202 20.5297C25.6584 15.6329 26.7487 6.80017 26.7487 6.80017C31.8303 3.4186 33.401 6.02405 33.401 6.02405C33.6781 11.7154 36.838 16.7047 40.1087 16.9819C43.3794 17.259 44.2109 15.8362 44.4881 11.8448C44.7653 7.85347 46.7609 -0.443443 61.7101 0.0185207C76.6592 0.480484 82.8126 15.2633 78.8027 31.432C74.8114 47.6008 66.9395 70.699 44.6174 67.1511C22.2953 63.6217 22.591 59.4455 19.8192 60.5357C17.2692 61.5336 12.6311 62.6608 9.84081 58.0227Z" fill="white"/>
</svg>
