<svg width="80" height="80" viewBox="0 0 80 80" fill="none" xmlns="http://www.w3.org/2000/svg">
<path fill-rule="evenodd" clip-rule="evenodd" d="M45 66.6667C48.68 66.6667 51.6667 69.6533 51.6667 73.3333C51.6667 77.0133 48.68 80 45 80C41.32 80 38.3333 77.0133 38.3333 73.3333C38.3333 69.6533 41.32 66.6667 45 66.6667ZM9.99333 80C8 80 1.89667 74.1533 0.836667 65.6533C-0.576667 54.2733 7.91667 47.01 15.5467 46.0867C17.5033 39.77 23.7967 30.4733 36.9933 30.1867C39.52 23.58 48.3567 15.1633 59.7933 19.5667C65.2833 21.68 70.13 26.57 72.1433 32.0233C72.9133 34.1033 69.7767 35.24 69.02 33.18C67.32 28.5867 63.23 24.4633 58.5967 22.6767C50.0067 19.3767 42.9467 25.1133 40.5233 30.3367C44.2133 30.7367 47.4967 31.8533 49.7067 33.3C52.7367 35.28 54.6167 38.4933 54.7333 41.89C54.8367 44.8533 53.6333 47.5133 51.43 49.18C49.25 50.8333 46.4567 51.3233 43.77 50.5267C40.55 49.5733 37.9433 46.94 36.6267 43.2967C35.67 40.6533 35.3467 37.14 36.0333 33.56C25.82 34.1767 20.91 41.2467 19.1167 46.0333C23.05 46.3733 26.4867 47.9467 28.5533 49.4067C31.75 51.66 33.5433 54.74 33.5967 58.07C33.6467 60.9333 32.3867 63.6167 30.2267 65.2533C28.2 66.7867 25.11 67.25 22.35 66.4133C19.1467 65.45 16.6833 62.9433 15.42 59.3533C14.57 56.9433 14.17 53.4333 14.74 49.6233C9.30333 50.8267 3.03333 56.2733 4.14667 65.24C4.74667 70.0667 7.50667 74.8667 10.8633 76.9133C12.2967 77.7833 11.67 80 9.99333 80ZM67.6867 46.58L71.7033 53.9967L80 55.5267L74.1867 61.6367L75.2967 70L67.6867 66.36L60.0767 70L61.1867 61.6367L55.3733 55.5267L63.67 53.9967L67.6867 46.58ZM18.1867 49.32C17.5133 52.7333 17.76 55.9633 18.5633 58.2467C19.72 61.5267 21.7833 62.7633 23.31 63.22C25.3233 63.83 27.2267 63.34 28.2167 62.5967C29.51 61.6167 30.2967 59.9033 30.2633 58.13C30.2267 55.8867 28.9367 53.7533 26.63 52.1267C24.8133 50.8433 21.7 49.45 18.1867 49.32ZM39.43 33.6C38.6767 36.9933 39.0633 40.2333 39.76 42.1633C40.7167 44.7967 42.52 46.6833 44.7133 47.33C46.3833 47.8233 48.0933 47.53 49.4167 46.5233C50.7433 45.52 51.4667 43.8733 51.4033 42.0067C51.32 39.6567 50.04 37.4967 47.8833 36.09C46.18 34.9767 43.0567 33.9 39.43 33.6ZM15 0L19.8933 9.03667L30 10.8967L22.92 18.3433L24.27 28.5333L15 24.0967L5.73 28.5333L7.08 18.3433L0 10.8967L10.1067 9.03667L15 0V0ZM71.6667 0C76.2667 0 80 3.73333 80 8.33333C80 12.9333 76.2667 16.6667 71.6667 16.6667C67.0667 16.6667 63.3333 12.9333 63.3333 8.33333C63.3333 3.73333 67.0667 0 71.6667 0Z" fill="white"/>
</svg>
