<svg width="25" height="24" viewBox="0 0 25 24" fill="none" xmlns="http://www.w3.org/2000/svg">
<g clip-path="url(#clip0_215_567)">
<path d="M4.25002 6.41399L1.00702 3.17199L2.42202 1.75699L5.66402 4.99999H20.906C21.0619 4.99998 21.2156 5.0364 21.3549 5.10636C21.4942 5.17631 21.6152 5.27785 21.7083 5.40288C21.8013 5.52792 21.8639 5.67297 21.8909 5.82648C21.918 5.97998 21.9088 6.13768 21.864 6.28699L19.464 14.287C19.4023 14.4931 19.2757 14.6737 19.1031 14.8022C18.9306 14.9306 18.7212 15 18.506 15H6.25002V17H17.25V19H5.25002C4.9848 19 4.73045 18.8946 4.54291 18.7071C4.35538 18.5196 4.25002 18.2652 4.25002 18V6.41399ZM6.25002 6.99999V13H17.762L19.562 6.99999H6.25002ZM5.75002 23C5.35219 23 4.97066 22.842 4.68936 22.5606C4.40805 22.2793 4.25002 21.8978 4.25002 21.5C4.25002 21.1022 4.40805 20.7206 4.68936 20.4393C4.97066 20.158 5.35219 20 5.75002 20C6.14784 20 6.52938 20.158 6.81068 20.4393C7.09198 20.7206 7.25002 21.1022 7.25002 21.5C7.25002 21.8978 7.09198 22.2793 6.81068 22.5606C6.52938 22.842 6.14784 23 5.75002 23ZM17.75 23C17.3522 23 16.9707 22.842 16.6894 22.5606C16.4081 22.2793 16.25 21.8978 16.25 21.5C16.25 21.1022 16.4081 20.7206 16.6894 20.4393C16.9707 20.158 17.3522 20 17.75 20C18.1478 20 18.5294 20.158 18.8107 20.4393C19.092 20.7206 19.25 21.1022 19.25 21.5C19.25 21.8978 19.092 22.2793 18.8107 22.5606C18.5294 22.842 18.1478 23 17.75 23Z" fill="#2C3954"/>
</g>
<defs>
<clipPath id="clip0_215_567">
<rect width="24" height="24" fill="white" transform="translate(0.25)"/>
</clipPath>
</defs>
</svg>
