<svg width="24" height="24" viewBox="0 0 24 24" fill="none" xmlns="http://www.w3.org/2000/svg">
<path d="M19.125 3H4.875C4.17946 3.00211 3.513 3.27935 3.02118 3.77118C2.52935 4.263 2.25211 4.92946 2.25 5.625V14.625C2.25211 15.3205 2.52935 15.987 3.02118 16.4788C3.513 16.9707 4.17946 17.2479 4.875 17.25H6.75V21L11.143 17.337C11.2104 17.2808 11.2953 17.25 11.383 17.25H19.125C19.8205 17.2479 20.487 16.9707 20.9788 16.4788C21.4707 15.987 21.7479 15.3205 21.75 14.625V5.625C21.7479 4.92946 21.4707 4.263 20.9788 3.77118C20.487 3.27935 19.8205 3.00211 19.125 3V3Z" stroke="#2C3954" stroke-width="2" stroke-linejoin="round"/>
</svg>
