<?xml version="1.0" encoding="utf-8"?>
<!-- Generator: Adobe Illustrator 25.4.1, SVG Export Plug-In . SVG Version: 6.00 Build 0)  -->
<svg version="1.1" id="Слой_1" xmlns="http://www.w3.org/2000/svg" xmlns:xlink="http://www.w3.org/1999/xlink" x="0px" y="0px"
	 viewBox="0 0 25 24" style="enable-background:new 0 0 25 24;" xml:space="preserve">
<style type="text/css">
	.st0{clip-path:url(#SVGID_00000060730463504211090460000003704097204784691097_);}
	.st1{fill:#75BB34;}
</style>
<g>
	<g>
		<defs>
			<rect id="SVGID_1_" x="0.2" y="0" width="24" height="24"/>
		</defs>
		<clipPath id="SVGID_00000098903377003309271850000015714809410055410589_">
			<use xlink:href="#SVGID_1_"  style="overflow:visible;"/>
		</clipPath>
		<g style="clip-path:url(#SVGID_00000098903377003309271850000015714809410055410589_);">
			<path class="st1" d="M12.3,4.5c2.3-2.1,6-2,8.2,0.2c2.3,2.3,2.3,5.9,0.2,8.2l-8.5,8.5L3.8,13c-2.1-2.4-2-6,0.2-8.2
				C6.3,2.5,9.9,2.4,12.3,4.5z M19.1,6.2c-1.5-1.5-3.9-1.6-5.5-0.2l-1.3,1.2L10.9,6c-1.6-1.4-4-1.3-5.5,0.2S3.9,10,5.2,11.6l7,7l7-7
				C20.6,10,20.6,7.7,19.1,6.2z"/>
		</g>
	</g>
</g>
</svg>
