<svg width="25" height="24" viewBox="0 0 25 24" fill="none" xmlns="http://www.w3.org/2000/svg">
<g clip-path="url(#clip0_215_578)">
<path d="M12.251 4.52901C14.6 2.42001 18.23 2.49001 20.493 4.75701C22.755 7.02501 22.833 10.637 20.729 12.993L12.249 21.485L3.77101 12.993C1.66701 10.637 1.74601 7.01901 4.00701 4.75701C6.27201 2.49301 9.89501 2.41701 12.251 4.52901ZM19.077 6.17001C17.577 4.66801 15.157 4.60701 13.587 6.01701L12.252 7.21501L10.916 6.01801C9.34101 4.60601 6.92601 4.66801 5.42201 6.17201C3.93201 7.66201 3.85701 10.047 5.23001 11.623L12.25 18.654L19.27 11.624C20.644 10.047 20.569 7.66501 19.077 6.17001Z" fill="#2C3954"/>
</g>
<defs>
<clipPath id="clip0_215_578">
<rect width="24" height="24" fill="white" transform="translate(0.25)"/>
</clipPath>
</defs>
</svg>
