<svg width="19" height="18" viewBox="0 0 19 18" fill="none" xmlns="http://www.w3.org/2000/svg">
<path fill-rule="evenodd" clip-rule="evenodd" d="M5.65 0H12.85C15.8323 0 18.25 2.41766 18.25 5.4V12.6C18.25 15.5823 15.8323 18 12.85 18H5.65C2.66766 18 0.25 15.5823 0.25 12.6V5.4C0.25 2.41766 2.66766 0 5.65 0ZM5.65 1.8C3.66177 1.8 2.05 3.41177 2.05 5.4V12.6C2.05 14.5882 3.66177 16.2 5.65 16.2H12.85C14.8382 16.2 16.45 14.5882 16.45 12.6V5.4C16.45 3.41177 14.8382 1.8 12.85 1.8H5.65ZM9.25 13.5C6.76472 13.5 4.75 11.4853 4.75 9C4.75 6.51472 6.76472 4.5 9.25 4.5C11.7353 4.5 13.75 6.51472 13.75 9C13.75 11.4853 11.7353 13.5 9.25 13.5ZM9.25 11.7C10.7412 11.7 11.95 10.4912 11.95 9C11.95 7.50883 10.7412 6.3 9.25 6.3C7.75883 6.3 6.55 7.50883 6.55 9C6.55 10.4912 7.75883 11.7 9.25 11.7ZM13.75 5.4C13.2529 5.4 12.85 4.99705 12.85 4.5C12.85 4.00295 13.2529 3.6 13.75 3.6C14.2471 3.6 14.65 4.00295 14.65 4.5C14.65 4.99705 14.2471 5.4 13.75 5.4Z" fill="white"/>
</svg>
