<svg width="19" height="11" viewBox="0 0 19 11" fill="none" xmlns="http://www.w3.org/2000/svg">
<path d="M18.0828 9.38193C18.0828 9.31033 18.0112 9.31033 18.0112 9.23873C17.7247 8.66577 17.0802 7.94957 16.2208 7.16178C15.7911 6.80369 15.5762 6.51721 15.433 6.37398C15.2181 6.0875 15.2181 5.87266 15.2897 5.58619C15.3614 5.37133 15.6478 5.01324 16.1492 4.36868C16.4356 4.01059 16.5788 3.79575 16.7937 3.58089C17.8679 2.14854 18.3693 1.21749 18.226 0.787789L18.1544 0.716178C18.0828 0.64456 18.0112 0.572945 17.8679 0.572945C17.7247 0.501327 17.5099 0.501327 17.2951 0.572945H14.5736C14.502 0.572945 14.502 0.572945 14.3587 0.572945C14.2871 0.572945 14.2155 0.572945 14.2155 0.572945H14.1439H14.0722L14.0006 0.644556C13.929 0.716173 13.929 0.716172 13.929 0.787789C13.6425 1.57559 13.2845 2.22014 12.9264 2.93632C12.7115 3.29441 12.4966 3.65251 12.2818 3.93898C12.0669 4.22545 11.9237 4.4403 11.7805 4.58353C11.6372 4.72677 11.494 4.79839 11.4224 4.94163C11.3507 5.01324 11.2075 5.08487 11.2075 5.01324C11.1359 5.01324 11.0643 5.01324 11.0643 4.94163C10.9926 4.87 10.921 4.79839 10.8494 4.72677C10.7778 4.65515 10.7778 4.51192 10.7062 4.36868C10.7062 4.22544 10.7062 4.08221 10.7062 4.01059C10.7062 3.93897 10.7062 3.72412 10.7062 3.58089C10.7062 3.36604 10.7062 3.2228 10.7062 3.15118C10.7062 2.93632 10.7062 2.64986 10.7062 2.36339C10.7062 2.07692 10.7062 1.86206 10.7062 1.71883C10.7062 1.57559 10.7062 1.36073 10.7062 1.2175C10.7062 1.00265 10.7062 0.859407 10.7062 0.787789C10.7062 0.716172 10.6346 0.57294 10.6346 0.501322C10.563 0.429704 10.4914 0.358085 10.4198 0.286467C10.3481 0.214849 10.2049 0.214851 10.1333 0.143233C9.77521 0.0716156 9.34545 0 8.84414 0C7.69826 0 6.91046 0.07162 6.62399 0.214855C6.48075 0.286473 6.33752 0.358087 6.2659 0.501322C6.12267 0.644558 6.12266 0.716178 6.19428 0.716178C6.55237 0.787795 6.83885 0.931024 6.98208 1.14588L7.0537 1.28913C7.12532 1.36074 7.12531 1.50397 7.19692 1.71883C7.26854 1.93367 7.26855 2.14853 7.26855 2.435C7.26855 2.86471 7.26855 3.29441 7.26855 3.58089C7.26855 3.93898 7.19692 4.15382 7.19692 4.36868C7.19692 4.58353 7.12532 4.72677 7.0537 4.79839C6.98208 4.94163 6.98208 5.01324 6.91045 5.01324C6.91045 5.01324 6.91045 5.08486 6.83884 5.08486C6.76721 5.08486 6.69561 5.15648 6.55237 5.15648C6.48075 5.15648 6.33752 5.08487 6.2659 5.01324C6.12267 4.94163 5.97943 4.7984 5.90781 4.65516C5.76457 4.51192 5.62133 4.29706 5.4781 4.01059C5.33486 3.72411 5.12 3.43765 4.97677 3.00794L4.83355 2.72147C4.76193 2.57824 4.61869 2.29177 4.47546 1.93368C4.33222 1.57559 4.18898 1.28913 4.04575 0.931033C3.97412 0.787798 3.90252 0.716173 3.8309 0.644556H3.75928C3.75928 0.644556 3.68765 0.572945 3.61604 0.572945C3.54441 0.572945 3.47281 0.501322 3.40119 0.501322H0.822945C0.536473 0.501322 0.39324 0.572938 0.321622 0.644556L0.25 0.716178C0.25 0.716178 0.25 0.787794 0.25 0.859412C0.25 0.931033 0.250004 1.00264 0.321622 1.14588C0.679711 2.00529 1.10942 2.86471 1.53913 3.72412C1.96883 4.51192 2.39854 5.2281 2.68501 5.72942C3.0431 6.23074 3.32957 6.73208 3.68765 7.16178C4.04575 7.59149 4.26059 7.87795 4.33221 8.02119C4.47545 8.16442 4.54706 8.23604 4.61868 8.30765L4.83355 8.52251C4.97678 8.66577 5.19163 8.88057 5.4781 9.09545C5.76457 9.31033 6.12266 9.52512 6.48074 9.74C6.83884 9.95488 7.26855 10.0981 7.69825 10.2414C8.19958 10.3846 8.62929 10.4562 9.05897 10.3846H10.1333C10.3481 10.3846 10.4914 10.313 10.6346 10.1698L10.7062 10.0981C10.7062 10.0265 10.7778 10.0265 10.7778 9.95488C10.7778 9.88329 10.7778 9.8116 10.7778 9.66841C10.7778 9.38193 10.7778 9.16705 10.8494 8.95225C10.921 8.73737 10.921 8.59413 10.9927 8.4509C11.0643 8.30766 11.1359 8.23604 11.2075 8.16442C11.2791 8.09281 11.3508 8.02119 11.3508 8.02119H11.4224C11.5656 7.94957 11.7805 8.02118 11.9237 8.16442C12.1385 8.30766 12.3534 8.52252 12.4966 8.73737C12.6399 8.95225 12.8547 9.16705 13.1412 9.45352C13.4277 9.74 13.6425 9.95488 13.7857 10.0265L14.0006 10.1698C14.1438 10.2414 14.2871 10.313 14.502 10.3846C14.7168 10.4562 14.86 10.4562 15.0032 10.4562L17.4383 10.3846C17.6531 10.3846 17.8679 10.313 18.0112 10.2414C18.1544 10.1698 18.226 10.0981 18.226 9.95488C18.226 9.88329 18.226 9.74 18.226 9.66841C18.0828 9.52512 18.0828 9.45353 18.0828 9.38193Z" fill="white"/>
</svg>
