<svg width="19" height="19" viewBox="0 0 19 19" fill="none" xmlns="http://www.w3.org/2000/svg">
<path d="M5.47771 15.3446L6.12931 15.7253C7.22815 16.3662 8.47794 16.7026 9.75001 16.7C11.174 16.7 12.5661 16.2777 13.7501 15.4866C14.9341 14.6954 15.857 13.5709 16.4019 12.2553C16.9469 10.9397 17.0895 9.49201 16.8117 8.09534C16.5338 6.69868 15.8481 5.41577 14.8412 4.40883C13.8342 3.40189 12.5513 2.71616 11.1547 2.43834C9.75799 2.16053 8.31031 2.30312 6.99469 2.84807C5.67906 3.39302 4.55457 4.31586 3.76343 5.49989C2.97228 6.68392 2.55001 8.07597 2.55001 9.49999C2.55001 10.7924 2.88931 12.0317 3.52561 13.1216L3.90541 13.7732L3.31771 15.9341L5.47771 15.3446ZM0.753612 18.5L1.97041 14.0288C1.16864 12.6544 0.747398 11.0912 0.750012 9.49999C0.750012 4.5293 4.77931 0.5 9.75001 0.5C14.7207 0.5 18.75 4.5293 18.75 9.49999C18.75 14.4707 14.7207 18.5 9.75001 18.5C8.15951 18.5026 6.597 18.0816 5.22301 17.2805L0.753612 18.5ZM6.50191 5.2772C6.62251 5.2682 6.74401 5.2682 6.86461 5.2736C6.91321 5.2772 6.96181 5.2826 7.01041 5.288C7.15351 5.3042 7.31101 5.3915 7.36411 5.5121C7.63231 6.1205 7.89331 6.7334 8.14531 7.3481C8.20111 7.4849 8.16781 7.6604 8.06161 7.83139C7.98857 7.94703 7.90956 8.05878 7.82491 8.16619C7.72321 8.29669 7.50451 8.53609 7.50451 8.53609C7.50451 8.53609 7.41541 8.64229 7.44961 8.77459C7.46221 8.82499 7.50361 8.89789 7.54141 8.95909L7.59451 9.04459C7.82491 9.42889 8.13451 9.81859 8.51251 10.1858C8.62051 10.2902 8.72581 10.3973 8.83921 10.4972C9.26041 10.8689 9.73741 11.1722 10.2522 11.3972L10.2567 11.399C10.3332 11.4323 10.3719 11.4503 10.4835 11.498C10.5393 11.5214 10.5969 11.5421 10.6554 11.5574C10.7159 11.5728 10.7795 11.5699 10.8383 11.5491C10.8971 11.5282 10.9484 11.4904 10.9857 11.4404C11.6373 10.6511 11.6967 10.5998 11.7021 10.5998V10.6016C11.7474 10.5594 11.8012 10.5273 11.8598 10.5076C11.9185 10.4879 11.9807 10.481 12.0423 10.4873C12.0963 10.4909 12.1512 10.5008 12.2016 10.5233C12.6795 10.742 13.4616 11.0831 13.4616 11.0831L13.9854 11.318C14.0736 11.3603 14.1537 11.4602 14.1564 11.5565C14.16 11.6168 14.1654 11.714 14.1447 11.8922C14.1159 12.1253 14.0457 12.4052 13.9755 12.5519C13.9274 12.652 13.8636 12.7438 13.7865 12.8237C13.6957 12.919 13.5963 13.0058 13.4895 13.0829C13.4526 13.1107 13.4151 13.1377 13.377 13.1639C13.2651 13.2349 13.1501 13.301 13.0323 13.3619C12.8006 13.485 12.5447 13.5556 12.2826 13.5689C12.1161 13.5779 11.9496 13.5905 11.7822 13.5815C11.775 13.5815 11.271 13.5032 11.271 13.5032C9.99143 13.1666 8.80806 12.5361 7.81501 11.6618C7.61161 11.4827 7.42351 11.2901 7.23091 11.0984C6.42991 10.3019 5.82511 9.44239 5.45791 8.6306C5.26996 8.23215 5.16844 7.79846 5.16001 7.358C5.1563 6.81156 5.33492 6.2795 5.66761 5.846C5.73331 5.7614 5.79541 5.6732 5.90251 5.5715C6.01681 5.4635 6.08881 5.4059 6.16711 5.3663C6.27121 5.31413 6.38478 5.28351 6.50101 5.2763L6.50191 5.2772Z" fill="white"/>
</svg>
