<svg width="19" height="17" viewBox="0 0 19 17" fill="none" xmlns="http://www.w3.org/2000/svg">
<path d="M16.9176 0.001506C16.685 0.0123257 16.4659 0.0799488 16.2711 0.155687H16.2684C16.071 0.23413 15.1324 0.62905 13.7069 1.22684C12.2814 1.82733 10.4312 2.60635 8.59455 3.37996C4.92667 4.92448 1.32099 6.44465 1.32099 6.44465L1.36427 6.42842C1.36427 6.42842 1.11542 6.50957 0.855747 6.6881C0.723205 6.77465 0.577139 6.89367 0.450007 7.08031C0.322876 7.26695 0.220088 7.55367 0.257957 7.84851C0.320171 8.34892 0.644763 8.64917 0.877386 8.81417C1.11272 8.98188 1.33722 9.06032 1.33722 9.06032H1.34263L4.7238 10.1991C4.87527 10.686 5.75438 13.5748 5.96536 14.2403C6.08979 14.6379 6.21151 14.8867 6.36299 15.0761C6.43602 15.1735 6.52258 15.2546 6.62536 15.3195C6.66594 15.3439 6.70922 15.3628 6.7525 15.379C6.76602 15.3872 6.77955 15.3899 6.79577 15.3926L6.76061 15.3844C6.77143 15.3872 6.77955 15.3953 6.78766 15.398C6.81471 15.4061 6.83364 15.4088 6.86881 15.4142C7.40438 15.5765 7.83447 15.2438 7.83447 15.2438L7.85881 15.2249L9.85505 13.4071L13.2011 15.9741L13.2768 16.0066C13.9747 16.3122 14.6806 16.1418 15.0539 15.8416C15.4299 15.5386 15.576 15.1518 15.576 15.1518L15.6003 15.0896L18.1862 1.84356C18.2593 1.51627 18.2782 1.21061 18.1971 0.913068C18.1159 0.615526 17.9076 0.336917 17.6561 0.188146C17.4018 0.0366699 17.1503 -0.00931372 16.9176 0.001506ZM16.8473 1.42159C16.8446 1.46487 16.8527 1.45946 16.8338 1.54332V1.55143L14.2722 14.6595C14.2614 14.6785 14.2424 14.719 14.1911 14.7596C14.137 14.8029 14.0937 14.8299 13.8692 14.7407L9.77661 11.603L7.3043 13.8562L7.82365 10.5399C7.82365 10.5399 14.2343 4.56472 14.5102 4.30776C14.7861 4.05079 14.6942 3.99669 14.6942 3.99669C14.7131 3.68292 14.2776 3.90472 14.2776 3.90472L5.84634 9.12794L5.84364 9.11442L1.80247 7.75384V7.75113C1.79977 7.75113 1.79436 7.74843 1.79165 7.74843C1.79436 7.74843 1.81329 7.74031 1.81329 7.74031L1.83493 7.72949L1.85657 7.72138C1.85657 7.72138 5.46495 6.20121 9.13284 4.65669C10.9695 3.88308 12.8197 3.10406 14.2425 2.50357C15.6652 1.90578 16.7175 1.46758 16.777 1.44323C16.8338 1.42159 16.8067 1.42159 16.8473 1.42159Z" fill="white"/>
</svg>
