<?xml version="1.0" encoding="utf-8"?>
<!-- Generator: Adobe Illustrator 25.4.1, SVG Export Plug-In . SVG Version: 6.00 Build 0)  -->
<svg version="1.1" id="Слой_1" xmlns="http://www.w3.org/2000/svg" xmlns:xlink="http://www.w3.org/1999/xlink" x="0px" y="0px"
	 viewBox="0 0 24 24" style="enable-background:new 0 0 24 24;" xml:space="preserve">
<style type="text/css">
	.st0{fill:none;stroke:#75BB34;stroke-width:2;stroke-linecap:round;stroke-linejoin:round;}
</style>
<path class="st0" d="M7,22H4c-0.5,0-1-0.2-1.4-0.6S2,20.5,2,20v-7c0-0.5,0.2-1,0.6-1.4C3,11.2,3.5,11,4,11h3 M14,9V5
	c0-0.8-0.3-1.6-0.9-2.1S11.8,2,11,2l-4,9v11h11.3c0.5,0,1-0.2,1.3-0.5c0.4-0.3,0.6-0.7,0.7-1.2l1.4-9c0-0.3,0-0.6-0.1-0.9
	c-0.1-0.3-0.2-0.5-0.4-0.8c-0.2-0.2-0.4-0.4-0.7-0.5c-0.3,0-0.6-0.1-0.8-0.1H14z"/>
</svg>
