<svg width="123" height="48" viewBox="0 0 123 48" fill="none" xmlns="http://www.w3.org/2000/svg">
<g clip-path="url(#clip0_215_585)">
<path d="M23.0878 13.1624C22.4435 4.2921 27.3117 1.93145 27.3117 1.93145C22.7298 6.15201 24.1617 13.6632 24.1617 13.6632C31.8936 11.1595 28.8867 0 28.8867 0C28.8867 0 23.1594 1.85991 21.1548 5.29359C19.1503 8.79881 23.0878 13.1624 23.0878 13.1624Z" fill="#6AAB2F"/>
<path d="M14.7116 22.1043C15.857 22.6766 16.8593 23.4635 17.5036 24.5365C18.148 25.6095 18.5059 26.7541 18.5059 28.1133C18.5059 30.1162 17.79 31.8331 16.3582 33.1922C14.9263 34.5514 13.2081 35.2668 11.132 35.2668H0.25V9.87183H10.3445C12.349 9.87183 13.9956 10.5156 15.3559 11.8748C16.7161 13.234 17.432 14.8077 17.432 16.8107C17.5036 19.0283 16.5729 20.8167 14.7116 22.1043ZM10.3445 13.0194H3.61482V20.7452H10.3445C11.4183 20.7452 12.2774 20.3875 12.9934 19.6006C13.7093 18.8852 14.0672 17.9553 14.0672 16.8823C14.0672 15.8092 13.7093 14.8793 12.9218 14.1639C12.2774 13.4486 11.4183 13.0194 10.3445 13.0194ZM3.61482 32.0477H11.2036C12.349 32.0477 13.2797 31.6185 14.0672 30.8316C14.8547 30.0447 15.2127 29.0432 15.2127 27.8987C15.2127 26.7541 14.7832 25.8241 13.9956 25.0373C13.2797 24.2504 12.2774 23.8212 11.2036 23.8212H3.61482V32.0477Z" fill="#231F20"/>
<path d="M25.3071 35.1952H22.1571V15.9523H25.3071V35.1952Z" fill="#231F20"/>
<path d="M45.4244 32.3338C43.5631 34.1937 41.3437 35.0522 38.6232 35.0522C35.9027 35.0522 33.6834 34.1222 31.822 32.3338C29.9606 30.5454 29.1015 28.2563 29.1015 25.538C29.1015 22.8197 30.0322 20.6021 31.822 18.7422C33.6118 16.8823 35.9027 16.0238 38.6232 16.0238C41.3437 16.0238 43.5631 16.9538 45.4244 18.7422C47.2858 20.6021 48.2165 22.8912 48.2165 25.538C48.2165 28.1848 47.2858 30.4739 45.4244 32.3338ZM38.6232 31.9761C40.413 31.9761 41.988 31.3323 43.2051 30.1162C44.4222 28.9001 45.0665 27.3264 45.0665 25.538C45.0665 23.6781 44.4222 22.1758 43.2051 20.9598C41.988 19.7437 40.4846 19.0998 38.6232 19.0998C36.8334 19.0998 35.33 19.7437 34.1129 20.9598C32.8959 22.1758 32.2515 23.7496 32.2515 25.538C32.2515 27.3264 32.8959 28.9001 34.1129 30.1162C35.33 31.4039 36.8334 31.9761 38.6232 31.9761Z" fill="#231F20"/>
<path d="M63.8952 35.1952C60.1008 35.1952 56.9508 33.9791 54.4451 31.5469C51.9393 29.1147 50.7223 26.1103 50.7223 22.5335C50.7223 18.8852 51.9393 15.8808 54.4451 13.5201C56.9508 11.0879 60.1008 9.87183 63.8952 9.87183C66.1861 9.87183 68.3339 10.3726 70.2669 11.4456C72.1999 12.5186 73.7033 13.8778 74.7772 15.6662L70.4816 18.0984C69.8373 17.0253 68.9782 16.1669 67.8327 15.5231C66.6873 14.8793 65.3986 14.5931 63.8952 14.5931C61.4611 14.5931 59.4565 15.3085 57.9531 16.8107C56.4496 18.313 55.7337 20.2444 55.7337 22.6051C55.7337 24.9657 56.4496 26.8256 57.9531 28.3994C59.4565 29.9016 61.4611 30.617 63.8952 30.617C65.327 30.617 66.6157 30.3308 67.8327 29.687C68.9782 29.0432 69.9089 28.2563 70.4816 27.1833L74.7772 29.6155C73.7033 31.4039 72.1999 32.763 70.2669 33.8361C68.3339 34.6945 66.1861 35.1952 63.8952 35.1952Z" fill="#6AAB2F"/>
<path d="M93.1763 22.1043C95.3956 23.3919 96.4695 25.3234 96.4695 27.8987C96.4695 30.0447 95.682 31.8331 94.1785 33.1922C92.6751 34.5514 90.8137 35.2668 88.5944 35.2668H77.8556V9.87183H87.8069C89.9546 9.87183 91.7444 10.5156 93.2478 11.8748C94.7513 13.234 95.4672 14.9508 95.4672 16.9538C95.5388 19.0998 94.7513 20.8167 93.1763 22.1043ZM87.8785 14.5216H82.867V20.1013H87.8785C88.666 20.1013 89.3103 19.8152 89.8114 19.3144C90.3126 18.8137 90.5989 18.0984 90.5989 17.3115C90.5989 16.5246 90.3842 15.8808 89.8114 15.3085C89.2387 14.7362 88.666 14.5216 87.8785 14.5216ZM82.867 30.5455H88.5944C89.4535 30.5455 90.1694 30.2593 90.6705 29.687C91.2433 29.1147 91.5296 28.3994 91.5296 27.541C91.5296 26.6826 91.2433 25.9672 90.6705 25.3949C90.0978 24.8226 89.3819 24.5365 88.5944 24.5365H82.867V30.5455Z" fill="#6AAB2F"/>
<path d="M99.7627 9.87183H109.786C113.294 9.87183 116.157 11.0879 118.448 13.5201C120.811 15.9523 121.956 18.9568 121.956 22.5335C121.956 26.1103 120.811 29.1147 118.448 31.5469C116.157 33.9791 113.222 35.1952 109.786 35.1952H99.7627V9.87183ZM104.774 30.4024H109.857C112.077 30.4024 113.866 29.687 115.227 28.2563C116.587 26.7541 117.303 24.8226 117.303 22.5335C117.303 20.1729 116.587 18.313 115.227 16.8823C113.866 15.38 112.077 14.6647 109.857 14.6647H104.774V30.4024Z" fill="#6AAB2F"/>
<path d="M58.9553 43.3502C58.9553 43.994 58.7406 44.5663 58.2394 44.924C57.8099 45.2817 57.0939 45.4963 56.2348 45.4963H55.4473V48.1431H54.6598V41.4903H56.378C58.0962 41.4188 58.9553 42.0626 58.9553 43.3502ZM55.5189 44.7809H56.2348C56.9508 44.7809 57.3803 44.6378 57.7383 44.4232C58.0962 44.2086 58.1678 43.851 58.1678 43.3502C58.1678 42.921 58.0246 42.5633 57.7383 42.3487C57.4519 42.1341 57.0224 41.991 56.378 41.991H55.5189V44.7809Z" fill="#231F20"/>
<path d="M63.2508 42.921C63.4656 42.921 63.6804 42.921 63.8236 42.9925L63.752 43.7079C63.4656 43.6363 63.3224 43.6363 63.1792 43.6363C62.7497 43.6363 62.4633 43.7794 62.177 44.1371C61.8906 44.4948 61.7474 44.8524 61.7474 45.3532V48H60.9599V42.9925H61.6042L61.6758 43.9225H61.7474C61.9622 43.5648 62.177 43.3502 62.3917 43.2071C62.6065 43.0641 62.8929 42.921 63.2508 42.921Z" fill="#231F20"/>
<path d="M67.5463 48.143C66.8304 48.143 66.2577 47.9284 65.8281 47.4992C65.3986 47.07 65.1838 46.4262 65.1838 45.6393C65.1838 44.8524 65.3986 44.2086 65.7565 43.7079C66.1145 43.2071 66.6872 42.9925 67.3316 42.9925C67.9759 42.9925 68.477 43.2071 68.835 43.6363C69.193 44.0655 69.4077 44.5663 69.4077 45.2816V45.7824H65.9713C65.9713 46.3547 66.1145 46.7839 66.4009 47.1416C66.6872 47.4277 67.0452 47.5708 67.6179 47.5708C68.1191 47.5708 68.6918 47.4277 69.193 47.2131V47.8569C68.9066 48 68.6918 48.0715 68.4054 48.0715C68.1907 48.0715 67.9043 48.143 67.5463 48.143ZM67.3316 43.5648C66.902 43.5648 66.6156 43.7079 66.4009 43.9225C66.1861 44.2086 66.0429 44.5663 65.9713 44.9955H68.5486C68.5486 44.4948 68.477 44.1371 68.2623 43.9225C68.0475 43.7079 67.7611 43.5648 67.3316 43.5648Z" fill="#231F20"/>
<path d="M77.7124 48V44.7809C77.7124 44.3517 77.6408 44.0656 77.426 43.9225C77.2113 43.7794 76.9965 43.6364 76.6385 43.6364C76.1374 43.6364 75.851 43.7794 75.5646 44.0656C75.3499 44.3517 75.2067 44.7809 75.2067 45.2817V48.0715H74.4192V44.8525C74.4192 44.4233 74.3476 44.1371 74.1328 43.994C73.9896 43.7794 73.7033 43.7079 73.3453 43.7079C72.8441 43.7079 72.5578 43.851 72.2714 44.1371C72.0566 44.4233 71.9135 44.8525 71.9135 45.4963V48.1431H71.1259V43.1356H71.7703L71.9135 43.851H71.985C72.1282 43.6364 72.343 43.4218 72.5578 43.2787C72.8442 43.1356 73.1305 43.0641 73.4169 43.0641C74.2044 43.0641 74.7055 43.3502 74.9203 43.9225H74.9919C75.1351 43.6364 75.3499 43.4218 75.6362 43.2787C75.9226 43.1356 76.209 43.0641 76.5669 43.0641C77.1397 43.0641 77.5692 43.2072 77.8556 43.4933C78.142 43.7794 78.2851 44.2086 78.2851 44.8525V48.0715H77.7124V48Z" fill="#231F20"/>
<path d="M80.6477 41.7049C80.6477 41.5618 80.7193 41.4188 80.7909 41.3472C80.8624 41.2757 81.0056 41.2042 81.0772 41.2042C81.2204 41.2042 81.292 41.2757 81.3636 41.3472C81.4352 41.4188 81.5068 41.5618 81.5068 41.7049C81.5068 41.848 81.4352 41.991 81.3636 42.0626C81.292 42.1341 81.1488 42.2057 81.0772 42.2057C80.934 42.2057 80.8624 42.1341 80.7909 42.0626C80.7193 41.991 80.6477 41.848 80.6477 41.7049ZM81.5068 48H80.7193V42.9925H81.5068V48Z" fill="#231F20"/>
<path d="M84.5136 43.0641V46.2832C84.5136 46.7124 84.5852 46.9985 84.8 47.2131C85.0148 47.4277 85.3011 47.4993 85.6591 47.4993C86.1602 47.4993 86.5898 47.3562 86.8046 47.07C87.0193 46.7839 87.1625 46.3547 87.1625 45.7109V43.0641H87.95V48.0715H87.3057L87.1625 47.4277H87.0909C86.9477 47.6423 86.733 47.8569 86.4466 48C86.1602 48.1431 85.8739 48.2146 85.5159 48.2146C84.9432 48.2146 84.442 48.0715 84.1557 47.7854C83.8693 47.4993 83.7261 47.07 83.7261 46.4262V43.1356H84.5136V43.0641Z" fill="#231F20"/>
<path d="M96.5411 48V44.7809C96.5411 44.3517 96.4695 44.0656 96.2547 43.9225C96.1115 43.7079 95.8252 43.6364 95.4672 43.6364C94.966 43.6364 94.6797 43.7794 94.3933 44.0656C94.1069 44.3517 94.0354 44.7809 94.0354 45.2817V48.0715H93.2478V44.8525C93.2478 44.4233 93.1763 44.1371 92.9615 43.994C92.7467 43.851 92.5319 43.7079 92.174 43.7079C91.6728 43.7079 91.3865 43.851 91.1001 44.1371C90.8137 44.4233 90.7421 44.8525 90.7421 45.4963V48.1431H89.9546V43.1356H90.5989L90.7421 43.851H90.8137C90.9569 43.6364 91.1717 43.4218 91.3865 43.2787C91.6728 43.1356 91.9592 43.0641 92.2456 43.0641C93.0331 43.0641 93.5342 43.3502 93.749 43.9225H93.8206C93.9638 43.6364 94.1785 43.4218 94.4649 43.2787C94.7513 43.1356 95.0376 43.0641 95.3956 43.0641C95.9683 43.0641 96.3979 43.2072 96.6843 43.4933C96.9706 43.7794 97.1138 44.2086 97.1138 44.8525V48.0715H96.5411V48Z" fill="#231F20"/>
<path d="M102.841 48V41.3472H103.629V47.2846H106.564V48H102.841Z" fill="#231F20"/>
<path d="M108.211 41.7049C108.211 41.5618 108.282 41.4188 108.354 41.3472C108.425 41.2757 108.568 41.2042 108.64 41.2042C108.783 41.2042 108.855 41.2757 108.926 41.3472C108.998 41.4188 109.07 41.5618 109.07 41.7049C109.07 41.848 108.998 41.991 108.926 42.0626C108.855 42.1341 108.712 42.2057 108.64 42.2057C108.497 42.2057 108.425 42.1341 108.354 42.0626C108.282 41.991 108.211 41.848 108.211 41.7049ZM108.998 48H108.211V42.9925H108.998V48Z" fill="#231F20"/>
<path d="M114.725 48V44.7809C114.725 44.3517 114.654 44.0655 114.439 43.8509C114.224 43.6363 113.938 43.5648 113.58 43.5648C113.079 43.5648 112.649 43.7079 112.434 43.994C112.22 44.2802 112.077 44.7094 112.077 45.3532V48H111.289V42.9925H111.933L112.077 43.7079H112.148C112.291 43.4933 112.506 43.2787 112.792 43.1356C113.079 42.9925 113.365 42.921 113.723 42.921C114.296 42.921 114.797 43.0641 115.083 43.3502C115.37 43.6363 115.513 44.0656 115.513 44.7094V47.9284H114.725V48Z" fill="#231F20"/>
<path d="M119.808 48.143C119.093 48.143 118.52 47.9284 118.09 47.4992C117.661 47.07 117.446 46.4262 117.446 45.6393C117.446 44.8524 117.661 44.2086 118.019 43.7079C118.448 43.2071 118.949 42.9925 119.594 42.9925C120.238 42.9925 120.739 43.2071 121.097 43.6363C121.455 44.0655 121.67 44.5663 121.67 45.2816V45.7824H118.233C118.233 46.3547 118.377 46.7839 118.663 47.1416C118.949 47.4277 119.307 47.5708 119.88 47.5708C120.453 47.5708 120.954 47.4277 121.455 47.2131V47.8569C121.169 48 120.954 48.0715 120.668 48.0715C120.453 48.0715 120.166 48.143 119.808 48.143ZM119.665 43.5648C119.236 43.5648 118.949 43.7079 118.735 43.9225C118.52 44.2086 118.377 44.5663 118.305 44.9955H120.882C120.882 44.4948 120.811 44.1371 120.596 43.9225C120.381 43.7079 120.023 43.5648 119.665 43.5648Z" fill="#231F20"/>
</g>
<defs>
<clipPath id="clip0_215_585">
<rect width="121.778" height="48" fill="white" transform="translate(0.25)"/>
</clipPath>
</defs>
</svg>
