<svg width="123" height="48" viewBox="0 0 123 48" fill="none" xmlns="http://www.w3.org/2000/svg">
<g clip-path="url(#clip0_215_870)">
<path d="M23.0878 13.1624C22.4435 4.2921 27.3117 1.93145 27.3117 1.93145C22.7298 6.15201 24.1617 13.6632 24.1617 13.6632C31.8936 11.1595 28.8867 0 28.8867 0C28.8867 0 23.1594 1.85991 21.1548 5.29359C19.1503 8.79881 23.0878 13.1624 23.0878 13.1624Z" fill="white"/>
<path d="M14.7116 22.1046C15.857 22.6768 16.8593 23.4637 17.5036 24.5368C18.148 25.6098 18.5059 26.7543 18.5059 28.1135C18.5059 30.1165 17.79 31.8333 16.3582 33.1925C14.9263 34.5517 13.2081 35.267 11.132 35.267H0.25V9.87207H10.3445C12.349 9.87207 13.9956 10.5159 15.3559 11.8751C16.7161 13.2342 17.432 14.808 17.432 16.811C17.5036 19.0286 16.5729 20.8169 14.7116 22.1046ZM10.3445 13.0196H3.61482V20.7454H10.3445C11.4183 20.7454 12.2774 20.3877 12.9934 19.6008C13.7093 18.8855 14.0672 17.9555 14.0672 16.8825C14.0672 15.8095 13.7093 14.8795 12.9218 14.1642C12.2774 13.4488 11.4183 13.0196 10.3445 13.0196ZM3.61482 32.0479H11.2036C12.349 32.0479 13.2797 31.6187 14.0672 30.8318C14.8547 30.0449 15.2127 29.0435 15.2127 27.8989C15.2127 26.7543 14.7832 25.8244 13.9956 25.0375C13.2797 24.2506 12.2774 23.8214 11.2036 23.8214H3.61482V32.0479Z" fill="#231F20"/>
<path d="M25.3071 35.1956H22.1571V15.9526H25.3071V35.1956Z" fill="#231F20"/>
<path d="M45.4244 32.3339C43.5631 34.1938 41.3437 35.0522 38.6232 35.0522C35.9027 35.0522 33.6834 34.1223 31.822 32.3339C29.9606 30.5455 29.1015 28.2564 29.1015 25.5381C29.1015 22.8198 30.0322 20.6022 31.822 18.7423C33.6118 16.8823 35.9027 16.0239 38.6232 16.0239C41.3437 16.0239 43.5631 16.9539 45.4244 18.7423C47.2858 20.6022 48.2165 22.8913 48.2165 25.5381C48.2165 28.1849 47.2858 30.474 45.4244 32.3339ZM38.6232 31.9762C40.413 31.9762 41.988 31.3324 43.2051 30.1163C44.4222 28.9002 45.0665 27.3265 45.0665 25.5381C45.0665 23.6782 44.4222 22.1759 43.2051 20.9598C41.988 19.7437 40.4846 19.0999 38.6232 19.0999C36.8334 19.0999 35.33 19.7437 34.1129 20.9598C32.8959 22.1759 32.2515 23.7497 32.2515 25.5381C32.2515 27.3265 32.8959 28.9002 34.1129 30.1163C35.33 31.404 36.8334 31.9762 38.6232 31.9762Z" fill="#231F20"/>
<path d="M63.8952 35.1955C60.1008 35.1955 56.9508 33.9794 54.4451 31.5472C51.9393 29.115 50.7223 26.1105 50.7223 22.5338C50.7223 18.8855 51.9393 15.881 54.4451 13.5204C56.9508 11.0882 60.1008 9.87207 63.8952 9.87207C66.1861 9.87207 68.3339 10.3728 70.2669 11.4458C72.1999 12.5189 73.7033 13.878 74.7772 15.6664L70.4816 18.0986C69.8373 17.0256 68.9782 16.1672 67.8327 15.5233C66.6873 14.8795 65.3986 14.5934 63.8952 14.5934C61.4611 14.5934 59.4565 15.3087 57.9531 16.811C56.4496 18.3132 55.7337 20.2446 55.7337 22.6053C55.7337 24.966 56.4496 26.8259 57.9531 28.3996C59.4565 29.9019 61.4611 30.6172 63.8952 30.6172C65.327 30.6172 66.6157 30.3311 67.8327 29.6873C68.9782 29.0435 69.9089 28.2566 70.4816 27.1835L74.7772 29.6157C73.7033 31.4041 72.1999 32.7633 70.2669 33.8363C68.3339 34.6947 66.1861 35.1955 63.8952 35.1955Z" fill="white"/>
<path d="M93.1763 22.1046C95.3956 23.3922 96.4695 25.3236 96.4695 27.8989C96.4695 30.0449 95.682 31.8333 94.1785 33.1925C92.6751 34.5517 90.8137 35.267 88.5944 35.267H77.8556V9.87207H87.8069C89.9546 9.87207 91.7444 10.5159 93.2478 11.8751C94.7513 13.2342 95.4672 14.9511 95.4672 16.954C95.5388 19.1001 94.7513 20.8169 93.1763 22.1046ZM87.8785 14.5218H82.867V20.1016H87.8785C88.666 20.1016 89.3103 19.8154 89.8114 19.3147C90.3126 18.8139 90.5989 18.0986 90.5989 17.3117C90.5989 16.5248 90.3842 15.881 89.8114 15.3087C89.2387 14.7365 88.666 14.5218 87.8785 14.5218ZM82.867 30.5457H88.5944C89.4535 30.5457 90.1694 30.2596 90.6705 29.6873C91.2433 29.115 91.5296 28.3996 91.5296 27.5412C91.5296 26.6828 91.2433 25.9675 90.6705 25.3952C90.0978 24.8229 89.3819 24.5368 88.5944 24.5368H82.867V30.5457Z" fill="white"/>
<path d="M99.7627 9.87207H109.786C113.294 9.87207 116.157 11.0882 118.448 13.5204C120.811 15.9525 121.956 18.957 121.956 22.5338C121.956 26.1105 120.811 29.115 118.448 31.5472C116.157 33.9794 113.222 35.1955 109.786 35.1955H99.7627V9.87207ZM104.774 30.4026H109.857C112.077 30.4026 113.866 29.6873 115.227 28.2566C116.587 26.7543 117.303 24.8229 117.303 22.5338C117.303 20.1731 116.587 18.3132 115.227 16.8825C113.866 15.3803 112.077 14.6649 109.857 14.6649H104.774V30.4026Z" fill="white"/>
<path d="M58.9553 43.3501C58.9553 43.994 58.7406 44.5662 58.2394 44.9239C57.8099 45.2816 57.0939 45.4962 56.2348 45.4962H55.4473V48.143H54.6598V41.4902H56.378C58.0962 41.4187 58.9553 42.0625 58.9553 43.3501ZM55.5189 44.7808H56.2348C56.9508 44.7808 57.3803 44.6378 57.7383 44.4232C58.0962 44.2086 58.1678 43.8509 58.1678 43.3501C58.1678 42.9209 58.0246 42.5633 57.7383 42.3487C57.4519 42.1341 57.0224 41.991 56.378 41.991H55.5189V44.7808Z" fill="#231F20"/>
<path d="M63.2508 42.9209C63.4656 42.9209 63.6804 42.9209 63.8236 42.9924L63.752 43.7078C63.4656 43.6362 63.3224 43.6362 63.1792 43.6362C62.7497 43.6362 62.4633 43.7793 62.177 44.137C61.8906 44.4947 61.7474 44.8523 61.7474 45.3531V47.9999H60.9599V42.9924H61.6042L61.6758 43.9224H61.7474C61.9622 43.5647 62.177 43.3501 62.3917 43.207C62.6065 43.064 62.8929 42.9209 63.2508 42.9209Z" fill="#231F20"/>
<path d="M67.5463 48.1432C66.8304 48.1432 66.2577 47.9286 65.8281 47.4994C65.3986 47.0702 65.1838 46.4264 65.1838 45.6395C65.1838 44.8526 65.3986 44.2088 65.7565 43.708C66.1145 43.2073 66.6872 42.9927 67.3316 42.9927C67.9759 42.9927 68.477 43.2073 68.835 43.6365C69.193 44.0657 69.4077 44.5664 69.4077 45.2818V45.7825H65.9713C65.9713 46.3548 66.1145 46.784 66.4009 47.1417C66.6872 47.4278 67.0452 47.5709 67.6179 47.5709C68.1191 47.5709 68.6918 47.4278 69.193 47.2132V47.8571C68.9066 48.0001 68.6918 48.0717 68.4054 48.0717C68.1907 48.0717 67.9043 48.1432 67.5463 48.1432ZM67.3316 43.565C66.902 43.565 66.6156 43.708 66.4009 43.9226C66.1861 44.2088 66.0429 44.5664 65.9713 44.9957H68.5486C68.5486 44.4949 68.477 44.1372 68.2623 43.9226C68.0475 43.708 67.7611 43.565 67.3316 43.565Z" fill="#231F20"/>
<path d="M77.7124 47.9999V44.7808C77.7124 44.3516 77.6408 44.0655 77.426 43.9224C77.2113 43.7793 76.9965 43.6362 76.6385 43.6362C76.1374 43.6362 75.851 43.7793 75.5646 44.0655C75.3499 44.3516 75.2067 44.7808 75.2067 45.2815V48.0714H74.4192V44.8523C74.4192 44.4231 74.3476 44.137 74.1328 43.9939C73.9896 43.7793 73.7033 43.7078 73.3453 43.7078C72.8441 43.7078 72.5578 43.8509 72.2714 44.137C72.0566 44.4231 71.9135 44.8523 71.9135 45.4962V48.143H71.1259V43.1355H71.7703L71.9135 43.8508H71.985C72.1282 43.6362 72.343 43.4216 72.5578 43.2786C72.8442 43.1355 73.1305 43.064 73.4169 43.064C74.2044 43.064 74.7055 43.3501 74.9203 43.9224H74.9919C75.1351 43.6362 75.3499 43.4216 75.6362 43.2786C75.9226 43.1355 76.209 43.064 76.5669 43.064C77.1397 43.064 77.5692 43.207 77.8556 43.4932C78.142 43.7793 78.2851 44.2085 78.2851 44.8523V48.0714H77.7124V47.9999Z" fill="#231F20"/>
<path d="M80.6477 41.7048C80.6477 41.5618 80.7193 41.4187 80.7909 41.3472C80.8624 41.2756 81.0056 41.2041 81.0772 41.2041C81.2204 41.2041 81.292 41.2756 81.3636 41.3472C81.4352 41.4187 81.5068 41.5618 81.5068 41.7048C81.5068 41.8479 81.4352 41.991 81.3636 42.0625C81.292 42.1341 81.1488 42.2056 81.0772 42.2056C80.934 42.2056 80.8624 42.1341 80.7909 42.0625C80.7193 41.991 80.6477 41.8479 80.6477 41.7048ZM81.5068 47.9999H80.7193V42.9925H81.5068V47.9999Z" fill="#231F20"/>
<path d="M84.5136 43.064V46.283C84.5136 46.7122 84.5852 46.9984 84.8 47.213C85.0148 47.4276 85.3011 47.4991 85.6591 47.4991C86.1602 47.4991 86.5898 47.3561 86.8046 47.0699C87.0193 46.7838 87.1625 46.3546 87.1625 45.7108V43.064H87.95V48.0714H87.3057L87.1625 47.4276H87.0909C86.9477 47.6422 86.733 47.8568 86.4466 47.9999C86.1602 48.1429 85.8739 48.2145 85.5159 48.2145C84.9432 48.2145 84.442 48.0714 84.1557 47.7853C83.8693 47.4991 83.7261 47.0699 83.7261 46.4261V43.1355H84.5136V43.064Z" fill="#231F20"/>
<path d="M96.5411 47.9999V44.7808C96.5411 44.3516 96.4695 44.0655 96.2547 43.9224C96.1115 43.7078 95.8252 43.6362 95.4672 43.6362C94.966 43.6362 94.6797 43.7793 94.3933 44.0655C94.1069 44.3516 94.0354 44.7808 94.0354 45.2815V48.0714H93.2478V44.8523C93.2478 44.4231 93.1763 44.137 92.9615 43.9939C92.7467 43.8508 92.5319 43.7078 92.174 43.7078C91.6728 43.7078 91.3865 43.8509 91.1001 44.137C90.8137 44.4231 90.7421 44.8523 90.7421 45.4962V48.143H89.9546V43.1355H90.5989L90.7421 43.8508H90.8137C90.9569 43.6362 91.1717 43.4216 91.3865 43.2786C91.6728 43.1355 91.9592 43.064 92.2456 43.064C93.0331 43.064 93.5342 43.3501 93.749 43.9224H93.8206C93.9638 43.6362 94.1785 43.4216 94.4649 43.2786C94.7513 43.1355 95.0376 43.064 95.3956 43.064C95.9683 43.064 96.3979 43.207 96.6843 43.4932C96.9706 43.7793 97.1138 44.2085 97.1138 44.8523V48.0714H96.5411V47.9999Z" fill="#231F20"/>
<path d="M102.841 47.9999V41.3472H103.629V47.2846H106.564V47.9999H102.841Z" fill="#231F20"/>
<path d="M108.211 41.7048C108.211 41.5618 108.282 41.4187 108.354 41.3472C108.425 41.2756 108.568 41.2041 108.64 41.2041C108.783 41.2041 108.855 41.2756 108.926 41.3472C108.998 41.4187 109.07 41.5618 109.07 41.7048C109.07 41.8479 108.998 41.991 108.926 42.0625C108.855 42.1341 108.712 42.2056 108.64 42.2056C108.497 42.2056 108.425 42.1341 108.354 42.0625C108.282 41.991 108.211 41.8479 108.211 41.7048ZM108.998 47.9999H108.211V42.9925H108.998V47.9999Z" fill="#231F20"/>
<path d="M114.725 47.9999V44.7808C114.725 44.3516 114.654 44.0655 114.439 43.8509C114.224 43.6362 113.938 43.5647 113.58 43.5647C113.079 43.5647 112.649 43.7078 112.434 43.9939C112.22 44.2801 112.077 44.7093 112.077 45.3531V47.9999H111.289V42.9924H111.933L112.077 43.7078H112.148C112.291 43.4932 112.506 43.2786 112.792 43.1355C113.079 42.9924 113.365 42.9209 113.723 42.9209C114.296 42.9209 114.797 43.064 115.083 43.3501C115.37 43.6362 115.513 44.0655 115.513 44.7093V47.9284H114.725V47.9999Z" fill="#231F20"/>
<path d="M119.808 48.1432C119.093 48.1432 118.52 47.9286 118.09 47.4994C117.661 47.0702 117.446 46.4264 117.446 45.6395C117.446 44.8526 117.661 44.2088 118.019 43.708C118.448 43.2073 118.949 42.9927 119.594 42.9927C120.238 42.9927 120.739 43.2073 121.097 43.6365C121.455 44.0657 121.67 44.5664 121.67 45.2818V45.7825H118.233C118.233 46.3548 118.377 46.784 118.663 47.1417C118.949 47.4278 119.307 47.5709 119.88 47.5709C120.453 47.5709 120.954 47.4278 121.455 47.2132V47.8571C121.169 48.0001 120.954 48.0717 120.668 48.0717C120.453 48.0717 120.166 48.1432 119.808 48.1432ZM119.665 43.565C119.236 43.565 118.949 43.708 118.735 43.9226C118.52 44.2088 118.377 44.5664 118.305 44.9957H120.882C120.882 44.4949 120.811 44.1372 120.596 43.9226C120.381 43.708 120.023 43.565 119.665 43.565Z" fill="#231F20"/>
</g>
<defs>
<clipPath id="clip0_215_870">
<rect width="121.778" height="48" fill="white" transform="translate(0.25)"/>
</clipPath>
</defs>
</svg>
