<?xml version="1.0" encoding="utf-8"?>
<!-- Generator: Adobe Illustrator 25.4.1, SVG Export Plug-In . SVG Version: 6.00 Build 0)  -->
<svg version="1.1" id="Слой_1" xmlns="http://www.w3.org/2000/svg" xmlns:xlink="http://www.w3.org/1999/xlink" x="0px" y="0px"
	 viewBox="0 0 105 80" style="enable-background:new 0 0 105 80;" xml:space="preserve">
<style type="text/css">
	.st0{fill:#2C3954;}
</style>
<path class="st0" d="M23.8,20.1c1.1,0,2,0,2.9,0c1.4,0,2,0.6,2,2c0,3.5,0,7,0,10.7c3.5,1,3.8,3.8,3.7,7c-0.1,11.5,0,23.1,0,34.6
	c0,3.9-1.7,5.6-5.6,5.6c-6.3,0-12.5,0-18.8,0c-3.8,0-5.4-1.7-5.4-5.5c0-12.1,0-24.2,0-36.3c0-2.3,0.7-4,2.9-5.1
	c0.4-0.2,0.8-1,0.8-1.5c0.1-2.9,0-5.9,0-8.8c0-2.4,0.2-2.7,2.6-2.7c0.7,0,1.3,0,2.2,0c0.1-0.8,0.2-1.4,0.2-2c0-3.9,0-7.7,0-11.6
	c0-3.2,1.9-5.6,4.7-6.3c2.9-0.7,5.9,0.5,7.1,3.2c0.5,1,0.6,2.2,0.7,3.4c0.1,3.7,0,7.5,0,11.2C23.6,18.6,23.7,19.3,23.8,20.1z
	 M13.5,34.9c-0.4,0-0.6-0.1-0.8-0.1c-1.7,0-3.4,0-5.2,0c-2.4,0-3.3,0.9-3.3,3.4c0,12.2,0,24.4,0,36.6c0,2.4,0.9,3.4,3.3,3.4
	c6.5,0,13,0,19.5,0c2.3,0,3.3-1.1,3.3-3.4c0-3.5,0-7,0-10.5c0-8.7,0-17.4,0-26.1c0-1.6-0.5-3.1-2.2-3.3c-2.3-0.2-4.6-0.1-7-0.1
	c0,3.3,0,6.4,0,9.6c2.1,0,4.1,0.1,6.2,0c1.3,0,1.7,0.5,1.7,1.7c0,9.1,0,18.2,0,27.2c0,2.5-1.4,3.8-4,3.8c-5.2,0-10.4,0-15.6,0
	c-2.5,0-4-1.4-4-3.8c-0.1-9.1,0-18.2,0-27.2c0-1.3,0.5-1.8,1.8-1.7c2.1,0.1,4.1,0,6.2,0C13.5,41.1,13.5,38,13.5,34.9z M17.2,71.5
	c0.1,0,0.2,0,0.3,0c0.1-1,0.2-2.1,0.4-3.1c0.4-2.3,1.4-4.5,1.4-6.8c0.2-8.4,0.1-16.8,0.1-25.2c0-0.5-0.1-1.1-0.1-1.5
	c-1.3,0-2.5,0-3.8,0c0,8-0.2,15.9,0.1,23.8C15.7,63,16.6,67.2,17.2,71.5z"/>
<path class="st0" d="M58.8,20.1c1.1,0,2,0,2.9,0c1.4,0,2,0.6,2,2c0,3.5,0,7,0,10.7c3.5,1,3.8,3.8,3.7,7c-0.1,11.5,0,23.1,0,34.6
	c0,3.9-1.7,5.6-5.6,5.6c-6.3,0-12.5,0-18.8,0c-3.8,0-5.4-1.7-5.4-5.5c0-12.1,0-24.2,0-36.3c0-2.3,0.7-4,2.9-5.1
	c0.4-0.2,0.8-1,0.8-1.5c0.1-2.9,0-5.9,0-8.8c0-2.4,0.2-2.7,2.6-2.7c0.7,0,1.3,0,2.2,0c0.1-0.8,0.2-1.4,0.2-2c0-3.9,0-7.7,0-11.6
	c0-3.2,1.9-5.6,4.7-6.3c2.9-0.7,5.9,0.5,7.1,3.2c0.5,1,0.6,2.2,0.7,3.4c0.1,3.7,0,7.5,0,11.2C58.6,18.6,58.7,19.3,58.8,20.1z
	 M48.5,34.9c-0.4,0-0.6-0.1-0.8-0.1c-1.7,0-3.4,0-5.2,0c-2.4,0-3.3,0.9-3.3,3.4c0,12.2,0,24.4,0,36.6c0,2.4,0.9,3.4,3.3,3.4
	c6.5,0,13,0,19.5,0c2.3,0,3.3-1.1,3.3-3.4c0-3.5,0-7,0-10.5c0-8.7,0-17.4,0-26.1c0-1.6-0.5-3.1-2.2-3.3c-2.3-0.2-4.6-0.1-7-0.1
	c0,3.3,0,6.4,0,9.6c2.1,0,4.1,0.1,6.2,0c1.3,0,1.7,0.5,1.7,1.7c0,9.1,0,18.2,0,27.2c0,2.5-1.4,3.8-4,3.8c-5.2,0-10.4,0-15.6,0
	c-2.5,0-4-1.4-4-3.8c-0.1-9.1,0-18.2,0-27.2c0-1.3,0.5-1.8,1.8-1.7c2.1,0.1,4.1,0,6.2,0C48.5,41.1,48.5,38,48.5,34.9z M52.2,71.5
	c0.1,0,0.2,0,0.3,0c0.1-1,0.2-2.1,0.4-3.1c0.4-2.3,1.4-4.5,1.4-6.8c0.2-8.4,0.1-16.8,0.1-25.2c0-0.5-0.1-1.1-0.1-1.5
	c-1.3,0-2.5,0-3.8,0c0,8-0.2,15.9,0.1,23.8C50.7,63,51.6,67.2,52.2,71.5z"/>
<path class="st0" d="M93.8,20.1c1.1,0,2,0,2.9,0c1.4,0,2,0.6,2,2c0,3.5,0,7,0,10.7c3.5,1,3.8,3.8,3.7,7c-0.1,11.5,0,23.1,0,34.6
	c0,3.9-1.7,5.6-5.6,5.6c-6.3,0-12.5,0-18.8,0c-3.8,0-5.4-1.7-5.4-5.5c0-12.1,0-24.2,0-36.3c0-2.3,0.7-4,2.9-5.1
	c0.4-0.2,0.8-1,0.8-1.5c0.1-2.9,0-5.9,0-8.8c0-2.4,0.2-2.7,2.6-2.7c0.7,0,1.3,0,2.2,0c0.1-0.8,0.2-1.4,0.2-2c0-3.9,0-7.7,0-11.6
	c0-3.2,1.9-5.6,4.7-6.3c2.9-0.7,5.9,0.5,7.1,3.2c0.5,1,0.6,2.2,0.7,3.4c0.1,3.7,0,7.5,0,11.2C93.6,18.6,93.7,19.3,93.8,20.1z
	 M83.5,34.9c-0.4,0-0.6-0.1-0.8-0.1c-1.7,0-3.4,0-5.2,0c-2.4,0-3.3,0.9-3.3,3.4c0,12.2,0,24.4,0,36.6c0,2.4,0.9,3.4,3.3,3.4
	c6.5,0,13,0,19.5,0c2.3,0,3.3-1.1,3.3-3.4c0-3.5,0-7,0-10.5c0-8.7,0-17.4,0-26.1c0-1.6-0.5-3.1-2.2-3.3c-2.3-0.2-4.6-0.1-7-0.1
	c0,3.3,0,6.4,0,9.6c2.1,0,4.1,0.1,6.2,0c1.3,0,1.7,0.5,1.7,1.7c0,9.1,0,18.2,0,27.2c0,2.5-1.4,3.8-4,3.8c-5.2,0-10.4,0-15.6,0
	c-2.5,0-4-1.4-4-3.8c-0.1-9.1,0-18.2,0-27.2c0-1.3,0.5-1.8,1.8-1.7c2.1,0.1,4.1,0,6.2,0C83.5,41.1,83.5,38,83.5,34.9z M87.2,71.5
	c0.1,0,0.2,0,0.3,0c0.1-1,0.2-2.1,0.4-3.1c0.4-2.3,1.4-4.5,1.4-6.8c0.2-8.4,0.1-16.8,0.1-25.2c0-0.5-0.1-1.1-0.1-1.5
	c-1.3,0-2.5,0-3.8,0c0,8-0.2,15.9,0.1,23.8C85.7,63,86.6,67.2,87.2,71.5z"/>
</svg>
