<?xml version="1.0" encoding="utf-8"?>
<!-- Generator: Adobe Illustrator 25.4.1, SVG Export Plug-In . SVG Version: 6.00 Build 0)  -->
<svg version="1.1" id="Слой_1" xmlns="http://www.w3.org/2000/svg" xmlns:xlink="http://www.w3.org/1999/xlink" x="0px" y="0px"
	 viewBox="0 0 105 80" style="enable-background:new 0 0 105 80;" xml:space="preserve">
<style type="text/css">
	.st0{fill:#2C3954;}
</style>
<path class="st0" d="M22.3,28.6c5.8,1.9,11.4,3.7,16.9,5.6c0.5,0.2,0.9,1.1,1,1.7c1.2,9.9,2.3,19.7,3.5,29.6c0.3,3,0.7,6,1,8.9
	c0.2,1.8-0.5,3.4-2.4,3.1c-7-0.9-13.4,2-20.1,2.4c-2.7,0.2-5.4-0.2-8-0.3c-0.6,0-1.3,0-1.9,0.1c-3.3,0.5-6.3-0.2-8.3-2.9
	c-3.5-4.7-4.6-10-3.8-15.8c0.1-0.7,0.5-1.3,1.1-2C4,64.2,4.9,70.2,9.7,74.4C11,58.3,17,43.8,22.3,28.6z"/>
<path class="st0" d="M60.9,49.1c3.7-1.8,7.4-3.6,11.1-5.3c0.5-0.2,1.4-0.2,1.9,0.1c10.1,5.9,17.1,14.2,20.3,25.5
	c0.5,1.7,1.3,1.7,2.5,1.1c4-2.1,4.3-7,0.5-9.5c-3.2-2.1-4.2-4.2-3.3-8c0.4-1.8,1.1-3.5,2-5c0.7-1.1,1.8-2.1,3-2.8
	c1.2-0.7,2.8-1.1,3.7,0.3c1,1.5-0.2,2.5-1.5,3.3c-3.7,2.4-5,7-0.4,10.2c3.3,2.2,4.1,5.9,2.6,9.5c-1.8,4.2-4.8,6.9-9.3,7.8
	c-0.3,0.1-0.6,0.1-0.8,0.2c-5,4.1-11,3.3-16.8,3.1c-4.3-0.2-8.6-0.7-12.8-1.2c-1.6-0.2-2.5-0.8-2.5-2.7c0-8.8-0.2-17.6-0.3-26.5
	C60.9,49.3,60.9,49.1,60.9,49.1z"/>
<path class="st0" d="M35,6.6c0.6,0.1,0.9,0.3,1.1,0.2c3.7-0.4,6.1,1.3,7.6,4.6c0.3,0.6,1.4,1.1,2.2,1.2c1.8,0.3,3.6,0.3,5.4,0.5
	c2,0.3,3,1.4,3,3.6c0,4.3-1.3,6.3-5.4,7.7c-1.6,0.6-3.2,1.1-4.8,1.5c-2.6,0.5-4.3,1.7-4.4,4.8c-0.8-0.1-1.4,0-2-0.2
	c-4.4-1.5-8.7-2.9-13-4.5c-0.5-0.2-1.2-1.2-1.1-1.7c2.1-7,4.3-14.1,6.7-21c0.5-1.3,2-2.2,3.1-3.3c0.5,1.4,1.1,2.8,1.6,4.3
	C35.2,4.9,35,5.7,35,6.6z"/>
<path class="st0" d="M61.2,45.8c-2.1-1.8-3.6-3.3-5.2-4.5c-2.7-1.9-3-5.9-0.7-8.2c0.7-0.7,1.6-1.5,1.9-2.4c0.8-2.6,2.7-3.5,5.1-3.6
	c1.3-0.1,1.9-0.6,2.5-1.7c0.6-1.4,1.5-2.7,2.4-3.9c0.9-1.2,2.2-1.4,2.7,0.1c1.5,4.9,4.1,9.5,3.2,15.2c-0.6,3.8-2.4,5.4-5.5,6.6
	C65.3,44.2,62.9,45.2,61.2,45.8z"/>
</svg>
