<?xml version="1.0" encoding="utf-8"?>
<!-- Generator: Adobe Illustrator 25.4.1, SVG Export Plug-In . SVG Version: 6.00 Build 0)  -->
<svg version="1.1" id="Слой_1" xmlns="http://www.w3.org/2000/svg" xmlns:xlink="http://www.w3.org/1999/xlink" x="0px" y="0px"
	 viewBox="0 0 105 80" style="enable-background:new 0 0 105 80;" xml:space="preserve">
<style type="text/css">
	.st0{fill:#2C3954;}
</style>
<path class="st0" d="M38.4,25.9c-0.8,0.1-1.7,0.2-2.5,0.2c-0.8,0.1-1.7,0.1-2.5,0.3c-2,0.3-3.4,2.1-3.2,4.1c0.2,2.4,0.5,4.9,0.8,7.3
	c0.3,2.5,0.6,5.1,0.9,7.6c0.2,2.8,2,4.3,4.7,4c4.9-0.5,9.7-1.1,14.6-1.7c2.7-0.3,4-2.3,3.6-5.1c-0.4-2.6-0.6-5.1-0.9-7.7
	c-0.3-2.4-0.5-4.7-0.8-7.1c-0.3-2-2.3-3.4-4.3-3.2c-1.8,0.2-3.7,0.5-5.6,0.7c-1-8.7-2.2-17.4-6.7-25.3c0.3,0,0.6,0,0.9,0
	C46.9,0,56.4,0,66,0c2.5,0,4.2,1.4,4.8,3.8c0.1,0.4,0.1,0.8,0.1,1.2c0,2.8,0,5.5,0,8.3c0,0.2,0,0.5,0,0.8c0.3,0,0.6,0,0.9,0
	c3.2,0,6.4,0,9.7,0c3.5,0.1,6.8,0.9,9.9,2.6c4.1,2.3,6.5,5.9,7.4,10.4c0.6,3,0.8,6.1,0,9.1c-0.7,2.7-2,5.1-3.5,7.5
	c-3.1,5.1-7.2,9.4-12.3,12.5c-3.6,2.2-7.5,3.7-11.7,4.4c-0.1,0-0.2,0-0.3,0.1c0,0.9,0,1.9,0,2.8c0,3.9,0,7.8,0,11.7
	c0,2.7-2.1,4.7-4.8,4.7c-15.8,0-31.5,0-47.3,0c-3,0-6,0-9,0c-2.5,0-4.6-2-4.7-4.6c0-0.1,0-0.3,0-0.4C5,51.7,5,28.3,5,5
	c0-2.3,1.2-4,3.3-4.8C8.7,0.1,9.3,0,9.8,0c6.6,0,13.1,0,19.7,0c0.6,0,1.1,0.3,1.5,0.7c1.6,1.6,2.5,3.5,3.4,5.5
	c1.5,3.8,2.4,7.8,3.1,11.8c0.4,2.5,0.7,4.9,1,7.4C38.4,25.6,38.4,25.7,38.4,25.9z M70.9,23.5c0,9.2,0,18.4,0,27.7
	c1-0.3,2-0.5,2.9-0.9c7-2.7,11.7-7.8,14.9-14.5c0.5-1.1,0.8-2.4,1-3.7c0.1-1-0.1-2-0.2-3c-0.2-1.6-0.7-3.1-2-4.1
	c-1.3-1-2.8-1.3-4.3-1.4c-2.4-0.1-4.8-0.1-7.2-0.2C74.3,23.5,72.6,23.5,70.9,23.5z"/>
</svg>
