<?xml version="1.0" encoding="utf-8"?>
<!-- Generator: Adobe Illustrator 25.4.1, SVG Export Plug-In . SVG Version: 6.00 Build 0)  -->
<svg version="1.1" id="Слой_1" xmlns="http://www.w3.org/2000/svg" xmlns:xlink="http://www.w3.org/1999/xlink" x="0px" y="0px"
	 viewBox="0 0 105 80" style="enable-background:new 0 0 105 80;" xml:space="preserve">
<style type="text/css">
	.st0{fill:#2C3954;}
</style>
<path class="st0" d="M12,57.6c0-1.4,0-2.8,0-4.3c0.1-0.2,0.2-0.4,0.3-0.6c0.5-4.4,2.5-8.1,5.6-11.2C29.8,29.7,41.6,17.7,53.6,5.9
	c1.7-1.7,3.9-3.1,6.1-4.2c1.7-0.9,3.8-1.2,5.7-1.7c1.4,0,2.8,0,4.3,0c0.2,0.1,0.4,0.2,0.6,0.2c9.8,1.5,16.4,7,20.1,16
	c0.8,1.9,1.1,4.1,1.6,6.1c0,1.4,0,2.8,0,4.3c-0.1,0.2-0.2,0.4-0.3,0.6c-0.5,4.3-2.4,8-5.5,11c-12,12-23.9,24-36,35.8
	c-2,2-4.8,3.3-7.4,4.7c-1.2,0.7-2.8,0.8-4.2,1.1c-1.4,0-2.8,0-4.3,0c-0.2-0.1-0.4-0.2-0.6-0.2c-8.8-1.2-15.1-6-19.1-13.8
	C13.3,63.4,12.9,60.4,12,57.6z M36,30.9c-5.3,5.4-10.8,10.8-16,16.5c-2.3,2.5-2.9,5.8-2.6,9.2c0.7,7.4,4.7,12.8,11.2,16.1
	c6.6,3.4,13.2,2.3,18.5-2.9c2.3-2.3,4.7-4.7,7-7c2.3-2.3,4.6-4.6,6.9-6.8C52.7,47.5,44.5,39.3,36,30.9z"/>
</svg>
