<svg width="25" height="24" viewBox="0 0 25 24" fill="none" xmlns="http://www.w3.org/2000/svg">
<g clip-path="url(#clip0_215_610)">
<path d="M18.281 16.617L22.564 20.899L21.149 22.314L16.867 18.031C15.2737 19.3082 13.292 20.0029 11.25 20C6.282 20 2.25 15.968 2.25 11C2.25 6.032 6.282 2 11.25 2C16.218 2 20.25 6.032 20.25 11C20.2529 13.042 19.5582 15.0237 18.281 16.617ZM16.275 15.875C17.5441 14.5699 18.2529 12.8204 18.25 11C18.25 7.132 15.117 4 11.25 4C7.382 4 4.25 7.132 4.25 11C4.25 14.867 7.382 18 11.25 18C13.0704 18.0029 14.8199 17.2941 16.125 16.025L16.275 15.875Z" fill="#B0B0B8"/>
</g>
<defs>
<clipPath id="clip0_215_610">
<rect width="24" height="24" fill="white" transform="translate(0.25)"/>
</clipPath>
</defs>
</svg>
