<svg width="25" height="24" viewBox="0 0 25 24" fill="none" xmlns="http://www.w3.org/2000/svg">
<g clip-path="url(#clip0_215_571)">
<path d="M20.25 22H18.25V20C18.25 19.2044 17.9339 18.4413 17.3713 17.8787C16.8087 17.3161 16.0456 17 15.25 17H9.25C8.45435 17 7.69129 17.3161 7.12868 17.8787C6.56607 18.4413 6.25 19.2044 6.25 20V22H4.25V20C4.25 18.6739 4.77678 17.4021 5.71447 16.4645C6.65215 15.5268 7.92392 15 9.25 15H15.25C16.5761 15 17.8479 15.5268 18.7855 16.4645C19.7232 17.4021 20.25 18.6739 20.25 20V22ZM12.25 13C11.4621 13 10.6819 12.8448 9.9539 12.5433C9.22595 12.2417 8.56451 11.7998 8.00736 11.2426C7.45021 10.6855 7.00825 10.0241 6.70672 9.2961C6.40519 8.56815 6.25 7.78793 6.25 7C6.25 6.21207 6.40519 5.43185 6.70672 4.7039C7.00825 3.97595 7.45021 3.31451 8.00736 2.75736C8.56451 2.20021 9.22595 1.75825 9.9539 1.45672C10.6819 1.15519 11.4621 1 12.25 1C13.8413 1 15.3674 1.63214 16.4926 2.75736C17.6179 3.88258 18.25 5.4087 18.25 7C18.25 8.5913 17.6179 10.1174 16.4926 11.2426C15.3674 12.3679 13.8413 13 12.25 13ZM12.25 11C13.3109 11 14.3283 10.5786 15.0784 9.82843C15.8286 9.07828 16.25 8.06087 16.25 7C16.25 5.93913 15.8286 4.92172 15.0784 4.17157C14.3283 3.42143 13.3109 3 12.25 3C11.1891 3 10.1717 3.42143 9.42157 4.17157C8.67143 4.92172 8.25 5.93913 8.25 7C8.25 8.06087 8.67143 9.07828 9.42157 9.82843C10.1717 10.5786 11.1891 11 12.25 11Z" fill="#2C3954"/>
</g>
<defs>
<clipPath id="clip0_215_571">
<rect width="24" height="24" fill="white" transform="translate(0.25)"/>
</clipPath>
</defs>
</svg>
