<svg width="24" height="24" viewBox="0 0 24 24" fill="none" xmlns="http://www.w3.org/2000/svg">
<path d="M11.984 5.25C8.331 5.25 4.583 7.365 1.633 11.594C1.54872 11.716 1.50251 11.8603 1.5002 12.0085C1.49788 12.1568 1.53957 12.3024 1.62 12.427C3.887 15.975 7.584 18.75 11.984 18.75C16.336 18.75 20.109 15.967 22.381 12.41C22.4596 12.2879 22.5013 12.1457 22.5013 12.0005C22.5013 11.8553 22.4596 11.7131 22.381 11.591C20.104 8.076 16.303 5.25 11.984 5.25Z" stroke="#2C3954" stroke-width="2" stroke-linecap="round" stroke-linejoin="round"/>
<path d="M12 15.75C12.9946 15.75 13.9484 15.3549 14.6517 14.6517C15.3549 13.9484 15.75 12.9946 15.75 12C15.75 11.0054 15.3549 10.0516 14.6517 9.34835C13.9484 8.64509 12.9946 8.25 12 8.25C11.0054 8.25 10.0516 8.64509 9.34835 9.34835C8.64509 10.0516 8.25 11.0054 8.25 12C8.25 12.9946 8.64509 13.9484 9.34835 14.6517C10.0516 15.3549 11.0054 15.75 12 15.75V15.75Z" stroke="#2C3954" stroke-width="2" stroke-linecap="round" stroke-linejoin="round"/>
</svg>
