<?xml version="1.0" encoding="utf-8"?>
<!-- Generator: Adobe Illustrator 25.4.1, SVG Export Plug-In . SVG Version: 6.00 Build 0)  -->
<svg version="1.1" id="Слой_1" xmlns="http://www.w3.org/2000/svg" xmlns:xlink="http://www.w3.org/1999/xlink" x="0px" y="0px"
	 viewBox="0 0 24 24" style="enable-background:new 0 0 24 24;" xml:space="preserve">
<style type="text/css">
	.st0{clip-path:url(#SVGID_00000000923194265525844600000015103518982503564937_);}
	.st1{fill:#6AAB2F;}
	.st2{fill:#2C3954;}
</style>
<g>
	<defs>
		<rect id="SVGID_1_" y="0" width="24" height="24"/>
	</defs>
	<clipPath id="SVGID_00000147940993219042452390000012381635892198936201_">
		<use xlink:href="#SVGID_1_"  style="overflow:visible;"/>
	</clipPath>
	<g style="clip-path:url(#SVGID_00000147940993219042452390000012381635892198936201_);">
		<path class="st1" d="M5,4h6v6H5V4z M7,6v2h2V6H7z M5,14h6v6H5V14z M7,16v2h2v-2H7z"/>
		<path class="st2" d="M13,4h6v6h-6V4z M15,6v2h2V6H15z M13,14h6v6h-6V14z M15,16v2h2v-2H15z"/>
		<path class="st1" d="M13,4h6v6h-6V4z M15,6v2h2V6H15z M13,14h6v6h-6V14z M15,16v2h2v-2H15z"/>
	</g>
</g>
</svg>
