<svg width="24" height="24" viewBox="0 0 24 24" fill="none" xmlns="http://www.w3.org/2000/svg">
<g clip-path="url(#clip0_230_8)">
<path d="M5 4H11V10H5V4ZM7 6V8H9V6H7ZM5 14H11V20H5V14ZM7 16V18H9V16H7Z" fill="#75BB34"/>
<path d="M13 4H19V10H13V4ZM15 6V8H17V6H15ZM13 14H19V20H13V14ZM15 16V18H17V16H15Z" fill="#75BB34"/>
<path d="M13 4H19V10H13V4ZM15 6V8H17V6H15ZM13 14H19V20H13V14ZM15 16V18H17V16H15Z" fill="#75BB34"/>
</g>
<defs>
<clipPath id="clip0_230_8">
<rect width="24" height="24" fill="white"/>
</clipPath>
</defs>
</svg>
